<mxfile host="app.diagrams.net" modified="2023-03-20T17:49:06.171Z" agent="5.0 (Windows NT 10.0; Win64; x64) AppleWebKit/537.36 (KHTML, like Gecko) Chrome/111.0.0.0 Safari/537.36" etag="iUQ6YtoUXPq6DQ04bwK1" version="21.0.8" type="github" pages="2">
  <diagram name="Page-1" id="7lcbw6gaZPo1_dkbYZ_E">
    <mxGraphModel dx="1176" dy="739" grid="1" gridSize="10" guides="1" tooltips="1" connect="1" arrows="1" fold="1" page="1" pageScale="1" pageWidth="850" pageHeight="1100" math="0" shadow="0">
      <root>
        <mxCell id="0" />
        <mxCell id="1" parent="0" />
        <mxCell id="sDDYBNbBu50_8kbClNVD-11" style="edgeStyle=orthogonalEdgeStyle;rounded=0;orthogonalLoop=1;jettySize=auto;html=1;exitX=0;exitY=0.5;exitDx=0;exitDy=0;exitPerimeter=0;entryX=1;entryY=0.5;entryDx=0;entryDy=0;" parent="1" source="sDDYBNbBu50_8kbClNVD-9" target="sDDYBNbBu50_8kbClNVD-5" edge="1">
          <mxGeometry relative="1" as="geometry" />
        </mxCell>
        <mxCell id="sDDYBNbBu50_8kbClNVD-12" value="" style="group;fillColor=none;" parent="1" vertex="1" connectable="0">
          <mxGeometry x="579.28" y="530" width="130" height="150" as="geometry" />
        </mxCell>
        <mxCell id="sDDYBNbBu50_8kbClNVD-9" value="" style="outlineConnect=0;dashed=0;verticalLabelPosition=bottom;verticalAlign=top;align=center;html=1;shape=mxgraph.aws3.decider;fillColor=#D9A741;gradientColor=none;" parent="sDDYBNbBu50_8kbClNVD-12" vertex="1">
          <mxGeometry x="7.647058823529411" width="108.20588235294117" height="112.19758064516128" as="geometry" />
        </mxCell>
        <mxCell id="sDDYBNbBu50_8kbClNVD-10" value="Legacy Server&lt;br&gt;(CRAM language)" style="text;html=1;strokeColor=none;fillColor=none;align=center;verticalAlign=middle;whiteSpace=wrap;rounded=0;" parent="sDDYBNbBu50_8kbClNVD-12" vertex="1">
          <mxGeometry y="112.19758064516128" width="130" height="37.802419354838705" as="geometry" />
        </mxCell>
        <mxCell id="sDDYBNbBu50_8kbClNVD-13" value="" style="group" parent="1" vertex="1" connectable="0">
          <mxGeometry x="359.99999999999994" y="528" width="120" height="200" as="geometry" />
        </mxCell>
        <mxCell id="sDDYBNbBu50_8kbClNVD-7" value="" style="group" parent="sDDYBNbBu50_8kbClNVD-13" vertex="1" connectable="0">
          <mxGeometry x="12.700000000000045" width="94.59000000000003" height="148" as="geometry" />
        </mxCell>
        <mxCell id="sDDYBNbBu50_8kbClNVD-4" value="" style="image;aspect=fixed;perimeter=ellipsePerimeter;html=1;align=center;shadow=0;dashed=0;spacingTop=3;image=img/lib/active_directory/database.svg;" parent="sDDYBNbBu50_8kbClNVD-7" vertex="1">
          <mxGeometry y="78" width="94.59" height="70" as="geometry" />
        </mxCell>
        <mxCell id="sDDYBNbBu50_8kbClNVD-5" value="" style="image;aspect=fixed;perimeter=ellipsePerimeter;html=1;align=center;shadow=0;dashed=0;spacingTop=3;image=img/lib/active_directory/database.svg;" parent="sDDYBNbBu50_8kbClNVD-7" vertex="1">
          <mxGeometry y="39" width="94.59" height="70" as="geometry" />
        </mxCell>
        <mxCell id="sDDYBNbBu50_8kbClNVD-6" value="" style="image;aspect=fixed;perimeter=ellipsePerimeter;html=1;align=center;shadow=0;dashed=0;spacingTop=3;image=img/lib/active_directory/database.svg;" parent="sDDYBNbBu50_8kbClNVD-7" vertex="1">
          <mxGeometry width="94.59" height="70" as="geometry" />
        </mxCell>
        <mxCell id="sDDYBNbBu50_8kbClNVD-8" value="ABC PostgreSQL&lt;br&gt;(built on Postgres 12)" style="text;html=1;strokeColor=none;fillColor=none;align=center;verticalAlign=middle;whiteSpace=wrap;rounded=0;" parent="sDDYBNbBu50_8kbClNVD-13" vertex="1">
          <mxGeometry y="148" width="120" height="52" as="geometry" />
        </mxCell>
        <mxCell id="sDDYBNbBu50_8kbClNVD-15" value="" style="group" parent="1" vertex="1" connectable="0">
          <mxGeometry x="100" y="530" width="160" height="198" as="geometry" />
        </mxCell>
        <mxCell id="sDDYBNbBu50_8kbClNVD-2" value="" style="sketch=0;html=1;dashed=0;whitespace=wrap;fillColor=#2875E2;strokeColor=#ffffff;points=[[0.005,0.63,0],[0.1,0.2,0],[0.9,0.2,0],[0.5,0,0],[0.995,0.63,0],[0.72,0.99,0],[0.5,1,0],[0.28,0.99,0]];verticalLabelPosition=bottom;align=center;verticalAlign=top;shape=mxgraph.kubernetes.icon;prIcon=api" parent="sDDYBNbBu50_8kbClNVD-15" vertex="1">
          <mxGeometry width="160" height="148" as="geometry" />
        </mxCell>
        <mxCell id="sDDYBNbBu50_8kbClNVD-14" value="Web Server&lt;br&gt;(C# w/GraphQL)" style="text;html=1;strokeColor=none;fillColor=none;align=center;verticalAlign=middle;whiteSpace=wrap;rounded=0;" parent="sDDYBNbBu50_8kbClNVD-15" vertex="1">
          <mxGeometry x="15" y="148" width="130" height="50" as="geometry" />
        </mxCell>
        <mxCell id="sDDYBNbBu50_8kbClNVD-16" style="edgeStyle=orthogonalEdgeStyle;rounded=0;orthogonalLoop=1;jettySize=auto;html=1;exitX=0.995;exitY=0.63;exitDx=0;exitDy=0;exitPerimeter=0;entryX=0;entryY=0.5;entryDx=0;entryDy=0;endArrow=blockThin;endFill=1;startArrow=blockThin;startFill=1;" parent="1" source="sDDYBNbBu50_8kbClNVD-2" target="sDDYBNbBu50_8kbClNVD-5" edge="1">
          <mxGeometry relative="1" as="geometry" />
        </mxCell>
        <mxCell id="sDDYBNbBu50_8kbClNVD-17" style="edgeStyle=orthogonalEdgeStyle;rounded=0;orthogonalLoop=1;jettySize=auto;html=1;exitX=0.5;exitY=0;exitDx=0;exitDy=0;exitPerimeter=0;entryX=0.5;entryY=0;entryDx=0;entryDy=0;entryPerimeter=0;endArrow=blockThin;endFill=1;startArrow=blockThin;startFill=1;" parent="1" source="sDDYBNbBu50_8kbClNVD-9" target="sDDYBNbBu50_8kbClNVD-2" edge="1">
          <mxGeometry relative="1" as="geometry">
            <Array as="points">
              <mxPoint x="641" y="480" />
              <mxPoint x="180" y="480" />
            </Array>
          </mxGeometry>
        </mxCell>
        <mxCell id="sDDYBNbBu50_8kbClNVD-25" value="" style="edgeStyle=orthogonalEdgeStyle;rounded=0;orthogonalLoop=1;jettySize=auto;html=1;entryX=0;entryY=0.5;entryDx=0;entryDy=0;startArrow=blockThin;startFill=1;endArrow=blockThin;endFill=1;" parent="1" source="sDDYBNbBu50_8kbClNVD-18" target="sDDYBNbBu50_8kbClNVD-23" edge="1">
          <mxGeometry relative="1" as="geometry" />
        </mxCell>
        <mxCell id="sDDYBNbBu50_8kbClNVD-22" style="edgeStyle=orthogonalEdgeStyle;rounded=0;orthogonalLoop=1;jettySize=auto;html=1;entryX=0.005;entryY=0.63;entryDx=0;entryDy=0;entryPerimeter=0;endArrow=blockThin;endFill=1;startArrow=blockThin;startFill=1;exitX=0.003;exitY=0.278;exitDx=0;exitDy=0;exitPerimeter=0;" parent="1" source="sDDYBNbBu50_8kbClNVD-18" target="sDDYBNbBu50_8kbClNVD-2" edge="1">
          <mxGeometry relative="1" as="geometry">
            <mxPoint x="20" y="270" as="sourcePoint" />
            <Array as="points">
              <mxPoint x="30" y="233" />
              <mxPoint x="30" y="623" />
            </Array>
          </mxGeometry>
        </mxCell>
        <mxCell id="sDDYBNbBu50_8kbClNVD-24" style="edgeStyle=orthogonalEdgeStyle;rounded=0;orthogonalLoop=1;jettySize=auto;html=1;exitX=0.75;exitY=1;exitDx=0;exitDy=0;entryX=1;entryY=0.5;entryDx=0;entryDy=0;entryPerimeter=0;endArrow=blockThin;endFill=1;startArrow=blockThin;startFill=1;" parent="1" source="sDDYBNbBu50_8kbClNVD-23" target="sDDYBNbBu50_8kbClNVD-9" edge="1">
          <mxGeometry relative="1" as="geometry" />
        </mxCell>
        <mxCell id="sDDYBNbBu50_8kbClNVD-28" value="&lt;h1&gt;ABC Software Architecture&lt;/h1&gt;" style="text;html=1;strokeColor=none;fillColor=none;spacing=5;spacingTop=-20;whiteSpace=wrap;overflow=hidden;rounded=0;align=center;" parent="1" vertex="1">
          <mxGeometry x="40" y="30" width="770" height="50" as="geometry" />
        </mxCell>
        <mxCell id="sDDYBNbBu50_8kbClNVD-29" value="" style="group" parent="1" vertex="1" connectable="0">
          <mxGeometry x="70" y="120" width="340" height="329" as="geometry" />
        </mxCell>
        <mxCell id="sDDYBNbBu50_8kbClNVD-18" value="" style="strokeWidth=1;shadow=0;dashed=0;align=center;html=1;shape=mxgraph.mockup.containers.browserWindow;rSize=0;strokeColor=#666666;strokeColor2=#008cff;strokeColor3=#c4c4c4;mainText=,;recursiveResize=0;" parent="sDDYBNbBu50_8kbClNVD-29" vertex="1">
          <mxGeometry y="30" width="340" height="299" as="geometry" />
        </mxCell>
        <mxCell id="sDDYBNbBu50_8kbClNVD-19" value="ABC Server" style="strokeWidth=1;shadow=0;dashed=0;align=center;html=1;shape=mxgraph.mockup.containers.anchor;fontSize=17;fontColor=#666666;align=left;whiteSpace=wrap;" parent="sDDYBNbBu50_8kbClNVD-18" vertex="1">
          <mxGeometry x="60" y="12" width="110" height="26" as="geometry" />
        </mxCell>
        <mxCell id="sDDYBNbBu50_8kbClNVD-20" value="https://abcserver.pc" style="strokeWidth=1;shadow=0;dashed=0;align=center;html=1;shape=mxgraph.mockup.containers.anchor;rSize=0;fontSize=17;fontColor=#666666;align=left;" parent="sDDYBNbBu50_8kbClNVD-18" vertex="1">
          <mxGeometry x="130" y="60" width="250" height="26" as="geometry" />
        </mxCell>
        <mxCell id="sDDYBNbBu50_8kbClNVD-21" value="" style="shape=image;verticalLabelPosition=bottom;labelBackgroundColor=default;verticalAlign=top;aspect=fixed;imageAspect=0;image=data:image/png,iVBORw0KGgoAAAANSUhEUgAAAggAAAEcCAYAAACiU0xzAAAAAXNSR0IArs4c6QAAIABJREFUeF7sfQd4VMf1/dldSaveu5AASSB67x2MMQZsXHGPW9ySOE7+7o5j/9wdl8SOe++9AC4YY9N7r0INoS7Ue19p9/+dkZcILGnb29WTmLH5JO3Omzdzptwzd+7cqwm7aYMJMlmNwPo7QhEZGQlfX1+4u7tDq9Va/azMKBGQCEgEJAISgd6CgEYSBNu6auX1Hujfvz8CAwOh1+uh0+lsK0DmlghIBCQCEgGJQC9AQBIEGzvpyytNSEhIQEhISKcEwWSSChkbIZXZJQLdIqDRaLr9Xs45OYAkAsoiYJ5zkiDYiOunywwYNGgQQkND4enpeYoGoa2tTZQmtQo2giqzSwS6QIBziotVV0d5RqMRJAhyzskhJBFQBoGOc04SBBsx/eTSFgwePLhTgmAwGIRdgkwSAYmAMgiQAPCfm5tbpwU2NzcLTZ5MEgGJgHIImOeVJAg2YioJgo2AyewSAQcQsEQQGhsb4eXl5cAb5KMSAYnA6QiY55UkCDaODUkQbARMZpcIOICAJAgOgCcflQjYiYAkCHYCJwmCncDJxyQCdiAgCYIdoMlHJAIOItAlQUjyBJ752xhc9nIKrk30QVRiIDzdPXDfZ5n4wwQvDB4ehaP1Jnz6dbqowp/OCUe4vy+2Zrbhl305v6vW4HBPtLR6Ibui0sEqq+NxSRDU0Q+yFmcGApIgnBn9LFupLgS6JAi3zwpBjYcfduTUYp6fBsmNbZg6xBdvrCrHvNmh+HZNLmYmemNzXgvQ3Ir/u7g/Vu2vg0HTimhPYO2xelw7JQiGYF/kZdVB32pEhdYLYR5NaGtpRotGhxkjI9Bc24ijpS0obfNAvKEeFa0t2JBrQF1VU48iNW6gHxaODhV1+GTLCeSUnVofewjC8ePHUVlZCW9vb3ED4nSDq5KSEuFXgYshb0acnlpaWpCeno6wsDBERESc8nVTUxNoderj42MRN76ntLRUGFnaa0xZXl4Of3//Tp+nNTmNWzprg8XKyQwSgU4QsJcg8LmsrCxxAyI+Pv6UkvldQUEBYmNju8W8vr5e3J4w2zhw7nAOmlNhYSGioqLEO+xJubm5CAoKgp+fX5ePcz6xfC7YAQEBXebj+sJ1hmsL57c1dhnFxcUn/blYW3/O8YyMDNTW1iI6Olq0n2sQ68e2MLHc09cpa8uX+dSBQKcEQacFnrhuEApzG6D180N9dhk+S63EtaODsLbFAzH+GqzdUIBATy1qDICxzQg3nQZXD/PHpHMS8MX3GRji540qTzf8YaQPPshsRlpmJZoa9Xh4aShWHa7CsCA3ZPUPRVJePl5MMWDp3AHwKShFca07vjtwAhXVzT2O0Ks3DEFWaSOe/f73GhF7CMJf/vIXXHTRReCCU11djauvvhq88UDBTgvs3bt3i8nGiTZgwAAxyfmd+erWe++9Jxaz5ORkXHvttUJAc+GgkM/OzkZDQwNGjhwpnmd5XNT4PX+aiUBZWRk+/fRTDBkyBHv37sU999wjroe1traetALnM3wn38/6cSE1W4jzOw8PD6xYsQLTpk1DcHCw+NtMCphv3759og7Tp0/v8T6UFegbCNhLELZu3Yr8/HwxD0i+zz//fPG7OT399NN4+OGHQfJNAcx5cvqY59w6ceIEpk6dKgTi5s2bsWDBgpPz9t///jf+/Oc/i2dZhvmas/nWhflWE+dhx/ewDpyPrMOjjz4q5pu5DszHxLnFcj7++GPMnz8fR48exYwZM07OR84z5jGvEZs2bQLJO+cl5/mLL754ykaEdWN+1ok/+TfXHa4HJCj8nMSe6wHrw58smz87rgN873PPPYdzzjlHkIC4uDiBzVtvvYU77rhDkBRuZogT1wZzO8zrB9vG8oiJGS/mkUldCHRKEGLcNJg6JRorthbgtRvjkZZjRHpFPYaEe+G1HZW4cZI3jtdqMS7eB08tz0FzvQFXz4tEeXkL+vUPws9rs/HZA2NwxSvpWDQ+EEnBnnh/RxVCA7wwLNCIlvpGFBmMCJ804BSCULUjF3ERbvg+rxWHUyp6HClPdy2aW3m/+vdVsZcgcCEgw+bkuvTSS7Fnzx4x2cPDw8UiNGHCBMHCSQKWLl0qFqNZs2aJCrz00ktITEzEsGHDhItnTmxO6iNHjmDu3LlCKHPB4cTmTmLcuHFIS0tDTU0NLrjgAjEZyeq5cJx99tmiTDp6+uCDDzBq1CjxNycty961a5cgIU8++STOPffck4sm35eSkiIWBZbLyc+F69dffxWeJbkwcLEgCeI75b30Hh/GfaIC9hKEdevWCS0B5xAFGAVvUVGRIA0ctx999BEuueQSMaY57+bMmYMtW7aIOTlp0iT069dPzKu3335bkADOlfHjx2Pbtm3C1TrnLX9fuHCh0AyStG/fvh3UKpDMHzhwQMxDzm0SapJyCmGzYOXcZZmca4cPHxbkhQSAny1btkwQfm4m3njjDVx++eVi7vKzpKQkUSZx4fckPkysO+cm5+Lf/vY3US4FNd9NLFhntmnt2rXi+2+++UYIf5J5zmF+ZyY2Z511lsjHsrjWUICzbtzEUAtJTFjehRdeeFJrQCyoEWH7WSfWh1qMKVOmiLWMZe3cuROzZ88WGghiSUzYLyQTLFsm9SDgFCPFpAAdZs1LxFvL09TTUoVr4ghBILvnruOqq64SAp0TKicnRyxKFNxckI4dOyYWKC4gXNwoiCsqKsQk4yS84oorhJqTi93KlSvF35zonHxckJiPCyAJCBeUsWPHCoLAich3rVq1Cnl5ebjllltEXmozXn31VUFauPD88MMPYkH66quv8M9//lPsDLhA8AiDBIUL6sSJE1FXV4eDBw+KxfWGG26AWctBNSi/l0kioAQC9hIEElWOz19++UUIMc45zjcKbpJtCk0KrREjRohxTwFNQjFmzBgxj8xqfwpmCrPly5dj9OjRYg6QAPz3v/8V847EgsSaWgoKWs7r22+/HY888ojQUFBLQDLOucg5SHLNDQAF7fvvvy+eve6664Rw5twjWXjiiSdOQvfZZ58Jocr1gOsCif9PP/2ExYsXIzU1VbSL85sC/ccffxT+WZYsWSLWEgporhNcP+j9lfn5PYkE1xKuOyT1/JsbhbvuuktsVEhQSCCoXVizZo14LzFhXUm22AaSoscff1xseKj94Dr1r3/9CzfeeKMom21mm0hSuImhduPdd9/FxRdfjJiYGPE92zZ58mTxbmuOSJUYT7IM6xBwCkHw9dCiwQgYW43W1aIX5nKEIHDCvv766yBDN6vzuevgZDMTBB4XcPGi4OfE5SSjAKdAp2CnUKemgPmpWaAwp6pu//79WLRokZjYVIlywpl3EFy8+DsXTS6AL7zwglh0MjMzxWJF0sLFju+gapKk4c0338QzzzyD1157TbyPRyRcDIYPHy4WJ57HUtvBBeuBBx4QiwN3I2yjJAi9cGCrtMr2EgQKy5kzZ4rxeN9994mdN3f7FF7cra5fv14QBe6MSXo573iezrlIIc05wERh+PLLLwsCTeHPuUZhyZ096zZv3jzxGdXzJB8sh0LyqaeeEvOCP/k+CkKWxTnI+W8mCBTYrBfnH0k9jxIefPDB3xEEzjOSfdaVxydXXnml+Ml6ddQg0MaJiZpAEiMKZmpNuJPnMQTzs04kJRT+xIV1JtG59957BUGgZoXrADco1ATyHzWEfJZ2HdRSDhw4EP/5z3/EEYk5ce1hW/getpn4EBO2maSDBOSaa64RZIUCqKqqSuBNLKhZkUk9CDiFIKinec6riT0EgbtxMyHggkR1JHcbnMCcnFwkyNapguRugIKfuw+z8RO1CtQQcLE777zzxO/cwfNZTmgKcE5CLh5U/bEsTlLuEKhNYDksmzsP7gBo58CdEyc92fuGDRtE2dxp8BkadT377LPiiIHf83lOdNabWhAurHw/FwoOJO7MuCvg4sRFi5O9K893zusZWXJfRMBegkDByPHO+cQ5x3FK4UuyzN0rtQUk0pyH1JBRzc3fuROmYOxoEEhByl0wy1q9erXQBLBMEgkKfmoXOO/4DOcZhTE1FyyTP6nm//nnn0XZ3N2TTHAech53/I5zlRuGjsKSmwXOVR4n8BiAR4VMfDfbweeZOJep9TAbUVJbSOHLPHw35ys3BTwaYTvN7yJB4OaC9SGxN9smEBOWvXHjRjGXSSA4/9k+lsd+ISYdDSy5RlDDwjKoDSFebAvXIv7ONnCDYcaK5TAvy+7OALMvjmu1t0kSBDt7yB6CYMurnn/+eXF+SNLQU4k7nVdeeQX3339/T1VBvlciIBCwlyBI+CQCEgH7EZAEwU7snE0Q7KyWfEwi0CcRkAShT3arbJTKEZAEwc4OkgTBTuDkYxIBOxCQBMEO0OQjEgEHEZAEwU4AJUGwEzj5mETADgQkQbADNPmIRMBBBCRBsBNASRDsBE4+JhGwAwFJEOwATT4iEXAQgZMEoaS6uRN3QA6W3ocfP7Bzo3BlSiNCWiN3dAhk9pzWh5svmyYRcCkCkiC4FG75MomAQOAkQTDx7k2H1NJqRJukDKcME71OA6223d86ry1JgiBnkUTANQhIguAanOVbJAIdEeiUIJAXVNW3QvKDUweL3k0DH71OEgQ5hyQCLkZAEgQXAy5fJxHoSoNAYlBZ3yoBOg0BD50Gvp6SIMiBIRFwNQKSILgacfk+iUAXRwySIHQ+NCRBsDxleFLFxVwGabKMVWc5zFH07Hu67z7lbILAcZualoaY6BjhIdHNTQcDIxlqtdBotMIFclhYKMrLK2A0GeHh7oGm5ib4+vgKz6P9+sXYHe657/aabJkzEWhsbEJdfR3CQkNRTffddfXw9vEWrryDAgNRVV2NmOho4b3S3tTlEYPUIPweUkkQLA8zc+hoc3hpy0/IHB0RoCtuc2hticz/EHA2QWhoaMT3P/yIuXNmY/PWbRiUmICcnFyEhAQL9+Ui3sLcOVjzy1pBFMpKy+Dp5Slck5M8jBwxAoGBAbLLJAIuQ4Brxdr1G7Bo4TnYvmOnIAYkAxyrfv5+CA4MQkxM9ClusG2tnFUEYdcOhi/NR1hYOAICA3EsIx0+3j6YPfcseOj1Vr2zvrEFZcWF8PXxREhYZKfPNDc2Qe/lBsANDU0GeLppoHXj35ZTTVML/Nw10OjcLWe2M4eaCMLB/EZE+Lsh0t957bUHpp4gCG0mE3ZmNeCxH0/gzvnhmDXIDx5uGhhNQGpREw4XNMJHr8XMRF8EeLUfEZnTzqx6BHrrkBThKT5qMhix+VgdKurbMHmgDwaEuDZGfW8iCAfyGjAo3FNg6+zkbILAcfvd9z/+FrLZTzSnrLwcoSEhYiem1eowa8Z0rF23Xiy62dk5CA4JBk2WuWuLi40Vedl/jKCoRpJHzQhjK6gpqbFOxEet9WKsDMYRMW/A1vzyKxacPR87du5GU1MjJk6cgOSjKSgtKcX4cWPh7e0lYmfYm6wiCF989jFSko9gYHwCoqKjsW3LZgQGBePmW/8Mbx8fq969Jy0P/f10SMs9gSkjYuHmG/675w5v3YeR0xkPPBLr92ViUowHfCJirSr/k12puCjRG17BcVbltyeTWghCbkULZj6Xjk9uGIAZib72NMVpz7iaIPDuzf3LC3C4sBEtbQBMJoyO9cYzF8VgzdFq3PFlAW6fG4ajJxqRXd6ClbclwF3XfhOlvrkN8144hptnhODG6aFobjVh8SvHkBCiR1KkHh9sL8cPf0lEbJDrFtXeQhBIpOb8OwNf3TzQJfg4myBQIDz1zHO4+sorcGD/ASQOShRRBhnaWAON2JX5B/iLSI7UGISHhaOktASx/frh0JEjWHrekpNzigSBV5/VltRYL7WOdzVixfHEMUmCYE6HDx9Ba1ubON6qrKoS619paRkmTBiP9Rs24vprr3H+EUNHgjBz1hzk5+UJ9drY8RNPMhlLk4EEYYC/O5p9w1D27eNoHrEQ+/YfxayJiVi9KRWzxyXAaPSFzrMEBZlV0A2cAO/yZDSbfJDfUIX44HA0lxciIGYg9h9OxSXzR+OX7Ucwdc5spOw7iPT6ZsS4ecPXVI7ZC+bBJ0h5otDTBIG2IasOV+OLPZXYn9eA166MO+MJQnl9K6Y/k4bv/pSA534twd1nh+PVjWV4/Pxo3Le8ADfPDMXIGC8h/C958zj+flY45iX5odFgxJ8/zUNmWTP+MCVYEITVyTX4fE8F3rq6P9y0Gry8oRSR/m64dHyQpeGt2PdqXTA7NvDX1Bq8uLYEZXVt+LKPEARrOrC2rg5+vpYJuVqFixrrpdbxrkasOiMI3JDV1ddbNS6tGeOn57FKg7B3906cOHFCOAWqqam2W4NAglCl8wN2v4O1JT4YH+EP/+gInDAEY9WX/8HlCy7DmLNH4fuvdsEvaQQm93PH6iPZOL5/E/72l3vxr1efQYDJDzFR4Zg2sh+OZ1YDo87CgMr92NEUiNn93fHKFxuxNFGLUYuuswePbp/paYJAvxTP/FyEG6aF4OI3juPpC2POeIJQ12zEnOfT8c/FkfjuUDVeXNYPvr9dRe3YmfXNRlz4eib+b0kUpiX44qMdFThW2oT6FiOGRnoKgvDcL8WCTJAcZJc3C2wHh3tC065wcElS64LZsfGf7q7AhaMDceuneXh8aVSf0CAo2blqFS5qrJdax7saseqMICg5bjsryyqCsHrVDzieeQz9+sUKzYE9Rwz7Mwqwf92PiIgIwqJFi7B6/QE056dh2KQkpOe7obE6FWMHj0TCuAHYsSkV2og4ZO38CRPGjEK9fyTSNm/EjGlTsDsjDw2FBZg1OQrV9QFImDAJy1eshMmtCVNGTcHWdT9j1sTRiBs5WXHsepogmBvEs/VZz6VJgvAbICknmvDUz0XYldWAqfE+uHdhBIb8ZlPALMTrXz8XIb/SgBeW9UNxjQGPryrCi5fF4sGVhRgSqRcE4Z5vC3AgvwE3zwhDkLcOz/9SjLsXRGBuUvuZtCuSWhfMztp+7fs5kiB0AoxahYsa66XW8a5GrFRLEL5f8S0yMtIQF9cf4RGR2LN7JwICAnHlNdfCy8vbFeumKt4hCYLlbnC1DULHGl3/YQ4Gh+vxc3INvrk1HiE+buJo4dk1RUgubMLLV8RC76bF5W9l4fppIZgS74MnfzqBhDA9bp4ZJn7n9w8viRLFvrW5DLtzGvD6VXH4zYGmZQAczKHWBVMSBOs7Vq3CRY31Uut4VyNWqiUILc3NaGtrg1anE66GWw2t0Gg10OupfnWh/tX6OeqUnJIgWIbV1QThRLUBd36dj3f+0B93fJmP/1zSD1e/ly2MFGMC3XHlO1kYFuWJhxZHwdNdi+Nlzbjl41y4u9H0DKDBp5e7Fg+cG4nCagOaDCb8v/ntBrSf767E6uRqvHttf2hdNM7VumBKgmB57JtzqFW4qLFeah3vasRKtQTB+qnRt3NKgmC5f11NEKoa27D45Uz8cXoI1qfX4uKxgXh5fSk+/+NAvL65DDuO1+OR86Lg7dF+FS8qwP3kVUcafd7zTcHJI4aD+Q3440e5+O9lsQjzdcP9KwpwxcRgXDT2f1bDlhFwLIdaF0xJEKzvV7UKFzXWS63jXY1YSYJg/RzskZxqIggLXszAY+dHizN3NSVXEwS2vbqxFTd/nIftx+uRFKHHy5fHIjFcj+nPpqOs7lSX4TTsvGRcu8AnQaANAo8lrp0aIj7j7ZA7vshHRUMrHlgYiSsnBbsUXrUumJ2BcPPHuXhoSST6BTr/Gqizrzkq2clqFS5qrJdax7sasZIEQclZ6oSyGM3RR8Zi6BbZniAI5grR8PDOs8PFkUFvTWpdMHsaT0kQHO8BNQo9tY53NWKlGoLAitCJTJvR8UHZl0rw8tDAXdcufGS45857ticJQl8Ya2pdMHsaW0kQHO8BNQo9tY53NWKlKoLg+HDs2yVIgiAJgjNGuFoXTGe01ZYyJUGwBa3O86pR6Kl1vKsRK0kQHJ8DLitBEgRJEJwx2NS6YDqjrbaUKQmCLWhJguAoWpIgtCPYqaMkR8E9E55XmiDQv/sPP/yACy64wCr4DAYDduzYgZkzZ1qV31WZ1HDEQCz/8Y9/YP/+/SI4zaRJk/DQQw8JCFi/devW4ayzzjoFkjfffBPXX3+91a7DnYWnqwkCYxC89tprSE5Oxt///ncMHTq0y6YVFRWJ6IUBAa6PWuhsgsBxsXrNLxg9ahQKCwsRFhYGvYeHuN6t13ugsakZsf1iUFJSivqGBgQHBYkwzyGhIcjLy8fwYf/DTa3CRY31cvV4t3beqhErqUGwtvdUkE9pgkCBv3LlSsyaNQtHjx4VIWYXLlyI9PR0JCUlYe/evUhMTBTCLT4+HqNGjUJOTo6I1LVp0yaMGDECsbGxwjaCLrEnTpyIjRs3oqGhAeecc47LosupgSCYhwdxSUhIQHh4ONauXQudTidwu++++/Dggw8iPz8fFHqzZ8/G119/jZtvvrnHo925csGk8HvhhRdw7bXXijHz008/ifHHscdocdw9MITswYMHMWPGDCxfvlyMM47Dbdu2YezYsQJbjk1GmYuMjBQ/58+fjyNHjiAtLQ1z5swRZRw+fBiDBw8Wnw8cOBDjx4+3aRY7myA0NjXh2+UrsWTRQnz19beYOXMGUlPTEBkZgYrKShHwZu7s2Vj98xrExcUiKzsbwUHBcHd3A31xD01KQlBQoCAUxE2NwZpcObas7Vw11qmszoCymgaE+HkhzM/5N3SsxYr5OJeCg113s0pqEGzpnQ55nUUQuPhSkFGwcyHdvn075s2bhz179qCgoEBoGCjszj77bOzcuVMszn/6058EceCO+ZprrkFGRoaIOFdXVycWdC5WLMsVSY0EYffu3UKYEY+UlBRBukgGMjMz0b9/f3z66aeCGJxpBIF4vPTSS7j//vtPDo3S0lIRsdDb21vskI8dOyYEPsceF4t+/foJIkFS8eWXX2Lq1KmCaLm5uYkoc4zZQjKxYsUKQQ74My4uThDWXbt2iX4gcaDmyxYna84mCBy3+/YfQElJCebNnYODh46grLwMIcHBqBbhnrWYPm0aNmzciKioSOTm5SNIRNXTwNfXR0R1DA1tvyqr1t2nGuvlCoLAiK8m/sefJpNwvW7+u63NBIaL5+e89tzaakRGUS2mDApFcn41Bob7CsN0N53GZc7SulunT4/m6Ow13WqCUFlZiS1btgjBNXnyZAwYMMDZdVN1+c4iCMOHD4efn59YkCMiIsRiGhISIjQFPIK4/fbbsXXrVjDfoUOHBEm49957xc7tsccew6233ioWcgo87o5ZDvtq+vTpLsFTjQSB4/bCCy8UuHz++ecoLy/HlVdeKcYzCRQJl16vP+MIArVWTz/9NB544AFBSklGqZ0iPiSVXIzYnxxb/D0mJgbR0dGCINx4441C+I8bN04QLwp7aiFIKEgCvvvuO0yYMEFouUge+BnJB9X3+/btwy233GKTVsvZBIHlHzp8RBwjUFDotDrU1NbAx9sHhlaDcJrR0mKAVgt4enqhta1VfObt7YXKqmr0j4s9SXjUKIjVSlyUJghGkwlNLW2ob25FeV0z6ptaRbA1nUYDnU4DD51OCPv2f1rotBrRb2Z/wCQRmUU1GB4XhOPFNQgP8EKToQ01jQYRxC06yBtBPnqXBnDruHB3JAglpaVITUvHrBnTcST5KI4fz8KgQYnYu28/Jk2cgD179uLSSy5y6NjUKoLAndbbb7+NKVOmYMiQIfjwww+xYMECoY60dhdQUduAzPQUuAEYM240NBr+BhTUtMKvNg3+McNdIsCUeonSBIE7fi68xNfHx0fsxHgOysX12WefxZNPPikWVuYrLi4WmgTujEncSCj4k0JOYFpQIHZ23LFxQefOjqTOFUlNBIECj+SIgolaFap/SazYd7RLoDAjPiRaPFf/wx/+4NBkUgJfpRdMS3XiGMnNzUVUVJTAae7cuUIbxXnNIyuOJR4j8NiBBID9S40BSSvHKNcEEgQmqj6zsrIEGSB5YH62h+R25MiRAmeOX5KGyy67zKbjHGcTBEs42fK9JAjWo+XIeG81mtBsaENDcysaDW2oazKgsbkNHu5a+OrdEezrAT8v9853/mQCRiPQ1gYTCaDBALS1wmRoRVVWDk7EJCGquhBBYUGAVieOkepa2pBX0QCD1h0RkUEI0mvhASMEa9RowYAtgmqQkTB4Cz/j70q5aTeZUF5ehsCgYEHomdb88isWnD0fO3bugsHQKuZUQvxAbNqyBTOmTYOnp17MP3uTVQTh5ZdfFjsILqpU0fJ8kruMO+64w+qXbzmYiXivOgTFJsHL0wNvvv8ZSo8fw9xrbkZkxSZ8u6cekd4tOO+qm/Di8y9j/rAgTLvgGqHCU2NSmiCYGT4JARdnCjMOAqo2uYNjJ3ORZD9Q/UsywB0g8/MzkgT2C3/nIGEeLupckF1pVKYmgkADPGLIf8SQuPr6+gotGH/n4kSsWGcmYmYt4XXWmHRkwbS3ThTwfC+JJLHiOSdxoBaB2FDFHhQUJIo3Cz+OM44rjk8zfvyd442YEntizjI5ljk2mUhkibOtZ/SSINjbu/97To3ExdbxzrFWVd8ijgEMbUZBAqKCvOHprhNHAdQIdJp4hNDYAFN9HUwlRUBVJUx6PTTuemh8fAEfX2g8PYUwN6YcgXbsBBjTU6GNT2wvzkwmjG3iGKLWYERmHRDaXI3+Hq08m2gnGHQeZGwTxIN/83MNCYSXF+DpDY2nF+DlCXh4QsM54eYG6NzETw1/74pMmExoSz6E+sJ8+IyZAF14xCkEYeeu3cJWhkdi4eFh4rhsyqRJ4vjL6QSBKkhOUJ6FUyjRaImLyJ133il2udakugYDflj9C2qyj+KG267Fx9+tg19gBPSeftAXbka90QM1db6Yd8ls7Ph1BwbFx2H0xClnFEGwBke151ETQVA7Vp3Vj4KVAlYOAWINAAAgAElEQVSmUxGQBMHxEdFbCUJrmxGV9S2obmgR6n5PdzdEBHgK7UCnqbUVpoZ6mKqrgJZmIaRNFNTUsHp5QRMYAo1P1y7qTZXlMBQWwD0qBprgdruSrlJ+RT1qGgyIDPRCkI9H5xsMailaWgBDC8+pYOJPobFo+41M/EYqjG0wndRAaNvLIrng7aumRkEqWvrFwSM7E7phI8Xnefn5qOEG0tcP9Q31YgOUnZ2DIUmDkZySKo4fHNn0WKVBeOaZZ8T5LXcD3E1QTUuSwGtR5p2FpeH79c5DODs+CFmFjYhK8MbxPXlYX9KI4eH+CKjah+jgcFQYo5E0OQEeTSZ88NV+/OmG6YCbOsNJO0ODYAlD+b1E4ExFQBIEx3u+txEEo9GE/IoGHCuqQWKkP+JCuxDq1AC2tcFYWQ5TdiZMjY3QRkRC0z++fcduR7IFK26K0k/UoKXNiBH9Ah0SyF1V1VRbA2N6Cppj4qAvK4ZuxBg7WmX7I1YRBFrKf/XVV+J8khbJ3377rbiydNFFF508C7H0ajK/A/v3I9jfC4OHDMfeAymI9NNBGxCJIPcGZJS2wNtYi4GDhmHX3v1IigpEUEy8pWJ77HtJEHoMevniMxABSRAc73RbhJ7jb7OuhM6OGGhcWFjRIIwIQ/304t8pu2CTEab6ephKi2Gqq4XGzR3gcQGPCvwDoaE638FkD1Y8+iioaECYvyfCAzwdrMHvHzdVVaKmpBgB/QeK9roiWUUQWBHeX6bVN1Wgo0ePFnfHz+QkCcKZ3Puy7a5GQBIExxG3R+g5/tbuS6D/CWGPYoIwMswsrhXXEYfGBMDTQ8d7ie2GhC3N7aSgshwoLQa8faCNiYUmPNIpVXQEqyN5VfDR6xAb4iNIjpJJtdcclWxkXyhLEoS+0IuyDb0FAUkQHO8pR4Se42//fQmlNU3ILqmFh7sbaGfg4+mGfsE+QriiqRGm0lKYigsAN3doAoOhCQwCPDyg8fI+eTbvjHqxTEew4lXLspomceNhZGwQPNyUIwmSIDirxxUuVxIEhQGVxUkEukFAEgTHh4cjQs/xt/++hC2pxZgyOBx5ZXXwq6tCsHsb0NyuKaBVvzYwqF1D8NsNGGfUoasylcCKRw7ZpXUYEOaLQB9lDI8lQXDlKHDgXZIgOACefFQiYCMCkiDYCFgn2ZUQeo7UQvgb4DFBdSVqSyuRZvTGgKQBKCquQlKQG/QB/u2+A3jHXynfAXZWWCmsqBk5lFuF8AC90I44miRBcBRBFz0vCYKLgJavkQiIa+hG8Y9+PzpLZmMqNYCllHBRui3OqpeJPgLoB4AEoKlJXDEURwTikroGJromaDNCQx8F7h440WhCpYcv4nVNKCkqh5+vJ0KGDG4nBipJSmNF24rWNhMSInwdskuQBEElA8RSNSRBsISQ/F4ioBwCriAIdKXs5tbunEz45v/NgRYt6Pk7P+f5Mg3nzJ/xJ+tm9mzHFistXJRC0a56CQzodbDd86DQAjQ3CwJgrCiDqaIcaGoG9O6Ahx4avwBoIqKgpf+ATrQAuWX1KKlpwoT4dv8CtjpKUgoLS+XYhZWFQouqGlFc3YgRsUFdO3SyUIYkCJZ6TiXfS4Kgko6Q1TgjEHA2QaCgWr9xk/A+x5tax7OyhAOayIgI4ZGU3iCnT5uKdes3iBgp9AhJ75B0OZ2blycc0pi9RTpDuCjRyd3XyyScCdGRD+hkiJ4Ga2vahTw9/bm7C58CwtkQd/r8jL/rf/MIaKGCIsZBca0gWIOj/uf690wiCISovLZZ2CXwloa3vnNtWHdQSoKgxExwQRmSILgAZPkKicBvCDibIJAUfP3tCkyfNkWEeWY8lKYmxpHwE87hdG5umDp5MrZu2y5c2Wbn5CA0JFSQCUZ3DPD3F6GhVRnuuaEemuMZMPF4ZuAggH4EmpqgaTVAazDAVFsN1NWJIwEjDQJJBIJDoaF7bcYhUCAVVDaKa4xJHcjBmaZBMMNIn0CphbVIiPCBn2cX3iC7wFyGe1ZgMLqiCEkQXIGyfIdEoB0B5xMEA1avWSOiN06ePFGQhKNHUzBgQH9UVVUL4Xn2WXOxYuV36NcvFuUV5XB390BUZATS0jNw8YVLTwZLU5MGwdTcDOOhfdDSNW9TE4yZ6eIIQLgQ/s2Vr3A05M44AMpdx+s4bo8X16KptQ1DowN+52XwTNMgmHFpaTUi/US1iA4Z7Gu90yOpQeglK6ISBIFxLRhxkCrMYcOGoX///r9rPXcv3JXw/JOurmXq3QiwL+mZlP05ZswYERGRURN7e8rLyxPRG71s8GLHc/2SkhKhsreUnE0Q+P6KigoRkbKrVFxSiohwy7FneoQg0GaiuQmoqW43EqRmoLlZBACiEaGG8T3a2qCJiobG33XrCM/dqxpaMCQ6oFNYz1SCQDAYjTK1oBr+Xu7CqZI1FzckQbC0UqjkeyUIgnlnRIExaNAgPPzww7jtttvw66+/Cu9iN954owhJzIVr1apVIkTuf//7X1x//fXYsWOHMIYqKyvDVVddhXfffRdPPfWUUI3KpF4EGAZ5/vz5Yke8detWfPLJJ6KfGVKZob47GruptxW/r9lHH32E6dOni9DPn332mRi/HIvnnHMO3nnnHfzzn/8Ew8YfPnxYRJdjSOkrrrgC69evx0MPPWTRf70rCIJSeLuMIJAU8GggLxvGnOPQBARCMzAR2oio34cZbmtDU0sLPG0gcI7iQT8AyQVVmD44vMuizmSCYAYlr7weJdVNGDswuPPQ1B3QU4IgkJhXVFSKY7KRI4Z3GxzOKlfLjBnPWPEd/WFzB8TojtZGnqtrbEFZ8Ql4ebghIjq6yyiNVOU1NzXC084gG44OamufV4og8H0kCKmpqSK2xeeff45Zs2YJrcLQoUORnZ0tzjkpONLS0jBhwgSkp6cjKSkJxcXFIuQutQwkEXSBzV2cTOpF4JtvvsF5550n+pR9m5+fLyKkRkdHY9y4cRYFpRpblpycDLaLQnzp0qUYO3ascM1OrQLH8Zw5c8TvbOehQ4cQExMj8lCbws+nTGHU1u7TGU8QftMQmMpKhQGh2G7y1gCjEzJUMb0MWtiCuoy4AKAKPa2wGsP6BXZrsS8JQvu4p1dJkoSESD8RurqrpARB4Lz77IuvMHnSBLi7uYtjtK6SVQSBwpCBmqgOLC8vx8iRI8HPpk2bZvWOdUdKLhIC3JGaU4kpw7Ro0/cHtB5oazOgqb4KfgGhKKOKz88bO/btxNBBwxEWGoqK2gYYG2sRGBaB8pJyBAV6Q+PuhYrycoQG+aKmRQNTYy1Cw8lSu4gFbmn1seN7JQkCF1MeHzBCpre3t9AKUGBMnTr15MLKgUH1LX+SEJAo0JKa+bkr446NKuvuVKR2NFM+ojAC7LsNGzbgu+++wz/+8Q9B+uLj45GTk4MFCxYo/DbXFEdtADcLHIccu1wrqC3g8QkFABPJD4/Tjh8/jlGjRgnyK6LgpadjxowZFit6xhEE+hbgMQH9CVRXwVSYJ9wLayJjoI0bYBGvzjK4iiDQOdCezDKMiAuGr2f3lvqSIPyvpxpb2nAwpwIj44Lg08UNh44E4fsfV+F45nEkJMQjNT0Dyy65GF9+9TX+9tfbxXXdrhLn3ZHkZLS1GTEoMaFbGW4TQfjggw/Eruf2228XwswWgrDlSDa0FfkoLqvD4rMH4VB6IQx+Q1F+IgcBJzajsHUMkkZ7IzE2Hut2bkKATwgiB8bg0PYc7Mk7jtlx/vByN2Dc9PlYm1KCeK9G5FfVY/0vB3DTlbMwZOQ4pxnZdAa0kgShY/lmbcDAgQPtWgTkQ70HATJ5auV+/vlnIVRF0BqZOkXgTCAIJoNB2BAYC3KFzwFNUDA0vv7t8Qe8vduvFjqQXEUQjhXVIsxfjwBvy+6FJUE4tUObDW1IL6pBsI8eMcHev+ttao25mfTw0GPTps1iTxwVFSU0kjSWHTt6FLx9vMX13K6SsIPatx+TJk6wOJqsIghcwKgGJHuhSnD8+PFiF0RVuLVn3mYNQlh0lKjUzu0bUOs1CE3VRRjjk4mVu2px600Xo77RHWnpexERnYDShjp8//GncB+3FNcm1ODT7aUYpq/G3upweNUdRmR4GEbOW4blHz6Df/zlBuiDEy02WKkMziIIStVPliMR6EsI9DmCQMcAhhYYa2ra/Q7wqmFLCzT+AdDExEHjBLLoCoKQX14P7oQHnXadsauxKAlC58hkFNVA765DTJD3KUc0HTUIeXn5KC4pEYSBmjt6qqyrrcO0qVO6NRZubW3Fm2+/g8bGJlxx+TJER7XL5M6SVQTh448/FirDhQsXIjExEW+//bY4E6dBnbUE4Uh2MWJ83RAU2u5B64W3PsJQHxN8h87CIM9MeMdOwz3PvICnbzwL+Q0eCAmLQXNrI955fzmGDAnC0KhBeOfDj3DjsiXwjZ+MV198DvfcciHWHPVD8aH3cef9/wetm+NxwK1dVCVBsBYpmU8i4DgCfYUgiLDFJcUw5mYLzYA2biC0AQHt2oEu3Eg7jl57Cc4mCHVNrcgqrcWIfoFW29JIgtB575I/Vje0IKesDiNiacfRfgW1I0FoaGgQcphzg8cGPIKub2iArxWG6m+98x6ysrLxzwfvh1c3ZNQqgrBmzRrs2bPnlJbwatLVV1998u6vUoO4t5RjK0FgB1K1I5NEQCLQPQI8djn9NkevIAgmE4z5uWiqq4N34mBhM8Arh6byMoDEgC6adbr22wbBoS6PPeBMgkDnP0dyKzEiLqhbI7vTe14ShO7nQk2DAVmldYgO8hLXIUvKKxETEWLxtkN3pVKDsH7DJoSEBCMoKBADB3Rt02IVQZAL2u8RsJUgSAx7PwJk72pPfn5+vfaqZHfYKkUQWA5vU/D2VcdbWUr0q7GoUPgaaPbwgHtaCq9jQRMcDG3iEGj8/udeWIl32VOGMwkCjesGhvsJIWZLkgTBMlp0T70/qwLVjQb4uBkR4OuDITGd+5WwVJo5xghtFvi7Xq8XPlm6SpIgWEK0i+8lQbATuF78mCQIPdd5ShAEg6EVW7ZuQ+GJEzhr7hzhGlnJZCzMF4GcmnVu8KivhS5hsJLFO1yWswhCbhndNGvQP9R2HyySIFjXrXQ41dDSiig/N2RXtIhYDvYkkuPa2lr89PMaYcjI23JDhyRJgmAPmN09IwmC0oiqvzxJEHquj5QgCPSxcqLwBLy8PEFNS1ehox1ppfHoYTTW1cJn9Pj2YEYqSs4gCJX1LcJl8MSEULvU3pIgWDdA2ozUIpTD2NqC8CB/DAj3te7B03LRtmH5ipXYsm2bcCt+z11/F3NBahDsgrPrh5QiCPY4vqBTpMLCQuF5r7vgHbwySa91SqtSFYay1xTnKEGg0yCzUS/7hosjowFmZWUhLi5O/E1PhLy2ZG9S0xEDr2TRb8rgwYORkZGBAQMGiDaa200voQkJCSejIHbXZiUIAndPm7dsFc6bJk2aiAjhO+V/SSkBqlQ59o6Brp5Tul5UfSfnVVl0htRdOyRBsL6XjUYTyioqER7atTtwa0qjDcLBQ4cRP3AgqmuqMaATF//mcuQRgzWIdpJHCYLAM6Dly5cLD4qcKHQiQ4FP50cUJAwfS3UQvSXSKRJvkNDQcdu2bcK5DL3w0YB00qRJwtkO8/AufVFRkSAGdMJDFVJYWJiwYKY7XxnPwc4O/82C2N6n6TRo9erVuPbaa8EJyn6nR0GSAfYvnWUxD4UpHZFZ66H09PqoiSC8+uqrwmMi28kxuHv3buTm5oq/ORb5j14Y6WnRUlKCIPAde/buE6GcL1x6/inEhPPv1TfeEkcPBw4ewrAhQ0QYZ94p12o0qK2rx4VLz8OPq1YLj4W+PnRoVo74+IHYf+Agrr7y8pN+LJQWxJawsfZ7JevFHS3JQWyIN4JsCDZ0el0lQbC299rz2bOhPP0NJBobNm4Ej9xGjRqBqMjILishCYJt/XMyt9IEgUYjL7/8siAIFO79+vUTbmm5oF544YVip0UPdPybpGH48OHC2IoubkkK2JE//fQTZs6cKfJy0eUCTQ92vr6+4nfGaghiCFeZ7ELAEQ0CyeDGjRuF7xBeT6L7chIDqrnpFIvutkkcSBioTeAYsCepiSDwbjbH3KOPPiraS3JKl+1sW2RkJP7zn/9gyZIlOPvssy021VGCQGJ95933isiMxPzBB+47xcUs++e/L7+KJYsX4dsVK7F44UJhq9Ax3POUSZOwfccOQXZEuOfQUEHsY6Kj4O/XHu6Zc5P9a0vQKouNVyiDkgThRHULPN01CPK2zSjx9KYoWSeFYBLFqLleJNaOpsNHkoWsGT1qpJAPXSVJEOxEWimC8NprrwkBz6A2FCA8DuDCQzUoBQW1AHTBSzfXdE/LhY5aAx4xmN3bcrdJUsDgP/yMV1I5iLh4MT9/37dvn/DWJz002tnhDmoQ+FZqfqjtoYaH5I+JLrPpqpjkjxohEsXFixfbfSykFoJAgctxSsdqJLNr164V449HDvyOBPaHH34QGgZGMrWUHCUILL+1rQ0pKSngDiohfuApCyPJ9rvvf4hhw4YiPy8fw4cPxbHM4wgLDUNLc/sVRe62du7aLZ7TaLRoamoURCfz+HGct3jRSa2PmoWLEt46GTOgrLYZQ2L87bI76NjXUoNgaeSf+r0SGgTKhO9++FFo8hidtH9cnCQItnWD5dxKEATLb5E51ISAIxqEju3g2bw1IY7tabtaCII9de/uGSUIAhdG7vzpZnb2rJm/s0GwVOfs7JxuA9uYn+/LBKG5tU2EKB7d37FzcDNWkiBYGnXKEwQaKpLc1tXVIzg4qNtr0VKDYFv/nMwtCYKdwPXix5QiCM6EQBKErtGlStXHxxfFxUWCoDkrtHZfJQjCkj67AkOiAywGYbJ2jEuCYC1S7fmU0iB8/uVXQlOdMHAgEhMTpAbBtm6wnFsSBMsY9bUckiD0XI86qkGg9mDl9z8Iw8RhQ4fA18cXERGOn+V2hkhfJQgZJ2pEAKbwAOWCikmCYNucUoIg8I1HU1LQ0NAofCB0Fy7BKg0CmTcHfcdE9k2Dt+68MNnW9N6V21aCQAM0Xk+UqfciIF1lu6bvuLZwd9NxbXGUILDmNbW10Gl18PRs908gNQjW9+eJykY0GVqFt0QlkyQItqGpBEGgvc2mLVsFUeY1aw/3rg1NrSIIK1asEFfvOGFpREUrYBrN0bre2mBNJypr4KfTwdffOm9bbSbg0J59GDtxnG0Iuii3rQTBRdWSrznDEaAVfW8nMlxneFTS0X+HEgTBVUOjr2kQKuqakVtWj5FxQadEFlQCT0kQbENRCYJAg1v6QeCtm5Dg4G79kFhFECgM2y13Ndi5c6e4q02SMG3aNKsJwuGcEwhwd8eD/30Nvsc34Lxr/4EF0yPx3XcpGDBpKB5/6Am8+Mgf8daK7cg8lIpHHrwBt931H/zrsT/jyX+9jtuvvwybm5OgT/8G4T7xGHzBVQg69gOS5lxkG8IK5ZYEQSEgZTGKIiAJgqJw2lVYXyIIrW1GHMytxLgBwXbfrOkOREkQbBtiHQlCO2k2QafTik0BZTI11ZY8hPK5m275E/ILC/HvZ5/G8G5uEVlNEHgvnwSB1+54PYJOeewhCAcPbUdO8ETM8s7EgV+2o3/SAGzIckdgSwaCA/xRXFKFi2/7G459+W8UNocicfx4TB43FGt/2YxU9yj8aWogVu/Kw8EDB/DAX5ZB69kePtrVSRIEVyMu32cNAmoiCObAMLYeQ0oNgjU9bXseW4mLodWIowXVSIz0g4/ezfYXWvGEJAhWgNQhi5kgcG5t3roVTY3tV3ABk/CrQt8jc+fM7nbjToJw+PARbN66DRcsPQ/9YmK6rITVBIHe3XhmZ3Z0wvvEthCE5Nwi+Lu7ITnlALL9R+Cy0Dy88vkRXLFkEI5Ue2NYqB75J6pxNGUHFl/5V2R9+wLS6oMxfMJohAfoUZSdiyPuA3HrlGAcKmnBiTUrsejWv9iGroK5lSAIHT0pstMKCgqEpoZnRCRjwcHBwt8Bnefw/jgHAH0e8MiHd+fvu+8+cdeczmZoD8LnmZfuelk2ndPwnj2dtrDf6FfBErtUECJZVAcE2H/bt2/HueeeK/qWDq4ozNl3dBh05ZVXCk+a7MPbbrvN7t2amggC25iTkyPa9sorr+CSSy4RbqXp44M+Ed5880384Q9/EF5AOyZJEJwzdWwhCLyxkF5YjbgwX6eRA7ZSEgTb+preVulwjGv6rl17xFpfUVWJiRMmCC+hY35zfNSdAS7ly4ZNmzFz+jQhTxyO5kgPfYMGDRIEgQsQK0dNAie5tTYIjS0G6DQacf+yReeJIDcDKlq0CHA3wQh3ZGcfR2L/aFTWNSAgKAyG6hKUtugQ7uuO3PwixPWLRL1Jj1AfHfYkp2JAmC/CIgfahq6CuZ1BEOjgiA50aO9Bhzp0Q8twnFQb8Ux24sSJgijQj/+IESOEJ6wvvvhCfJeUlCSEC/uG2h26YmYdSQroHIUDiV78aMUtk+sRoM0OCRsJAln5li1bBAFk/zJGAfueCzj7i393F0Clu9qriSBwbHIxmz17tiCsbCNtmPgZxyQ/y8zMxNKlSyVBcMGQtJYgcEOanF+JqEBvhPg5N+CUJAi2dXzHI4bvvv8R3t5e8PXzQ0pKKs5duADfff8Dbrz+ui4NcLkRbTMahQzx9vIS89BhgnD48GHh5a1jIjGYOnXqGStwlCIIX375JRYuXCiYND3tkSEuWrQIq1atOrm4moP4UItDAUCf9vS8R0HDZyhk+vfvL9wzc3d28OBB4WKZCzIHBMnChg0bRJ4pU6bYNiJlbsUQ4Jihp0su1CtXrhQeLnlcR1LHYEZ0oERyMH78eLtd9aqFIFD4k+BSg0Cbpf379wuXyvSoyBsKo0ePFpoyEgSuI31Bg2BoM4JXARubmpDULwS+nuoi49YQBNocHC+pg5+nO6KCvBQb+10VJAmCbRA7aqTImzxbtmwTm1CmcWNHd+vW3aojBtuacGbkVoIgmFVsVPtT7UxDEy6a5r/5Wfv5EgTLM1/L4i7MzPpIAJjM3zE/y+Gz5uf505zfWVe7zoxed6yV7FtqcKjpMV/jY3+Y+5D9xn5yRMujFoJApLhLofaLR2PmMUwMzGPZ3O7Tj7166xFDZnEtAr09oDUZcKKmVWg59e46xS3/7R2F1hCE/dnlGBDmhyAfD3tfY9NzkiDYBJfDjpK4PhQVFyMyoj1AEzUQ3ckESRBs65+TuZUiCHa+Xj4mEegUATURBHu7qKcIAt0wR4RHCM2cr6+PIG4k3FqtDm3GNqGSpUBrbW2Dh4c7WgwG6D08RHAmBqCqaTQgp7QOba0tIq+7G63LjWg1mgCT6Te7Eg18PN0Q4O0OT3cd3LTtRN4VqTuC0NDcitTCakQHeSMy0PmaA3N7JUGwrecd1SDY9jaIuUANp8Zk3qraWsIZml8ShDO041XebEkQ7OsgepVbt2EDJk+cIAyFeU88I+OYcEPLsM4mmLBk0SJ8/sUX4sgkKysbAYEBCAkOEQGpzjnnbHh5eqLVaERTQzvB6CzxWlppbRMKKhpQ19QKHksEeXsgOsgL3p5u0Lvp4KbTngyCpCR36IwgcNmvbjTgSG4VJsaHQO+hsw9AO5+yRqthZ9EOPabWetG+zJUReSVBsHMYSYJgJ3DyMaciQGNUs+reqS9yYuHUINDGyZWOkni8s2nzFvFeg6EFcbFxSE1LR0CAvzgq0encMHXKZGzdtk3YjohwzyGhwuiSDmeCAgNEfAcKXPOiag1EzN9kaENDcxt4c6C51Yi6JgNaWql5MMLTTYuwAE/4e3rA3U0DnVZrTbG/y8P3cLfeMZpjU0sr0k7UwNPdDf3DfIRGw9VJrYJYrfWiBkESBFePUjveJwmCHaDJRyQCdiLgbE+KtI3gvXBqAfz9AxAZES5CO8fERAvDYJoCjRo5HDt27kJUZBSqqquErVB4eBgyMjKx4OyzTp7lKilcSBaKqxpR3UhtQxvcdVphQOitdxO2DVqNBm46jficmgceWWh5bEGcNeJ/1Da1Iq2wWnw/NCYA9G9Q1dCCoqpGxIf7Of2mQnddLo8YbJsQ8ojBNrx6LLckCD0GvXzxGYiAswkCITUbkXYFL7UFvDduKSlJEE5/F7UMvGnAn8I9jgkwtLahttGA+pZWoYngsYXRZALtl5nL0GrC1MGhaDIYkVJQhZhgH4T66YXGgCSjJ5MkCLahLwmCbXj1WG5JEHoMevniMxABVxAEpWB1JkGwp4555fWob24VZCIm2Bv+Xuq5fikJgm09KgmCbXj1WG5JEHoMevniMxABSRAc73S1ERe2SBIE2/pVEgTb8Oqx3JIg9Bj08sVnIAKSIDje6ZIgWI+hGrFi7SVBsL4PezSnJAg9Cr98+RmGgCQIjne4GoWe1CDY1q+qJQi8ukMPb7yCxE6l8wRbU019A0wtTQgICu7y0eaWFuF85PREf4GmZgN0enWcn0mCYGvvy/wSAfsRkATBfuzMT0qCYD2GasRKtRoEOmd4/vnnMWzYMOErntEEGXFu4EDrgyWl5ZTBkL8DLaGjMcy3BOVuCcjNPIIJ48YgLTsftcWl8B8wCGuevxNXPPIKjh05iDGjh6Oh1R0pRw6hyiMIHgc+RtK5f0ZlST7GjB0PnZtli2Lrh4RtOZUgCLSaZrwEEq6EhATExsZ2WgnGZ2CkP/roZ18wYqNMvRMB3kdnbBO6Nx06dKiIssn78709MRgVXSozLoi1iVhwPDNolaUkCYIlhCx/r0ahJzUIlvutYw5VahA4Ob/66iuxoDHgz48//ohly5bZFDr4l11pmDbAD95h0dBojFiz/ickDByD5vLj2L0rEwnzFqM5bQvK969B4JQ/ICg2Em25vyCveSTmTU/E4UoTfI68h6KqEMw6/3z4B4dCo7HPaYhtXet1C9gAACAASURBVNJ5biUIAhdIdjgD2TB4zSOPPIK7774bjJ5Jbc11110n/PYzxjej/KWmpgqBwuh3JBd/+9vf8OijjyIkJESJJskyXIAA+3bMmDHCoQ6Jwrvvvos77rhD9GFiYmK3ftFdUD27X/HJJ59g+vTpIhAVwzgz1gQ9EprDWT/22GMi1DPDxJNIcJNxzTXXiIijHMOW3A1LgmB315x8UBIE6zFUI1aq1CBwYm7dulWEFuYkjoyMFLsE7moZhc3acM+HM3IR4W2A0b8fmo9sxrFGE8ZMnIm85HXIKqpG/LTLUb5jBZpSNqCk3wwE6g0I9ahEceMAXLRsITZn1yD6+EdoiLkMO379FssuXoDAqATre1zhnEoQBHOV9u7dK8JnX3DBBSJ888yZM4V/dxIyfk5ywB1nenq6iI7HfPSYt2PHDqFNGD58uMKtk8U5C4Gvv/4aF154ofDAd+zYMUEAuYtiH5M4WBKUzqqXI+UyEuV7770nvPSdf/75oh3mCLCMLjpnzhzhjpikluHMGcFy7NixIqgYP7cmwqgkCI70UPuzahR6UoNgW7921CAcz8pCVlYO+sfFIuNYJubOmY0t27Zh/ry5thXaTW6LrpYZWpiLmjmRHMyaNUsw/2nTpv0ulnt3Nbv9pU8Rkr4BD7/wGtbuzsFHL9+Ht157AZv3HETs6IVAxjrc89FOXDqrP37+8UdcO28MfMdfhMfuvxNvvP4E7r37XUxfMgMpvy7Hsy/8F3r/IMWAsLUgJQnCgQMH4OfnJ3ZY7BBGwKPamQsnF8Y33ngD55xzDn7++WfxOXGnIKGA4QSbP3++rdWX+XsIgfLyckG4P//8czz55JNiR81jOwpZCtfemDguOT65VtAtMccjySxDxPNvjtmkpCRxnMY8HNcMXc6xzaMzah4sJUkQLCFk+XtJECxjZM6hRqxYNx7JBQYGivV/1+49QkuXX1CAsWNGY+fOXRg0aBBCQ0MQYsWxnTVoWCQIrFBhYeHJsmikSHUoVd08OzxTz8OVJAgdO4p4U4hQ3SxT30WARwwkgtQMrVq1CnPnzrVaG9d3Uem6ZZIgON7rahR6UoNgW7/yuJkEgevGvv0HYGhpwfARw1FQUIiU1DQMTRqMsPAw1xEE26p/5uR2FkE4cxCULZUIWI+AswlCm9GI7Tt2YvTIkcLmh7uwysoqeHrqwe94HNIvJgZ5+fnwcPeA0WSEsc0oojaWV1Rg4IABJ4+H1CiIibQa6yUJgvVzgDk7HjFs2LgZhw4fFuOSOF580QX46JNPceP119lWaDe5LWoQFHtTHytIEoQ+1qGyOapGwNkEgQvhV98sx+XLLkF2Tq5YcPPzCxAcHCQWZUZznDF9GjZs3ISoqEhkZWcjNCRExDwI8PdHdFQUwsJCxbGJLdEcXQm6GgmCGuukVjJlJgjW3PpRalxJgmAnkvYQhN4ehtdOqORjEgGbEOD56unGms4mCCyfZ7q0mZg8aRIKCguRnpGByIgIVFZVCf8vc2fPwuqf16Bfv37IzctDYEAg9HoPtLa2iUiPVP2qWbioURhLDYJNU0N6UrQNrp7LbQ9B6LnayjcrgQB3kmpPNHbl+WRfS84mCMTr2LFMxMcPFGSANiJ8J4kKoyYyZWVlY+CA/u2fmUztJIa/G42nYK5GQaxW4iIJgm0zVZV+EGxrwpmRWxKEM6OfO7ZSEoSe63NXEASlWicJgvVISoJgPVbMKQmCbXj1WG5JEHoM+h57sSQIPQa92M3zn5ubW6eVUNO5vyQI1o8TSRCsx0oSBNuw6tHcShEEXnWjE6qgoKCT5660mKYKs6vF0NxwXon09va22b0tF9rO1NCcrLW1tfDw8IC/v3+P4qvGlztKEOgoiB4ymYg1+5kxTXjuzaMB/s081jof6wwjNR0xcFzTURL9IHCs0oMi28h/dKpk3g1RpW8pSYJgCSHL36uRuEiCYLnfTtdimm1dbHvSvtzSSNE+3ISjqMGDBwuXslzsOgrcjoKgu+JJAt5++22cd955wrEMfR+QMHBR5eJKt9Y856QAoSDpGKuB7q4nTJiAffv2iZ98hsKBeemFkXXiQGI5dG7Fn2FhYcKDH/PyM05OOtogEWE7kpOThV8LLuSZmZmiDD7DhZzP8Fl+xrwkElzYo6Oj7USw9z3mCEGoqKgQ7spvuukmsRP+8ssvhbEbPSiSEBB7OhaiQyF6IjQTCVtRUhNBePnll4WXT7aR44oeQ+kYie3m3xxHdB9Ox2uWkiQIlhCy/L0kCJYxMudQI1ZSg2B9//V4TiUIAhtBwU1HORTUdK1855134q677hILJz1YUvhTgNNdLT0oklRQeNC7IgNmMX3//ffC0c6vv/4qFl0Kc5KL4uJiEVCLTq127tyJSZMmCdJAwc44DiQTfNfChQtFmUeOHDlJQujtjws560WSQte5/J2fcTdIAXf//feL950pyRGCwF3z5s2bhTAkgaNHQRIx9i09KZLokRxScJII2qvBURNBIOH517/+heeee054jGS7OTbZNmrMHn74YRFvhF4YLSVJECwhZPl7NQo9qUGw3G+9RoNA4cR/1qgEbWt278utBEGgQNi4caMQ5BS83GVSE0GVLHfojJA3btw4sYPnjv6yyy47qalgHIbc3Fzh155HAvRpzzLM97BJEBi3gWWQFHBxpmAn0aD/f5IG7lzDw8OF21sKqqNHjwpiwfLoPpfP0A0u68kdLoUPd4OsL//xGZKL3hg/wJ4R5whB4PvY18ST2NHtMOcRI3Ru2rRJkEP2IYkENUr2zjE1EYQNGzYIF9JsG8fTueeeK8YexzjdMZMY8zsGKrOUJEGwhJDl7yVBsIyR1CCcipFVRwwkBRxc77zzDoqKioSalLscexcx67tJvTmVIAjObh0FkTkQkLPfdSaU7yhBMGNEYkei5YykJoKgZPskQXAcTUkQrMdQjVix9qq8xfD+++8LlXdHRz/caTJcq7Wq0GMF5Qj2MME/MABaN3dowDvGlo2TrO9S1+bsDQTBtYj0/bcpRRCciZQkCM5E17qy1Spc1FgvecRg3Zgy51IlQaCqmYZ3VClzkNFynmeJtpw/70jJxQA/HcKjo7C3RIv0td8gtywV0ajGousfxn1334lZSbEIXvhnrHvtTiwYORQRC6/A2w8/hudfegRvfLQFxsLVuPQvT+OOx57A01fNwuCpF9iGroK5JUFQEMxeUpQkCD3XUVKD4Dj2kiBYj6EasVKtBmH//v3iaIFRHKlJ4Jkhjd5uvvlmqxEXBMFXh/CY/xGEpZN88MHOE5g5aTI+fPI5LL5kIRoSzsF07yx8smI/fDxMuO62G9AE4JLLbkSgvhF/uvmPWLF2By4a64sp5//V6vcrndFWgkCCRRsDmXovArTFUHvisV9vtwmhjQLXmo5HmJIgOD7y1Cj0pAbBtn5VpQbhwIEDJwlCWloaRo0ahV27duGPf/yj1a3bmZqH+AB3hEVFYm8RkL5+OS6YEoT3t+dg+sSZyDySjIqSQkTPuQLTfLLxxfL9CE/yg0+zH2bPH4+vf96OSJ0JiRPG4FByNgwl+3DhlX8C0LnjFKsrZmdGWwmCna+Rj0kEbEKAxq00dOzNicSARyUdiY4kCI73qCQI1mOoRqxUq0HgcQInKCcuFx8yfP48fRJ3Bz9Dpmp/C8LSZgKMrQa46TQwtJngpnNDQ2MDPNx00LrroYMRhlYj3Nzd0VhfD28fL7QY2mAytMDTxwd19Y3w0muhc9Nb3+MK55QEQWFAZXGKICAJgiIwWiwkLSMDn3zyOS5bdjE++/wrPPbIQzLcs0XUfp9BahBsA62jBmHd+g34Ze06XLHsUnz06Wd49OF/4pHHn8RTjz+qmBbRqlsM69at67QVkydPdsjrm23QqCu3JAjq6g9Zm3YE1EYQTgY1sqGDeoMGYd/+A+LKd2NTkwj3HBkZgbDQUBHqmf/oUExtSY3CWI11Yr+pVYNg9rpLR3c7duzCieIi4URv2JAh2L13H0aPGiHGIx3cKZGsIghKvKivlaEUQaA/g+effx6vv/66WFQ4MDkI6urqhI8DGoSaVcYdXfCSSdLZ0bJly4SjGTo9Mvs7oL0DE2+YUPtD41IuZvRvwHy0heA1VXpGZPkUKnRcs3r1auHUZvbs2bjnnnvE93SOxPrQkRL/5uLNcvl+fmevx7++Nh4stYf9yWM5YksMly9fjhMnTuDyyy/HX//6Vzz00EPCy+ChQ4dw7733Wiquy+/VRBBWrlwp/D3ccccdYqyyXdnZ2cI3x5IlS/DAAw/gkUceEf47OqbeQBAqK6uwYeMmREVHoaW5GWPGjIa/n59ohlqFixqFsRrrpOY+NI8trucHDhyEj68PjiQfRdLgwSIEeVhIKAYNThQkQYkkCYKdKCpBENjJK1asEA6KrrjiCqEWojtaej8sKysTgp2LJQUHBQtdMTPxORKKW2+9VQh8ejlkogBnh/JZGnnR4RL/JsGg7cjEiRNFmSQNdJrEcsg+SRKoDaIjHwqupUuXCtJA4U8nSnyWhICTmY6V6F6ZnvEWLFggSIlMlhFgHx48eBDnn3++ECDE2uymmz4R6EnR7AEzPj5ekC97kloIAsfWxx9/LMYsx1D7jmeHaDvJKMcdxw7HOzHpbQShoKAQDY2NCAsLRUlJKQYPap+b5vmpRkNRe7Q59oxBW55RY516Sx/mFxSItT4uNg5FxUWCJKSmpmH48GG2dEG3eSVBsBNKpQhCVlaW0BR89NFHwnPhzJkzhSAuLCwUpID2Htzxc7GdOnWqEOzUGjD/BRdcILzyMY4DPfLRfW9wcLAgBXTfS4c83J1RuHP3Sr/4/Jukg54R6br52LFj4lkSB35mjv9Az3f8nUKMk5humKk5oDDjjRbapFDI0d2yTNYhwDEzb9480b/cXUdGRgp8SbpIEMrLy08KVHsDNqmJIJAUcXwxZgnJweLFi0UME6o/SRqo0aLGhOO6txEE63pc5pII9G4EJEGws/+UIAh8NQW++SiAO3ZepaOw5q7ffDRAzQCJQsddJXdi3KVQdU1hYjYiNbvDZllUYVMYkRQwP4kBtQVM5r/5Oz9jWczL55iP9eICzmMPls3v+Lm5jszPowwaqspkHQLUEBBrkjriSiy5s2afEUv2MzE395F1pZ6aS00Ege3k2KE2i+OX/1g/jmu2k99xvJ/e3t5wxNARdc4lts1sxM1+NTuVY59SW+LqxDFFDYenXo/WVhqWa0Ud+TnXFqPRBL3ew9XVEu/nPOCaRdzag8a1iLqYfe10FmnW2RUlJqwP+8qsxm9qaoa3t9fJNdnZdeisfGLCunG+mI9j+NN8HO3ssSUJgp29rhRBsPP1Vj3GxZgLMFW6Mp0ZCKiFIDiCdm8iCBR4tNE5lnkcKalpGJSYgKjISKSmpWFA//5IyziGubNn2n1kZC+OJCZMO3ftRmNjE4KDg4SAiYyIQEFhIQoKT+CiC5a6nCSYDThX/fQzBg7sL0iyn68vUtMy4OvrI3C87NKLFbPCtxY/am9r6+qwectWTJk8SRC8lhYDfLy9sW7DBlx1xeXWFqVoPpKpQ4ePoKysHCNHjoBOq0W1iPQbh4yMY+JnSHCwou/sWJgkCHZC2xsIgp1Nk4/1YgQkQXB95+3Zu0/YUxw+fARxcbEYNXIEDh0+DA+9HrU1tUhIiEdEeLhLK0bi8uHHn2LenNlC8NVU1yApabA4xqQQJJm5/767hYbBlYmC96VXXsO8OXMQF9cPtOVoam7GkKTBghwcz8rC+UuWQKvVuLJaqK9vwDfLVyBp8CAMSkwU2ry09HTMnDEdh48kY/SokS6tj/llWVnZqKyqEv3GcUTNy969+zBr5gzs3bsfkyZNcGq9JEGwE15JEOwETj7mVARIEDrGTHHqy5xUODUI5jDj5leo1VES68XIqDxGyTh2DIEBgYiICEd5eYVQpwMmePv4wNfHx0lodV4sha443vD0RObxLISGhMDPz1doFKmezjiWKYSyqxPJit7DAy0GAyor2o9Xm5oaERISipLSEtTX1WNQB4NPV9WPxt5U1/N2Co/ANFoNtBre2PITx63s355IFRWVot9OFBUJctDY0IjQsFAYWgzQaCA+c6ZBrCQIdva6JAh2AicfkwjYgYBaCYIdTZGPSAR6DQKSINjZVZIg2AmcfEwiYAcCkiDYAZp8RCLgIAKSINgJoCQIdgInH5MI2IGAJAh2gCYfkQg4iIBNBIH37Ok05+qrr3bwtb3/cUkQen8fyhb0HgQkQeg9fSVr2ncQsIogmJ3i0KkP72TSwcvChQttdrN7pAww7vwETWOWonDLN5hxzqX4Yfn3CA7Q4PwLLsYHX32PJRPCEZIwTfUIS4Kg+i6SFexDCEiC0Ic6Uzal1yBgFUGgxzxesxg0aJDw8BcQEIBt27bhpptuEhaf1iYShKL1H8OQvQf+lz8G3c7XoA8fAY/IBGQ0uGFIWTISpp8Fdy/XWvxaW/+O+SRBsAc1+YxEwD4EJEGwDzf5lETAEQSsIgj0yEdXu4wRYCYIvC5DF73WpvWHjiE4JBzVO3+CqWQf/Jb+H2rXPI/IkWfB5BOKiAg9klOrkb5xF2646wpA1+7xT61JEgS19oysV19EQBKEvtirsk1qR8AqgvD999+LgEC8P8u7tdQa8J7yddddZ3VY08PZhVjx0j/wz+ffxLcpNSj84mlcd9dj+OCzn+FRuh833f8gbrrncdw5tR+GXPRHteMmfMrTx7w54E5H96B0jymjHKq+C2UFexEC1hAE3mWXSSIgEVAOAZ4W0D+ExtTu1aPTRG0B/VPTHzSFn9mnt7P9QCvXTOVLkgRBeUxliRKBrhCwhiB0tx699NJLIgbALbfcIl2Py2EmEbASAas0CFaWdUZl644gkEyRVMkkEZAIKIMA9y/mAFedlWheyLp6GyOb0uvcgQMHhA0V4yfQYyMjpjrTE50yrZelSAR6BgFJEOzEvTuCwGMYecRgJ7DyMYlAJwiQIFCL0JVRdEeCUFZWJtSiHUNmkyDwMxL37OxsURbDrJvDmysFOm20oqOjRXF8B+23ePPL3mR2m00yo1Si6+BuFMbdvoZkipgx9oRMfR8BSRDs7GN5xGAncPIxiYAdCNhyxFBRUYHg0yLcMUYFSfvx48eFX336c6EgT0xMtKM2XT/S8d1mey1HhLuZXCgZAplhuB0pjzfa4uLiFMVNFqZOBCRBsLNfJEGwEzj5mETADgQcJQh2vNKuRzoSBNpricA/jKpjZ5IEwU7g5GOKICAJgp0wSoJgJ3DyMYmAHQhIgqCzA7XOH5EaBMWg7PMFSYJgZxcrQRDEvRGN+L9PpaqqKqxatQpDhgwRhmUHDx4UTrYmTOg6drn5Do0Dm60+haFszKkIOEoQeO4eFBTkdFi70iCUl5cLm4jm5mZx/s8bYd7e7b5eOF9oOGn+3fwdNQ8dNQj8nUclvGJOI0uWRw1FHUMo6/Xihhl/8viAxxuce+YFnscCZpuMjgSBNhM8juH3fK5jPcyGoXwv38GjGR7TyCMGpw8j1bxAEgQ7u0IJgvDqhlKMjvXC9ATfLmvBibl06VK8/vrrYrF44IEH8Mknn4iJmp+fj7vvvht33XUXhg8fjksuuQRPP/20+J2LwAsvvIBJkybh0ksvxc033yy+nzhxIm644QY88cQT4hzxtttuw8cff2wnCp0/9sUXX2Dv3r2nfMmF7Mknn+zyPT8eqUZFXRuumRKsaF1kYX0DAUcJAm8vjBkzxulgdEUQ9u/fDz8/PzGHueiSrHD+kQTs2rXrpNO5PXv2iHxDhw4V33UkCBTMZod1NH7knEpKSgINMEkM6AqfvllIPFgPusTPy8vDgAEDcOzYMfEdU0eCcOjQIWRkZIjbHCxn3LhxgsCwHiUlJRg5cqS4Hsq6kGDExsZKguD0UaSeF0iCYGdfOEIQDG0mvLS+FHo3DW6dFQqdtmsdAt1cT5s2DfxJq2s6ZsrMzBQLAo2fhg0bBgpkTmQuAPv27cOoUaOQk5OD8PBwrFmzBvHx8Rg9ejR27twpdvJhYWH44YcfEBUVJSySWR4XCKUSCcfpRmJcoP761792+Qpi8u9fSxDopcPNM0MhNQlK9UbfKMdRgpCcnCyMEjkvnEkUuiII/Jy7dX9/fzFvKfg7IwjffPONmKNjx44VHXc6QUhJSRGaAq4D/Mk5TxLA9YBaBWoYSC6sJQjUXvB51oXrAAkC38nPqIXgO7788kvx2aOPPirqLjUIfWNOWdMKSRCsQamTPI4QhE92VaDJYMSN00Mtvn3Lli2YOnUqVq5ciYsuukhM1HXr1oldyPnnny8mMq9tceGhSn/79u1iB0GSQH8MfI4usUkk1q5di7PPPhtHjx4VuwUG3KKGggL91ltvtVgXazOwPHPETy4w3JGsXr1a1NdSeu6XYgyN9MTike0qV5kkAkTAUYLw66+/inlQWlp6ciftDGS7IggUtgUFBYI4U5XPOUgPtRTIPArYunUrJk+eLHb9nKs//vgjli1b9juCQM0By+KVTRL9V155RawLPHYgSeD31Bh0JAjcBPD2hvnGRkcNAuc//ybh4JwlYXjmmWfEpoJaA9724EaDGo/U1FTMmjVLEgRnDByVlikJgp0d4whBaGgx4t5vC3DeqAAsGObfbQ24sI0YMUKQAN49joiIwE8//SQIAFWMXBBmzpwpJi8XFy487FQeLZBcLFiwQCxMXAjoipZaCJ6H8qiB33PnQMJBt9lKpY4E4b333gN3PTNmzLBIEFYerEZyYSPuPScSOuWufSvVLFlODyLgKEEgIaYtzKJFixy64mcJAnmLwRJC8vvehIBVBIEChWqljonCicLKkTu+vQmo0+vqCEEwl3XbJ7l4bGk0Qn2tj4jZGzCjjQR3Gh3T5s2bceWVV3ZZ/YySZnywvRyPL213MiOTRKAjAo4SBFehKQmCq5CW73EFAlYRBO4IaczSMVFVdvvtt5/iray7Ch/OKkKwzoDC4iqMG+oPnW9/q9p3NDMFibHx8PDQW5XfVZmUIAj1zUa4u2ngoetb9xioxj09cA7VqowG2lWqbzHCTasRdhkySQROR0ASBHnNUc4K1yNgFUH48MMPhUUrjdp4DWbTpk3iLM0WgrAjJRcJAe7Ib9QirOIXHKgbjANbf8Kt1y7D05+uRH+PZpy16Cps2bYbusYiLDlvMV79dj1QkYdLpozEyuPVmBKlwfyLbnI9Sp28UQmCoIqGyEpIBHoBAr2RINBWgBrWrtxDWwO7dJRkDUoyj7MQsJog0IiFV+t4j9cegrD9aA4i3Qz4aeN63Hbj9Vh2/f3ITduMJ/5+OfI8A7Ds/Ovx7Itf4KFL+2NVWX/El3+JwCGLkVtWgTGDR+L/nn0VAUXrcf8rKwEox6btBdZVBIH+BEjOenui7QMNJGWSCNiDgC0EgYaxtHvhWuXqxGuAtAVionGuvTEPnFlvYulIvUh6HHHV7My2ybKVRcBqgkCL2Y5MmPfc7dEg5Fa2oDbze9T6jEHO0f24ZMk8PPXBCowf7IdRQxbgSPIOtLa24Ny5U/8/e+8BHedx3nv/dxe9Eqxg713sVaRIUYWienWRVWzH17Eix45lJ/G1U24Sp33xSW6ukziucpEsWZatLlGyok6KlNh7Bwk2FBIgCBAd2N3v/Gb5gou67xaAADhzDg6A3XnnnXmmPP95qvyp6SosrVH2uULtrk5Xdeluff6Bzyslc1BiqRBDaz0FEGLomn3EUqDfUSAagNDvBm8HZClwmSjgCiA8/fTTJk1qeEGi8JWvfKUlGlg8/f/l87/W5+69PxRWsI+UrgACREXaEo9osY+QwXbTUqBHKIA0ALc7ogx2VHDp5Xtc/WyxFLAUiJ8CTtRP3HA9wS5kTljmlpSUtHojUbWcQB/xdoXbQV/zhugKIJBSltCuFiDEuzLs85YCIQpwPGH/1JlomzOkrWGspZ2lgKVAfBRgz8GbuwQI8b2ifz7dFUBwDrT+OXI7KkuBy0OBSFkR49GrX54R2bdaCvRuCjh7zgKEKOcpEkCIsjlb3VLAUsBSwFLAUqBXUsAChCinxQKEKAlmq1sKWApYClgK9EkKWIAQ5bRZgBAlwWx1SwFLAUsBS4E+SQELEKKcNgsQoiSYrW4pYClgKWAp0CcpYAFChGnDk4OoZsSDoFiA0CfXue20pYClgKWApUCUFLAAoQuCOTnRP/3pT7e4LkYCCNaiOsoVaKsnhALW0j8hZOzXjURaIwzenl/9egm4Glz4OrEAwYUEgfgG5EaPJEFwQpn2tdgOrlaNrdRrKYCEizgBnTEAvuc7Nwyi1w7SdixuCkRaJ5xzxvfd03cC18VNFNtAOwqErxMLEKJcIDbUcpQEs9W7nQIOAOgImHIjJHmQjTTY7dPQ61/QVQIou056/fT1WAcBioBEc+noKpLie++9Z3Tu4WKn6dOn6/777zchha/EYgHClTjrvXvMkQACoVMJm2rLlU2BSADBrpMre304o3cNEN5//31dc801rcKcfvTRR5o1a5YIueym+ANB+ZvqFfQkKTVJavIHlZSc0mn2hfrGZqUme9XY2GTir/c2cZcFCG5m3dbpSQpYgNCT1O6777IAoe/OXU/2vEcBwq6CEmXUnpR3wASNzi3X1j1HdSF7ppZOydW/f+en+sY3H9SRkno9/fhafe4LC/Wdv39F3/7LO9R4rEIL1lwnX1LvklRYgNCTS9W+yw0FLEBwQyVbxwIEuwbcUKBHAcI7Ww5p6dgsZQwZYfr20YY3tKVmlPxb3tXCG6Zp03P/oxk33K0brl+kDR++rP0NYzRxZI6yT+zWq5uP6jt/8WV5krLcjKtH6liA0CNkti+JggIWIERBrCu4qgUIV/DkRzH0HgUI+48WakBGUPVpI3Tu5R+padIUAxBqD7yse2+7T2+/86amTrlG1yyfqw0fPq/9ZkqUbAAAIABJREFU9WM0ekCKVo5u0o+fqdJjfzRD3vT8KIbXvVUtQOhe+trWo6eABQjR0+xKfMIChCtx1qMfc48ChEAgqF+ufU+ZZ4/okw9/ToUnDutEQ55mjc7QU9//nT77B9eptDJFEyeO0tGCHaoODlV+coVeWb9Pt8zN0ehZN0c/wm58IhaA8JWvfEU33XST7rjjDn3/+9/Xo48+2mn62vCuE4fhpz/9qQYNGqQVK1Zo+PDh5uvNmzdr27ZtWrZsmbAJufXWWzVy5MiYRv3CCy/ozjvvNP3BSOmJJ57Q2LFjVVpaqtmzZ2vOnDmdtkvdhx56KKEpu998801Dq87KwYMH9aMf/Uj/+q//KtxKH3vsMf3Xf/1Xp/UvXLig7du3a/DgwebHcVeNiVi99KFYAQK0rq2tNYHA8IC4++67O7T5wUj55z//uT73uc+5WrduyfSXf/mX+va3v62srI4lhOfPn9emTZtUX1+vDRs26M/+7M/Mupw5c6bbV9h6YRSIFSA888wzxjA9nrJ161YtWLAgYhOnTp3SK6+8oquuukrr1q3TV7/6VWVnZ3f43PPPP2/ORSeIHZXKysr09a9/XQ8//LAOHz5szpLJkye3e764uNisu87a5oF33nlHM2bMMOfMiBEhCfiVUFwDhCeffFJ79uxpRZO8vDwzaW6NFPsbQWMFCBMnTjTAAIbPQfuNb3zDMGKCMB05csQsRBbkvHnzlJOTowkTJpiF+Z3vfEc1NTX667/+a/O5AxDYCLfccos5QJmTnTt3iqiPMPprr73WMNAxY8boy1/+svBGKSgoMIc/G/0HP/iBCfx033336fXXX9cNN9yg+fPnmzZgqBim8m4Aw8cff2w2Nhucz//jP/7DMBXAzq9+9Sv9n//zf/STn/zErAeMVwsLC1VZWandu3dr8eLFpg3e88Mf/tB4vvzRH/2RaWPatGk6ffq02aDDhg3T7bffbsbGeGHkWN3THjSi7/xmkx49elTPPfecPvOZzxhm8e6775r1+G//9m9mw69Zs0Z79+41z9CPL33pS/rNb36j5cuXG/ADQPja175mQFd/KbEABJ55/PHH9Yd/+IdmXUCrDz74wKw/5uzEiROCMUDzVatW6fe//70eeOABA84AozBpDhLAF4c6YHL9+vUGSPzv//2/NXDgQAM4OOxpg0P6wIEDpu7f//3fm3UKQGD+mVMOdPq0aNEis15vu+02Mz2Ak7/92781eyYjI0MbN27Us88+a4Ar8w34tsUdBeIBCEuXLjVzP2DAADMXzENVVZU5R1gz7EPOH0Ac8zVq1CidPHnSXGo+8YlPmPrsYc5P1hf7krVBn1h7f/VXf2UG8bvf/U7XXXed2Z8AQ76nTc4LjNZZA9TnzOScY61Qj3No9OjRBiB897vfNT+sN77jvOAs4e+6ujoDhjkPOGdefvllpaenm/OG9v793//dnLOf+tSnTF84YymAFZ5jzfHcrl27zHg5x8MBiruZ6N21XAMEDlk2L5vZuWHCjGAm/H8lllgBAqj26aefNox05cqV4ubO4QhD5QAGILz66qvmOw5J/NbZYHiSVFRUmEMZpgyTRYLw0ksvmQ3HQf43f/M3ZlMyNyxcFi3vyc3N1S9+8QuzKdhYO3bsMBuRxc7Gc5jkvffea+YTEEAJR/psQAcgILH45S9/aRjDgw8+qN/+9re68cYbzUZkUztjYvN9+OGHuvnmm80hQJ/5n8ImBGDcddddWrt2rQ4dOmSYOuOnUB+wAOi4/vrrdezYMcPAeA+F9cghAKMBIDCGJUuWmM+mTJlixjt+/HgjVYFGHGxIHagHPQBA5eXlhs79pcQCEJBOMZdf/OIXW8gA7R2AAN05hDlUP/nJT5q1yfxXV1cbmgICoDdzzBphDbNWWUfc9gGnMBAKQACJF9KuSZMmGebPYcvnf/7nfy5uc/SH55gj2nKkZQBg3slaKCkpMYyG9fatb33L7CfWLge8LZEpEA9AuPrqq83eYS8D2phPACM8AgYMSOcyCRgENDKHXBLy8/NbgCTnFecQc8yccx4BFNingEnKU089ZdYHQITCRYVzhvXBOTh16lQz/wBOzhHOSvrF2uCiwznwyCOPmHXBGcj65IIAqOF8uueee/S9733PXF44J/75n//ZAIvjx4/r85//vGH+PAcY4XIE0CkqKjLjBEy/+OKL5nvWseMWSjv9qbgGCP1p0IkaS6wA4V/+5V8Mo+L2DCJmUbOwHEbPgcyti0P1f/2v/2UO0C1btpggNyxWDmgOVAcgsBFY/NyKYYYczvz/xhtvGLTNocpiZ7OyyUDC3ALZeGxiNhz9gfkCPDhkQcRIONhgbEY2PJuB2BeACg5pNgpomzYBKjB6DnYYLowChA0j4SCHqYPQOewBPE7sDJg8/eHWwU3wZz/7mWE4FDYz4+HwZ8P+53/+pxmPI2HgWRYwt12kLIiheR9Ag02LFIZxAzoQQQIe9u3bZwAWSB+6cZgwlv5SYgEIjP3Xv/61Vq9ebcgAnQGCMHbmHrrCCLgMQEfmnAOYNcNc/9//+381btw4M/+sOeYa2gNSKRzcrMn9+/frm9/8pnkX65M1iEoLJsF6hkGw9jmI+c2aA0xTmCdudIABbqqsaUAGP6gmOPABquwPWyJTIB6AwB6DIbMmaIc9xZ58++23DbNnHfAZkiUuKQAKGDnAnLOGcwiAwPkDSADccyFBEsgZiASJ4pxXAAHOPNYde5b2kWhzu4fJ/+M//qORWgEmzp49ay5T7PlwCYJDEUAH6wQgQx3OG8bDWmc9AiaQpHLOURgf5x7954xmP9AvziPWOn3gQsMZzrnGOdSfigUIccxmLAABRsrNzEHeHLqgaxgmByO3LofBgVad2zQby1HxcAiywWDA3IC52cH0YOocnAAKVBH85gdGTtsgbTaQc+CDlpE6UIf3sgFZ5CB9Ckia9gAmPAtKZtPxGzEdBz7P0g4qAjYZz1CcwwBGzDsBBtz0+Z/bKOPn1sl39J0+shkBJ7RHYbzQhX4xXg4PGL+jd2ZT0g40QF3Ab8YJ46LQLv0HBDFO3g3j4Te0Y1xIVJzxxrEUes2jsQIE5pX1Bj2ZKw5u6Mh6gF7ML/MAcEWsy2/qw6xh8NASevMZz8PQeY61zNriMxgB65lD9syZMwZYchCzhrhBMtccSOicOZBpG+ZAAQwyv/SBz1lrvAPp0mc/+1lziLNGbHFHgVgBAlJO5pXnWSv8ABb4Yf5g+oAE5tbZ39RnzbCW+Jz5d27mrA3ONtYfbSIlcgCCc+ZxJnDGcTlA9QlTph3WHZco1h5gFPUkZxNnH3uevwEqnLdOYf/D6DkP2PusJepxkeA51h/nK2cCZxKFNYgNA+1ziXL6Sr8YM/2gr4ylMxsad7PS+2pZgBDHnMQCEOJ4XUyPcoiyqFncfbnAUAAIjkSlL4+lO/seK0Dozj5F2zbM5K233jLSo65UBhzsSKVQe9gSHQViBQjRvcVdbZg9EgHH1grVY08WpJdIzBy7rp58d29/lwUIccxQXwAIcQyvVz3qhPjubdE0exWRLopEoVFnuRj6SghdmIabRGdu6/W2ebrc/elNAAFasL+Zy8thz2bXUOer0QKEOHaqBQhxEM8+2i0U6A8ShG4hjG20FQV6G0Cw09M7KWABQhzzYgFCHMSzj3YLBSxA6Bay9rtGYwUI2BhhU/Daa69dVtUO9laoBLAhiKZgf4U9QyS7I+yksGnpKhGhY2/Tn6WaFiBEs7ra1LUAIQ7i2Ue7hQIWIHQLWftdo7ECBIz1MAjE+BcDYwyGMfiD8WKg6LhkYwiIYSoMHONkxPgYFWNLhIEpDBqjVYxOsTPBmJU6CxcuNEyZ/3mPo3rgXRgDUheDQJgzRou03dm7MajEeBIDRN6N0ST9dp6nv7SPWgMDRd6L8SRqOIpjQEn7uKE7BrIYy1IHw23irOCl01+LBQhxzKwFCHEQzz7aLRSwAKFbyNrvGo0FIOAtgBcAzB1Gi2cLt3g8WrjRw6xxacTjBOaOJxMMnZgauCDi6gpgAAQQO4E6eCzBnB0vGYypaQ8PGjxc8FLA0Jr3cqMHYOCVAPOHudOXtu+G8cPs8ZbAuwmpB95N/I0HghMkif/xZAD0OFIFPGhwKaffgBBcoOkzHlWAHgxo+Z7YCTyPa6QTQKnfLRLJeHUgIQEseYKOJVh/HGk3jMkChG4gqm0yLgpYgBAX+a6Yh2MBCNzwcf2DMQIQYKBEhQUYwLD5nHgEMHNu+w5AIA4KzBUXRRg8IZGRNOAOCUCgXQACnwEQeI7ARDBrmDwAwQm2Rn2kCzBtVB201/bdgBZAAowfxobbIlIEJ/YJYIAf/ndcIYnjAfPHjZoxYiBLHYAF7Tuu5UgkADSAICfeBzE9+muxACGOmbUAIQ7i2Ue7hQIWIHQLWftdo7EABIgA04WJOqJ/GDWM1LEFgCHD8Ll1Oj/U5aYOk8WlkDDtjqoAqQQxN5x163jg8D/t8h2/aZd3wKAR9VOoi7qgs3fTNsWxI4Dp0zcKfXJsB8K9J2D+jmst9em3E7/B6Sv94TukG7QB+OivxQKEOGbWAoQ4iGcf7RYKWIDQLWTtd43GChDCGWssROlPLoXx0iIW+vX0MxYgxEHxeADC/v0HNHbsGL269nXdfecdWr9ho5YtXdKCjuPoln30CqaABQhX8ORHMfRYAUIUr7BV+wEFLECIYxJjBQgQff2HG7R40UJVnD8vn9er0jNndayw0IAFJ4RpHF2zj14mCrgJ7tOdXbMAoTup23/atgCh/8xld47EAoQ4qBsrQOCVH2/arGlTp+jYseMaP36sTp8u0oFDh3Xv3XcaPZmjs4vUPXRwXfnqOs9zILiJUuYkhIr0XvRwji6wq7oYAaHDi1Tc9o8F68b32c043LYVrlONNA4nr0Wket31vQUI3UXZ/tWuBQj9az67azQWIMRB2XgAwsFDh9Tc7Nczv/mt/vCLX9D7H6zTnXfcptycHNMjtwzYDSOkPbfM0O17MRbCgChScdOekxUuUYzfLf2iAVcw/kgBUS5nuNhwINgfQi1HWlf2+/goYAFCfPS7Up62ACGOmY4HIER6rRvGShsWIHRMSTf0swAh0iq03/dXCliA0F9nNrHjsgAhDnpagGAlCOHLx0oQ4thM9tEepYAFCD1K7j77MgsQ4pg6CxAsQLAAIY4NZB+9bBSwAOGykb5PvdgChDimq9sAQnOzao8eUfqIkfJkZXfZQ6tisCqGcAr0JyNFDqePPvpIc+bMMdH5CEhD1D6i2xHJjlj/RNlbunSpKwPcOLZ6v3u0pwDC2rVrde2115qQxCtXrtTbb7+tNWvWmEiH77zzjpYvX6433njDhDR++eWXdc899xjj57feesvUf/XVV3X77be3GEQHFVSDvy6q+Uj2psrn8UX1jK0cooAFCHGshO4CCP7tm9Q4cIhSzpXJN3s+WUM67aUFCBYg9HWAgKcLyXQIz0sIX8fbhqh2JMNZsGCBiadP5DoS/EyYMMEAhCVLlpg4/4888oh5xomc19GKwCsIpmRLiAI9ARB4x4YNG0xOBeYHcEAoZpIfzZ8/X4RgZt6JzEho5dWrV5vwyyRhIiwzeRMIt+yAQNoDIDQrFCHRbfEpWV553Vbv9/XcGFw7RLAAIY7l0G0AYeMHapqzUCnFRVJOtrxDhlmAcJECbgGRNVJsfyBiIwEzduOeGse2iPpR4u2/+OKLJn0wEgP6CTMfMWKE1q1b1xJqlyQ9u3fvNkl7YCBk59u3b58eeugh4+qL0SmHnxMqN7wjmzdvNoDCjadM1APogw/0BEBgPgABAD1AAOuO9yIFWrZsmd577z0TfpmkTQcOHDBAEBAIQHDWgZMYiu8MQAgG1OxpiorivmCSPBYgtNCMPeI2XosFCFEttdaVuwsgBEqKVHfqhNJRLyQlK1hbLc+APHlyB8iTM4Ag5C0dccswrZtj+4m2XgxxLP4EPgpoeeaZZwzTgCFw64Thw1hIv0sSHW6gd955p3kr/3dWuG1OnTq13dck+KFtEvnY0jMSBOhMKmhUQaRIZi6R5PCb8wggiNQIgMhvJAZkcsRNF0kSc8V3AAiHoVkVQ8+uXgsQ4qB3rAABMdrPf/krPfiZT2vr9u267tqV2rDxIw0YkKfly5aaHtXX1SktPT3Uu0BAwfo6BY4ckirK5Zk+S96hIamCBQgdT6CVIPQ+CQJrFZXBf//3f5sUuTCCRYsWGT3z/fffr2effdboosmsx22RHxgDt36CVXHbjFTYWzCgtkAABsX7YVa29BxASDStLUBINEW7bs8ChDjoHStA4JVEUqyprdXsq2bq8JGjGjQwT7v37tV999xtkDVIuyNRcLChXsHiInnqaiWvR005A5QyfGTEUVgJQs9IEHiLm4iVEScsxgq91UiRNQ04gEmTshepAXpn1Aj8z00TwHD27FkjKeAGiSi6o0JbgIAxY8a0+5p1TmpgDOPCC3TBjgH7BVt6BiAA6pAM3XrrrWauCayGVAh1ASmdn3vuOc2cOVP79+836+DkyZMGMI4cOVIvvfSSsV1A9YC9gjNvFiD07Oq1ACEOescDELZt367MzCxzIE6dMlkHDx1WfX2DbrzhupAEwUUo42Bjo5oP7pWn4py8U6bLO2iwlNzxLcsChJ4BCOGpY+NYWjE/2lsBAgNCv1xYWGjEzViowwRmzZplDNXOnTtnmEZBQYE+8YlPRBz/+++/b2wKOgLR2C1cffXVl+wNmpulgF+Fxwo1btxYyZcEhyTpL0mDQyo7nzf0+RVSesIGASC3fv16I/kBHLA3AIao9pi7rVu3GmC4cOFCkwb6rrvuMvOPISNgkr/xciDF9KpVqwxoDAT8SslMjmqWmuqbFWhmrm2BAuwZN+HvqWsBQhxrJh6A0ExuhIv5xjGqcgCBE87XDUCg60bF4PEocK5cwfPlUl2dvCNHy9PGsNECBAsQLreRohNIit+oDVi7zm8OLJgHtgduJDAwGxjI5MmT200s0jd01+izfcGgPB+tk5C8BQLy8P+gIQpWlEvBoOT1Sh6vlJ4uT1aOPFlZ8owYFdG9OI5jo1c82hMAgTnatm2bhgwZYkABhqcwec44/sZehO/wagBEcOZhb5CdnW2AJIARexM+44diJQg9u3wsQIiD3vEAhEivjQoghOlmg02NChYeVbCqUt4Ro6TsHHkyswQgcWPB7fa9rXIxNDfJv3MbcNMcrt7RY1uG56a9vpaLIXD8mIIlRYa5+OYulJJDNxobSTHSqk7s9wAEbApMThBzQQyq/uIN1XmTV0Glrn/X2PE4hdgiweoLnXfG45EnJ1feKTOMcbBc2D4kdmTd31pPAITORgFwoLi1pA9vxwKE7l8b4W+wACEOevdGgNAyHFyCai4oeOK4gtVVCkyZoeSBgyKO1g1Dp5FwgBDAHbOp0QCDwKH98k6d0X8BQjAo/4G98k2bqcDpE+b2icTGAoSISyvhFWByqBOuXbJcwbM1BiTUDUpSAMlAWEnfuUWqPO8eILQgCQ/yWHnHTpB34pSE9/9yNthTAOHHP/6xPvWpT+nnP/+5Hn74YaNmQHJEsKunnnpK9957r37605/qwQcf1H/913/pscceU1ZWlp544gnzHAatjz76qLE5CUFAGygplnXD5SW8REo859S1ACEWal98plcDhJZxBRWsrZX/WIE8wYC8Q/ND6ocwV8lwEkQNELA237/b3NA8GVnCiNI3c3b/BQgEmdm+WZ7sHAXPlcs7a548F71NrnQJAkxnx44dRk2AHzsGaNu3bze6ZewMEPk7BoRERYy7NPjVcKZSSfUBebAlQOWWl6ym1EtuwHyWWnBIXsDcxRJRgtBRx3Jy5Zs4RZ78ESG1RB8vPQEQAAPMN14pqI2Ihon6B4NEYlhguIg9yowZM0w9PFswVOR/4l0UFRUZA0U+wxYBYEEchGDSJWmQm2nw+L1SsPWacPNcX67TFhAYcHURJCBJDpcmdwUWLECIYxX0DYAQGqCxQfD5FDh2RIFjBfItXGriKrQt0QKEQPFpYxjpHTzE6HT9e3bKN2tu/wUIwaACB/bKO3W6/Ns2ybfw6ktQjO8CAVc69DiWXZePXm4jxV27dhkXw4MHDxpPAn5zMOFBQEhkdNFYpt94441Gz3zkyJEOx8N6pR1iI3RUgk1+BY+fv6hauFQjkO5TXW7ryKPJZ0uVBIiNByA4zw7NN3unM4DdXfOa6HZ7AiDA0AmUhI0BERGRGrA+KBgmEk4Z2wIAJesDYMD5A3jAuBGpAdIE+orhomFyVoIQcSk4QKAtSAj/PxwUOH93BBQsQIhI7s4r9DmAkBSy0sb7IVh82tgpeAYPkTfMTTIagJAeDBiVgm/OgpZbVeDwAXnGjpcnJdW8y017fckGIXCmVGpulHfEaPl3bpV30lRj42HoagGCufVhJX369GkTEQ8wgLSAQx5DNILhcPATDTFSweuBWye5GC6VoKrKjkmNfmXVDgoZGoYXr0d1Q1MUCBklmOKrOq+UXdta7BBikiCEvyMr26x5Y5/QR0tPAARIw3wDAjBOxBCVNYAxqsOsMNDG9RE7EqRMAAIYFZIGPuM55zMLELpebOHAoC1I6EzFEA4OOgIKFiDEscH7KkBoGXLAb4IvGbXApKkKerxqrK1Rak6udBFMdEYebBDSjhfIM2Z8C4M0G7i0xAR18o4d3/8AAuqFjR/IO2+xUSsECgsMEMIw0wKEODZSF4/CILZs2WJEzEk+ryqK96m++qx5YkDyeKX520dG9GclqT7rkhrAW1+n1K0fS/5m81zcAMGgDp98y641xox9sfQUQMB91YmWiEQIaQKqJkTcTgRF6gAiABOASdQRzneoIPBmsJEUowMHAIK2P84ZBRDo6sfskYsqaAsQ4tjdiQAIr772ulasWK516z/UiuXLlZsbOvDc3Lypl4hIisHaGgVLi0MShSHDFCw7E0oS1UWpralR6qnj8oUZJJoF2NigwKYN8l0TRTwHVBMuvSzcjtcN/aINtazaGgX27JBvyTWGMoFzZVLZWRODwgKEODZShEeZ84MHD2hEXkANNRUX4xcgtErW4ORp8ja1twkwUoSLH2N7k/bRemNImzCAQEO4ZC5e3iclCT0BEHgHmRpRE+HSiFSJoFhIDObOnWsyPML8kShw4cD1kR9sFsjTALCgDT7DnsXsMatiaLdbHCBgziSi7l6UZDp/G2PeglptPdmg5oA0aXCSVk/NVHZ6kgFezk9HoMEChDjOtXgBAsR/6ZXXNHHCeGNidaTgqO67924zyWwiN0l13DLMiHEQCGtbdFK+cRPU/NF6BdGtd2LIaIDJgb1KHpYvT157z4ggovdpVymYmuoa6ETs38V5csvUOXQiBQNx25YT8tdbfFqB1FTjR29KY4M8hw8oOPOSCJxN5sadNI5l1+Wjl9sGoXvGFVRF8X7VVZW0az7Jl66BnknyOmjgYo3G3GQ1pV8yTEvbs0MeAF2iJAhOT9Iz5Ft0tTFa7UulJwAC5xheJtgYICFAOkBgOIwUiXWAIatjpEj+DdJAY5CIvQLJuAAVAAk+u+aaa4zaIRAMyNfGCDUS3QONQQWjs2uM1GSv+L6tSsEBCswtbu37i+v1/K46rT3YqNo2+a2SfdKiMWn6wtIcLZuQqdRkn5HcOJkeHYkN5zJ/850n2JHpY68gRe/sRLwAoaSkVMUlJUa0Nnx4vomm6IRadnMDNjyKQEku/LSZaDPJnTF9UOfBvcY2gcPOG2Z815b6eEUEdm2Tb8nyDkFEoLRYnqRkeQYNNpu6o+x64W32BRsE6BY8vF++KTMujRma7domL9IWvr8o1nMT6Ke7VnR/BAjV506q6izGjB1Hw8tMzVd2U+uMp8EUn2oHXjJWTCk6Jd+RA4kHCLSYla2kZSs7jWLaXXMdT7s9ARDYD3gqkDyLiIlIBFAxIDXgTCAIEoaLGCgCGrA3wTYFYA8o4DsMWcePH98C9q0EofWsO2dOuLSAs/75HZX6h99XqLqx6wiSSV6P7pmdoX+4fYi52LQFCRYgxLHL4gUIbNLfv/mWFi1coAMHD2rmzBkaeDFiWHcABDc32/raWqUcOyzPsBHGgLGjgu69MWeA0jqJqxAygjxl/MfdjCNmgNDUpMDJQtNF3oVe2Clu3huNBIG7aHD/bvmuuuShwbuM18aMWcZI0xopxrGZOnm0oaZc5ad2RmjYo9yUMUpvbu2V0zg4VU1JoQMyqaFeyR+v7x6AgFRi9NiQ9w5RGftA6QmA0BkZYGaOODtaUlmAcIlibW0MYOacaT/bWKHvvl3ZCZxuT3HOthumpOn/u3OI8rJSDVBwJAmO9NRKEKJdqZLiBQhdvdINg4tWguAKINTXK5Xseft2yTdrXnsJQTAg/77dahg/ORTBrqNCbIS9O40dQ6txcMPGe6LyfEhvf5GhxwoQiGgoXDUDful8hbwTLoXddUO/aACCzpTK01Av77jWyX6My+PkqSaOvwUIMWyiLh8Jqub8KVWdOdJi9d5ZdewRBnknyxe4FKc/mOxR3aDkloMynZDLqIVychSsqkp0Z+WdNVfeMSHj3FiKc+CHRxh0boZtpVJ87rjUug16E96nngIIBD8iCNLjjz9ucmwQHOmRRx4x6oaf/exn5jMCJT3wwAP6/ve/r69//etG0sBnZPgkUNKXv/xl8xnFAoSOAQLggJ99p6v1iZ+fUVOUKhVAwp+uytGXVgxqCXfOOnQkzxYgxLCj+ytAwPYB7wbjiXAxjLBDHv+BPfIMGqr6zKzOAYK5We8wh2VDSmqLLUWg6JTU0CBP3kBz8ze38Yui+ViMFAMnj4e6RfCUE4Uh48GL/U0oQGhuVmDTh0qas1CeixHdHHoEjh6Rd8xYKSn5igII6IgRHePWiB6ZNYPoGFc1J7Y+7oz4tMdemN9zaqiRqs7Wqqmhocumknw4T9WxAAAgAElEQVQZGuidKC+BcShej+oHJcvvC4X1TSf/Qm2NPIOHKlhZYYBqsOysydOQkJKZpaRVq9s11VVmSirDLPkhZgQgHrUcqkMYPxb+WP+TuRJxOx4AiOYR0QMo0O8zD9GWngAI9I+kWmRnZFz0n76iSiBZ0+bNm0V6buwMqHf77bcbdQM2CARKQi2xePFi89yKFStit0FoCipIbq5+VsKNEZnPiup6ffaZShWei22wuWkevfCFYRozJLNF3UC7gAMLEGJYPP0ZIATLyxSoKDfuj04xtgcH98o3b1GrUMsdkS5YcU6BwiNqHjxMKagqGhtNzATUFhg2BvbtlnfmbBOsKSYJAp4PO7bIk5oqpWUYPbDxvph+lQEdrgBCba2SU5INc++sAGSCp06a2BHYXHjS0lpVBaR4hw038fqvJAkCB/jEiRPNgQ4DIJTu6tWrzd+O/hjbmkmTJpksjvx0Vhz/eOeWGKpXJ+kgUDOEAYNeVZ0NqrayyiRd6qxkJA9Rjn9EC0DQiGwFU0KW2h3etJFqNdQrcPyoSaMOgGgXWyGKs8E7daa8k6aY2z2MHPpgoAd46uymD5PHjgijvaFDh5o4EQQYQh+PUR/Pk/USGvMZY4GuMF0M+QhAFW3pCYDA7RMbBH7n5+ebcQB4oA395zvowv98Tl4NaAQYwrUVYARjYpxOUi4rQQjNdLh6wZEerDtUqS89W248FZySmeLV3985XD5vyGB3X3G9frQuZKzbUfn8ogx966YhxuYD2jM3rDfmwBopRrnL+jNAIB1u84b3QxEX00OqBEIqe0ePM37krZI1dUC3wJkSkzHPmz9S/n275B0zzkgeghcqQ0mdcnIVOFEYahuVRm2tkqZMizgDjlEmbQdOnWiRQphNU1KswKnjxjjSHwgoGZVDJ0aZxGsIFJ9SsKHBhIZmTO1KICD/7u1GVQL4CNbXt0pEZd5ZWiylZ5jxXEkAgRS8gAFueQAFmNewYcMMY+N2yN749Kc/baIpcsg4DKmjCUbVAzM9evSoiZiHhbt0SlJpm+oeNdV7VFnaoMb62g7Xisfj1YDsSUpVrrwD06VU9ymcje3MiaMKHNwfcR12WsHr1cFBw9WcmmoYncPk3DToAAoiCuKFgyQG0AQDgCaABRgqEhskCfv27TMGfK2BlZs3ke06BLw6MqhlHfN+N15Ukd6GNxbSDtqDyTg3Usce3gmc5GRzhDEBEhz1n+ON5IArCxBCFA83TmR9QKcfrivX99bVtJqS0XkpemBxngEGt8zMkT8Q1Lkav7737hnzu22ZNjRJTz08VAOyM8x88R4LECKt8k6+79cAgUVYWaHA/r1SVpa5VZkMdxgDtknW1BF58GQgQQ6x6w0jx5Cvg+Lfu8tYf5NmN3j2jEmCZGIpFB4xRuu8LzwktAMQsIPwjpsoTxs7CP+u7UaFYbL3paXLOyzfxHfghih55B09RmpolH//LvmuXikFggqWFpm22hWkFNs3S0RKxP5gwuR2QAJJS7CpwQChKwkgxLhlunwMIIHIuarqnKZPJ6hRx5KCYMCrC+VNqq2sV+Bi8COnYY/Xp9xhU5WRkx9zFwGD/t07QtKEGEpgynSlTI4MdmNoOmGP9BRA2LNnj1ErOEAByRMACPslomwiSdi7d6+pg9pq3rx5Rm2yf/9+o54iNDPSEz4zjNHGQegQIHBh+9bLZ/Tq/tb+jACETy0YoJQkr17edV7LJ2SZZGbHzzXq/UPVavS39nIYmePVUw8N1qgh2Ybmjp2LlSDEsPX6PUCoqzWREbn9E1YY1YJTIkkQqEe2Q//ZM0qaMVueTlwxMTT0DBhg1AT+D96SMrKk+jolrbzBiJL92z5WEoz8YjEAgYWLcSDqhDbFf3CfvCTU8Xjkx2rdl2TUG75rbzAgJ0CiJdQmdXWh4FAX9c/eUWMMAEAvDbBAdUEypkDRSQmxsc8rmE/bAvgIni012f4sQIhhE3X4SJGk4oiN+ZuTVHaiVv4m1BGhkj14grIHjYv4bKQKQexO1r1tEp1FWzwDB4XAZy8uPQEQuNmShAmbgldeecVIk5AMIBlZsGCBiZFAP1A/ACSuvvpq8x3AABUDZwxBk1BPkbvBAoRLCyo85gE0BYB97fkyvXc0FC3UKQ5A4P8mv/TNNZfcgb/0q+Nau6e16m9olke/emCgxg3LMWov3uOoeayKIcoN3d8BQij50g55UtOMGx95B5ziBiBQN6ItQFOj/IVHQwtx1Bh5MjJl7BcwQMR18EKVkhYsli7mdgAgJJUUhdLwDm1/Sww2NSl4stAECklG+uD1KnC2VNz0GQ8GhZ7cUAz9psrzSsaGISXFSDmCp0/KM3KMSY+txiYpM1O+8ZPk93g61WEH62pF/gmjhrC5GKLcQR1VR2pwSJK72zvShNqqgC6U1Skjd7gBCLFY9XfUE9YhobWjtknweOVbeX3HaqsEUCgRTSQKINDOiy++aCIdDhkyxKhAnMJ3AAQKN1HiGgAaAAEYH5KQCdE4qhiyfmKIeObMGSNhACBg3IntAaoV1FbsfQIlKcpsjsJoNUqr/kTQuDvbCFcxOADhb984r7WHW0sEsD1IT/HokWtC2VP/dPUlgPBHT53Qy7sqW3VzZI5HT3wmT6OH5lqAEO8ExgsQAoGgnnv+BV1/3bXa+NEmo/O5eU3ICjoiY73Y+WgCJbl1c2yle/T7jYGeMc4L0+cnDCBc1Ke19WIINjcZ8b+IdVBwMKR68AfUhKh/y0cha/Eu8kW0pR9qC3zUPWFeGa3cHAFDH6+Xb/5iBasvKFhTbewtKI4vcIeMp7lZfkJLL1tpAUK8GyoE2zClIv9olK1x8IVyYiSyABwJhhUtSPCMmyBfWITNRPYpEW0lCiDQl6efftoEe3v00UdbVAFOH0n/7WRpxBYBDwaABICBPYphIoacgIeCgoIWI0yAAsGT8GBw0kXTplUxhCjbKmpic7MBU49/WKb/2NjxvsnPTdIDCwfqz266BBAeeeqEXmkDEKYN8ejn9w/UoAFWghD3PosXIJyrqNBbb71jUPew/KE6dPCw7r3nLrN5cHWKFCqYASQaILgJUcx73URIjAboOMZLHU5K9QV5Cg4Z40MkBIG6WnlmhNK/dlbcjKNdeOcLVfKeKVUwyafgiNEtLpMRA7use0dacX1LV9wAsbgXXycN9P1Iirgy7omBPNjGdEN2RdRcGz4w9jjRFOx1fMtXtWQ5jebZnqibKIAAo4Lpw+QXLVpkMi9GKo6BYiySHgsQWgMEziYuOlzYPjxYrq++0tBpDIRJQ1K1eka2PApFfX1hx3mVVLUGFF+Y79VXVw028+ioGKyRYqQV3cn38QIEGNSGjR+ZZCQw+rr6OpOwKRrGmmiA4FZy0d0ShLYk5yZnjBUJEFNYEEox3UVxM45oAiV16iZnMjyuk2/BEgXDjHq66lvh8ePmpjU8P78lS11X9atJjJWS0u521tEzfR4g1JdLdUelFL/kDUgp6ZIx/ehKRoyXDUaBl3Iv8ARr9J/+6Z/02GOPmTgD3EpfeuklYyC3atUqYwCHfpU4//jh4xXwjW98o52KInDsiHHLjaqkpcm3/Lp2brFRtdGNlRMJEJzYF2ZNDx/e0muY0C9+8Qvdd999xhAR2wISNEF76v361782dgmco7hqvvvuu7r77ruNhOGZZ54x31Gf+AjYKVAsQGgPEOAjnHdnys7pC7+r1tGK1vvA7TIakBrUk59M1rgRQ80esV4MbinXTQCBZp1IVc4N2kHVbhgcz18pAAEvAv/2LYYHeOctMmmWew1A2LnN+L4rI7PF6heGQtrrlpKUHMp8mZqqJ3/1tGbNukqjR43Sk089rTtuv03k5di6bZu+8uU/0k8e/7luvOF6bdm6TXV1tSoqKjbubJ/59Ccjrti+DhCCJ9+S6kjn7AmptDAMxdA0NVPKHSaP8bhtk3lGYyS1DwvO3oJBwXQACJs2bTJ0fOeddzRt2jQjuSM40cqVK7V27VrjPviFL3yhHY2RWvnfWhvyjHFbTDrolfLktA7/7Pbx7q6XKIAACPvOd76jW265xTD0tgWmD+1LS0tNJkdUEUhGCY60detWI3nAHuHtt9/WPffcoyNHjhhXV8AarrSAN34DKhCjc2NOyXTvumpWS71fgfDgAN1N3B5q37F5Yi657ADUDp8q02PvZKm2ObqQ32y1ry3269ML8syFlTkCIDheDDZQUgyTGq8EIV4Gd0UBhIvEcguI3ACsREkQMFI0eSsGDLwEEI4ekRrDIvT5kkJhmpNT9K//9v80esworbr2Wh0/fqLF533q1CnKzEjX0WPH5fc3GwBx4uRJI+qbOHGC8oe1TkjU0frp2wAhqODh30nBLuwPPD4pKUWejAFSildKSZMyyY+R0uF2evLJJw3zgklhCEfMABgTFvMvv/yyOQTvvPNOE5zo1Vdf1W233WZiF7QtzRvXSRezQbo6Kjwe+ZauEB4NvbEkAiDAoF577TVDX+JhsE6JjeEU3kEwJGjOxQfJAB4J7E3sCnBlJDAUjJ+6SCCYBz7DqwEAhyqT+XDa7UkJQmXjOTUHorOFGZQ2tMemu60dAnStqKgwqoP/tylJ/qA7SQLgYM24Rn19Rabyhw4y0gPmAlBgIynGMZ0WIHSSiyGMpm4YdUyRFCPMm5v3JgwgoP5ITpGGDmsBCF1175lnf6vrVl2r995fZ25KCxbM15EjBUYa9GffeEz//N1/1dQpU8xtCl3gHbfdqq3bt+sT994TcbV2N0BwJF5OhDXnhhH+eczZLP2NChY8F3GMrSr4UuUZd5vk61iihBj7pptuMgyHW+s3v/lNc2NF7P2nf/qnuv76600+AHIAcAP+1Kc+1aEXBG61gQK8K9wX36Jl8gyNDOrct5i4mokACMw9Khxc7PgbI0UYf6TCWgEwxLJOehIg7D63TTXNFyINp9X3S4e2l6JE1UAUlcOjKTKfnB9IdIhKuamgQn+/MUM1TV1LEnwe6b7J9fqDhSkGwAHQHOkBalXHQNtKEKKYGKeqBQgWILAWiJeA14Nn1BhXAKHd7bS5WQVHj2nqlEvJpmJYjuaR7gQIACpE8cuWLTNiX8L+Pvvss/rjP/5j/eY3vzG+6oiKScbDDYTbDM90VGAS3DidXPMm3nuwQWnFb0Y3dAMQbpd8HUsQnMa44aL3dgLuRPcSmaifgd3bo3rMO2eBiK/RG0siAIKbcb333nst8Q0ItQxwZ+6JBLlhwwazZj744ANT56233jJgDgaFeyRADnUQIM4x2LYAoTXV20ZUBCQA2IjKebj4gt4qCOidkykqr2+tlkn3BXTNyHrdMF6aOzpTA/MGGHCAB5uTzdFJ1uTsURsHwc2KD6tjAYIFCAYgEKL3ZKE8EybHBBCiXHZdVu9OgMCLERnjtnbo0CFzI0evDwh47rnn9NWvftWIiznMp0+fbvzdObA6Ko4lu5OtkP+TgvUaWrspOnL40uQZf4fkjU4vHd1LpEDJaQW2Rtc3co10GKEz2pd3Q/1EAATmDIBI9EskAmRtRJXjFN5BMCRiGcDoMTbkf6InEjkREIAKAakDcQ+uu+46Y0iKfci2bdsMk6OeEweB9gAIzep4TXVGJp+S5A1ZukZV9lXuUE1zdVTPLBp0TVT1460cvo/YS07KZ4AYQIH9yO/T55tVVgv1pNw0r8bkJSknK8NIKAEGuKAC2AHQAAIno6hznlgJQgwzZQGCBQjOsjGJqCZPcwUQXn3tda256UbtP3BQM6ZPV1JS9IdXZ8u1uwECBw6HiaPCgTmgH+ZzDhiM0fg/FvGxmmoUPPZydDuxjYqBw/Dv/u7vjBSDHBHhBSkCQXliKSYews6tUT3qnbtQ3pGjo3qmpyonAiDQVxjS7373O3PzREWDlMApTrIm1grrAWaPNwMMicBHeI7AiBBto2pDYoDUCYAAEKWPrCWM74i8aABCMKhmT/QAwROMzmiPMeyv2hk1QFg4MOSF1tMlXJLgGC0C3HH3BqQ7wIF+OcnB2K+Aef7nJ1xyQD1AX7g6yEoQopxVCxAsQGgBCAf3yzPlEkAoraxXk/+S1bsPI63cNCV5PfrRTx7X3DlzdPLUSV29dIk5+DAMam5qNocht7C8vNis37sbIES5RaKrHmhW8MhvXT8T9GUqkJynpFHLQt4OUkuyKOw38M/n4MMqG4kHIIZbKq5zN954oxB/c7CShZJMihjFnT592txoT506pYcffrjFHiFwcJ8CR8gu6b74Fi+TZ0j/tUGAEqw3PBWgHYGNSNgVXjBERGIASGCNQ2/WOMwH6QH1oTXPMl94OgAakBrg2khmUECdc6O1KobO15/j1RDu3cD8wOQdcOUwfieFs/PbkRo4dHa86SxAcL/f29VMBEBApJaWlq61b7yhNatvbEHgbozs6JBbq/52QYE6Gbfb9/Z0HASnu27H62YciTJSpG9tJQhn2gAEr9ejITkhgPCrp5/R5EmTTJS4snPnTJKazz38kIpLStXU1Kg5s2drxvTYkv30aYCAugaA0JnleHK26n2jVF2TocbmdBFsk/wY+VOGKCUjlMwHvTY2EmSG5BbqAABUIKhGmHPEqhhykSMA0Tb6cAAFLpDQj9vqCy+8oPvvv9/cdg0j3LhOQevF0OrUQKT94x//2EgFkCr9yZ/8iYmI2J3FAoSuqRtuuMj8mLOJ2DFtXHQBAE5sl/C/HQDhvMUChDhWcyIAwu/ffEuzZs3U2bNlKig4aiIpckhx23GTbtUtw3SszCNFL3PDWCGZW4DgJuJiX/BicDZRZ8vFc/SwAuMnGTFdpEiKGzZ8pPnz5+rJp36ta5ZfLZ8vSWPHjNbuPXuNSxjJqMaOjU0U3ucBwrl9aq4sVUNDspoDyfJ7stUAGPAnK+AnAlz7GRg4Kke5+aF03eit33zzTcPk2UPENsCYEn97bqmIswER+Ndze0JFwj5D/QAYQETO/JFpEOM4DlHybfjffTO6cMtJSSZhExEVe2NJlIqBdnAfRVKDpMABVA5jIk8DUpvNmzebTI2oEpCQYaOCWynBkwBzSCCIkQBoY55ef/110x4gmrqAN4oFCJFXk2OX4IAFQ7cONg5nmvPTFhhYgBCZzhFrxAsQCIzzox8/rlWrVmrK5Mk6XVSku+643bzXLaOOBiBEYlzRvNctQHAzjr4AELqKpGgOwyMH5Zk4xZUNQsSFFUeFvg4Qas7X6cyRc1FRIDktSSNnDgtPFRLV85Eq496Im2NUBWvwa66TSHTWC0uiAAI6bmwJuKHOnz/fxDBwCvsarxYAAQarfI86AYkNnxGPAmCGJwNGjAS0Ih8DgZKQSvD38uXL2wRK8islMyQtcltiDZR0rPGQ6oPRZfOcnkpMjt5RwkFB+N9Ie8LD+Hd1abQShDjmMl6AYBhyQ4N8Xq+Onzip/GFDW2KZu2GsPG8BQscT6IZ+CVUxkCviCvBiiGO7uHq0obpRRQeIpBhdGTxugLIHh9QBCS3kYvjwPZHWO5riyc6RD4Dgjd44Lpr3xFo3EQABUIDtxpw5c4zUs22AKb4nY+OECRPMOcX3SAtQQ2CP4NgcYPeB5AYJAkaJSNGwXaBeUVGRsUFwjB+tBCHWGY/tOQsQYqObeSoRAKGz17thcBYgdD55buiXUIBQeFQaPlJBRMu+xHklRLs8+7oEwd/k1+m9Z+SPIjQukeDShiZr6KjB8noSyJDJ8Hn0sILRSg+wAB8zXr5Zvec22XYdJQog4MGAdwK3UNQFbtSiXa3RSOvdAoRIFErs9xYgxEFPCxCsF4OzfALFpxVMSpYGDrIAIY49hSi0+GCZkCS4KeCBpqEXVJNWqdzUPI3PnuLmMVd1gucr5N/wfnS2Bxdb9l27Wh4XmQ1ddaQbKiUCINCtSKpGAmgRyhr3V+w/nnrqKWP8iTSBxFlr1qwxsRTuuusuPfHEE/qDP/gDI13ASPTWW2819R944AHzGSVWgFBeXxoVFZO9yTpVc7JXR1KMakAxVrYAIUbCWQlCbcum7YqEbm7y/cEGIVhepsD5c9K4iRYgxLGnDEA4WqqGCn/kVnKaVTugQvXeS3ri/PRRGpkZm4Fn+AsraxtVXVahoQe3ytNICmr3hbTk5GHozSVRAKGrMaJiwJUUFYNjpIiEAddFYh5s3LjR2CYggeBvwALqBrxN8OwBVKC+4DM8U1BTBIMBBZOiSJpFB/1enWuODiAkeZJVUlukWn9NVNM4L3dpVPUvR2Vs0dxKOS1AiGOGrATBShCc5RO8UCX/0UPyXDXP9eaLY+l1+mhPqRhg5IiVw42fOvrf7RhpB5df46Z49TLVFfkVDHTgsiBCHnjUOOKCqnzlHTaflzLISBIieex01rdz1Q36+EiZ/IGgBqZ4tLB4l7zhibciDMp71Vx5x4as7ntr6QmAgAoPN1JAAIZx2BLAcAhmBePHMDE7O9tcNLBNmDVrlpFIEHmRdYAhHbYHAAPqU2KVIJTWnYpqKlK8qSquLbIShLC8GTZQUlRLyNogOGK/rsh2xUgQSEe97WN5Fofc5y5X6QmAADMnOA7x8wmJy8FPbgbExlipE/xm165dJq4+7mkYoxH4prMCk4BmuLph4Q5jP3eqSpUlrRPlYGvgz21Ubc55NXrDUml30HBWUraGpg/XgNRB8pA62kWpbWzW4eIqFVXUGXDglEGeRs2pOq6U6vORWyGnxLU3ypMeGTxHbqz7avQEQKD3GBmyHhx7H9xOmW+kC3yGQSIxKQhmxRphDTD/BFNyvmNNxBsoyQKE2NaSlSDERjfzlJUgRD4ErxiA4PfL/96b8qy4Qb6UrhMHxbHkIj7aEwCBTuDPTihjmD/W5vjCc1PkxkjcAcCDc/ML98fubAAOA3C+b6pvVtH+swo40SiTA/IPrVNVcrm5RbotozLGK9M7RF6PlJzkVZLP2wIXAoGgmgJBNTcHdOpcjY6UVnfoL867snwBLaw4rLSaqi5f7Z05J5TWu5eXngIIkIH5BwQAIFkjTqwJ/uYzwisDEAAPAATAIp8BEJzPLEC4PAvKAoQ46G4BggUIzvIJHDuiYPUFEd7PO3uBPJdJitBTAAFRMPpkBwByUyRbIrdCboclJSUmVK4bKVNnW9BIEUovyDuwWZWZZWryRmcLQLvNF/JVfj5VPq9HqclepQASSGNLTH9/QI3NQTU2+1tJDDrrT6YnoNnVJ5Rb1bE0hKBIxrURUUcvLz0JEACKZGwkhDVSAtQNxDrg/EQ6wJpBYgA4ADAAMKnP34ALfmOXYMCGgmrwdy09akv6ZG+qrAQhtgVpAUJsdEuIBIFNuvHjTRoyeJCOFR5n9evmNatN225u3tSzcRA6nkA39Eukm6P/wF75ps0UQXWUO0DewZcCxsSxxKJ+tKcAQtQdi+EBmENZ9RmdaCiI4Wm4iU/lpcPV2Jg418c0T1Bzqo8r70JZO++G3pzeuS0BexIg8C7iISAxcEIxkwmUGApICGD+2BxgpIgBI9EUMVIEZFKPz4h8SVTWQDAgX2p0ACzQGNT5YFlUa4gMkCW1xaoLRGekOCtzYVTvuRyVnayNbt5tAYIbKnVSJxEShB07d2n0qJEqKS3VoUOHdc/doVDLGPK48SmOBiCYlJ0RbjduGCvkcBNC2S3Q6Q4vBiK8hUcL62gKowEIkUIte48elqe2RsG6OvmWLJcnqXvTD3e2bPsTQGCMF5oqdagyyiiGF4njac5WcXFeh+GZ49j2Rl0xt75YQ89dMnzzjhkv71Vz+oT0gLH3NEDAZgUjRCInEgyJ0MxIE/BwOHjwoPlN9ETCKsPAiKKICouASTNnzmzZy1aCEM/Kjf5ZCxCip1nLE/ECBJjxxo8+1uzZs0wehvS0NM2adZWVIHQxJ24BkRugEw1AiBRqWSREqa5SMDlVvvT0OFZVfI/2N4AANc7WlehkTaGCcu/ehmFidflIVdUkTnoQPjNJnqCm15dqxPnT8mRlKwm3xuToQgDHN9PxPd2TAKFtT53EQW3tTtyMyAIEN1RKXB0LEOKgZbwAoatXu2FwPO+WYdpsju2pnVCAcNEYi8Ovv3sxxLFlYn70+IUjKms44/p5jz9TRacHua4fS0UkCYuHp2nQ4AGXTWIUS797WoLA2fOrX/1Kt9xyi9544w3j3YK9yvPPP2/+Jhrjbbfdpmeeecak2MbLgeybN998swi0RGAlPqNYgBDrjMf2nAUIsdHNPGUBgjVSDF8+Th52CxDi2FSdPOoPNutU9XGVNbgLeFNXRYKgyOsznp4m+Ty6ZupQZaX1HcmBM96elCDAZAiYxL4gSA/GiIRlJngSdgYYLK5bt86ABLJuYoOwe/duY3uwaNEik9FxxYoVsdsgNAV1PmBtEJy5tzYI8ez6KJ61ACHyAexGEtIdNghu3mslCFEs9l5QFQO149UFOtfAYd+5qyPqhXOlI1Xf0D3qBUiRmZqkJZMGKyP18tiaxDsdPQ0QiJeBkSK2Brg8EvgII0W8GOgL35EJEgBBXA3cZZEaoIbAlghAYSUI8c569M9bCUL0NGt5wgIECxCsBCGODRTDozW1Ndp7YpeSBofEzR0Vnz9Xp4tyE26c6LwLULB08mBlpPRNcNDTKgbeV1VVpczMTCMFQJIA40cdhyG2Y/BcXV1t3GIxCMbImO+cXA+OcbVVMcSwaeJ4xAKEOIhnAYIFCBYgxLGBonwUe5s9e/aY22e1/4JO1RSq3n8pDwPNeeRV1dlRqo7OVd5VTwiyNHZwpibnZ5uAS3259KQEAQkhngrEQXDACWCB8MrEPCAKJ5IFPBZweUSKgBcD9XmOXA18ZiUIPb/iLECIg+YWIFiAYAFCHBsoykcRSc+bN6/F5c0f9OtEi8oh1FiwKUMlxYOjbDly9YwUn5ZMHmJUC/2h9CRAQBqwY8cOw/Dff/994+6IyoBgSEgGUC3g4rhkyRKjanDsEwCEqBuQPixYsMAChMuw8OTHgJMAACAASURBVCxAiIPo3QUQDpdUqaG+Qb7kFE0dkSNvF7ELEunFUFxRq7KqOo0dkqOcjJDhVfH5OlVUN2jUoAzlpF8KIdw2zevJ8hpV1zdr9KCMVkZbkWwByJp3oqzGRLrLTk/W6EGZavYHVXj2gvxBacLQLCWH3dbCx0skvMKz1ebeOGFYlqET4XMLzlxQwO/XxOEDlOT1mCh5BaUXzDu4AXL7I3peQckFpST7NG5Ilvmus8JhGu7meKGuSafO1RpmMWZwZstj1kixNQXffvttw9AJw4xYGfoQKIe1g14ZA7VJkya1BM/paityyxw8eLAJ09u21DRd0NmGUmOb0Fw9RGfKU+PY1a0fHZSVqtGDM5U/IN2spf5SehIgwGQ+/vhjw+iRBBBCGYZPcCTWAsBh69atWrVqlcngSCwEbBYqKyuN9IAkXkuXLrXZHBO0+Gw2xwQRMlIziQIIbNbfPf+ibr/1FmVmZujDA2c0f2yOzlQ3GwbtHEuhYD0yjJC/DW4IBpTkSzLBW8znF7/nMIPpwQz5mzSp4db1GHLxPc/Af8lNA9OD0W4/dk6zxuQZZgvjn5yfo72nzmvy8JwWktTX1SstPc38X1XXJDLgTRmerQOnqzRuaJZhyjDw2roG0u+1hLRtNp8HTduBYFAkyMHYKyXJp3f3lhgg0tQcMAcyfQMATBuZ2/LecMPC0vP1yklPNtHVquqaNTwvXafKazQwO9Xon+samjU4J01Hiqs0anCmeR+fDcpO056T5zVleI7qm/xqbPKbep0V8gF4vCGaUw4VV2nGyAE6UlqlYblpGpwdetYChNYU5MaPyBi1AKJkQBY3SQzTsGQHJGRlZRmmT6hmfjoro0ePNkl/uiqs8aKKeu0/Xakmf8BV+OS27THFANK0ZJ8B58NyL19Mi0jnTzzf9yRAcNI+L1y40Mw5RopOoCSkBXgsAArwakB9BAND/QA4YL0QTdGqGOKZ7diftRKE2GmXMDdHwiyziQ4fOaKbb1qtw8XnVVJWqdTUFI3NS7kU2j140XY7GDLP4qepsUlJyUktBlnmc76nbhAmHPrd7Pe3AgjGvMuppxBAaPamatLwXG05ckZDM0LPNXrTNGX4AO04dkZ5qZeMwsIjFdY3BeRNzTBAIlQvFFAOBt/c1KS01BR5L4KRELgJfQ/DhWGfrAoqOcmnbF+TcjKSVF7j19CBuUpK8urAiTINy7qUHTE8nkN1Y0Ajhw4yjP/0mXPKSfWqsj6gsfkDjfSh5GyFMlM8OlvdrCljhpikPKXlFcpI9qr4gl+zxg1RTYNfZ8+dV1ZK57dD5iYEyEJ1yuulOeOGGElFpqdJeZmX3NxgeBx+l6v0pkBJuKwNGTLEMAR+cyvktsi6wiANJoBYuSOpQDz0AxzUNjQLSU95dYMqappUU9/Uqd8D05qXkaLa82c1e/pEZaclG4DQB1IqxEymngQIbTvppAiPFNW1o8FZI8WYpzymBy1AiIlsoYcSJUE4c/as9u8/YJKYLF4UiuVdXVunzPT0iIeUW1c9N4GSSHNbXFGjKcNzjbifwmcl52sN83c+4/O2oZZPltWozEgRclrpad2EPDZZ9fzNSr3IWJE+HCmpEtIGbnEk13FK+Hj5/nBxpUnnO+WiKgawcLCo0jChqSMGGCkJ7R8oqjR/T8rPMb+RbnDTJIHPxGGhzzorbVUMNfXNRnqQl5lqVQxx7J+efJT1UN/oV6OTHfLiy5FcpSV7Dfg7dOiQkFSwD/t76UmAwJ594YUXjJoAVQISAYDiK6+8IqQKSJqIfcB3119/vZEuvfrqqyYGAmqIlStXtkiPejtAmD9oqaqbUXu6LwNS8uRF9NsLS9QAAb0h6J8875czIExvoGWiAAJjqaq6oKyszEt5z4PBiHkTuoMGHKRukH2i6yV6LG77l+j3Xu72epME4XLTItr3k/8EmxkYVH8vPQkQeNebb75poic6sQ0AYgACpEyLFy8W9ir33HOPjhw5YgInkU4cuxOSNPEb+wT4TiDgV0qYxM7NPDXV+3XBc85N1ZY63qDPJGuqD7b2konUSG5wsLZf2BypWqvvbxh0i9K8nas4o2rMRWXcRyPlqXGacQ0QyM+NAclbb71ljIuYTIxNMDJyW+rqm1VweLeamr2aM22MvOntDY6aAtKH72/QjJkTNHRovtumdbakSJ7UARo8APn2JZG06wZiqJhIgBDD6+0jlgLtKGABQuyLAqkYaYexqu/vpScBAkxm48aNLao3kjAhpdm1a5dGjBhhVFBcNukT4Az6Y3uAzYkTQMnJAtnbJQjD0kdpXfG7US2fT0x4QBlJkT3Como0QZVdA4Tf/va3xogEXSLBLMjKhVXxV77yFdciue2HjmtEtk+erHx5Tm9QYfM4vfPKL/UnX/6SXnlvo05u26kV992t737rL/TYt76iKbNW6sc/+pGuWTBH5zROd64YqFffflN5aVep7Ng6BUZO1YXDW7Xwk3+s17//55q9+utauniofvAPP9NX//QuHTxarVdfeVZf+sLDGjF2coJIdqmZ7gYIbBg3Uho3t2XqOOL5riQE0RjaoZuPlHDFbXvRJHBx896uDsDwhRB6L8afXVuou9WbulHlJHwhhjVoAULs1GXu8L/HOC5SoS434NOnT5sL07Jlywyj4/aLrQWZCrnxPvLII5Gauizf9yRAaDtAziHODTdnW9tn+ytAePHoS1Gtg+l50zRvyLyonomlsmuAgJ/qk08+qccee8ygvB/84AfGMvmOO+6IyCScjn2wrUALR6crY8gI89Fbb/6P5l29Qif2vqm9Ryo06dpPSwd+r60f7NbIFYtUXjdE9183Rj9/9l2VNY7VX3x2lP7lh/+pCdmLdMfn79Tzv/gPVZ736E++cru2bCnUuqO5ytRWffYzD+l7/+8/dPXsWVp43Rrt2/axFi1fGQt9unymOwECuvvXXn9Dd98Zmb5khFy4cIGSu0gxXFRcrNLSMxo5YniXNyQsyffuP6AVy5cZMVRnYAKGeejwYU29GAK1M0Lt2LFTNbV1Wr5saZe0fOvtd8x6mjxpYpf1ioqKjUfB8PyupUvrPtygnOxszbpqZqfrE3Dw8qtrNX/eXOVkZ2nAgAGdvnvrtu2mbzk5lzw5Ojr4XnjpZX3qE/clfK25bdACBLeU6rgedghdGZlyq+WCBBh46aWX9NBDDxlAwL5h/RIiGM8N3DvLysrMZ72xXE6AEE4PGBCxEbA3+PDDD3XdddeZcwe3yPnz55tYCdggkD+A0l8Bwt98/HdRLZOVI1fqjnG3RfVMLJVdAwQ2AxN45513mnzeZOfCYvvRRx81ITHdlCMni3WhslTNvhw1fLxW1SMnafSYSUpuOKu9Rws1Ydn9qt72onZ8uNcAhPq00Vo6zK/X3t+lxuxZumV2nX779NOaPu1mLV6zUqW7X9fRc5n65I2j9MHHR7WteLjy0nZo5dIb9N7atZo1bYZmLlup/ds2amEfAggw33Xr1istPV0jhg/Xlq3bdPddd7QjscOkL1yo1qhRI818lJeVmeAibRl7efk5rd+wUauuXWHaye2A0XFovPve+8alCF3hzBnTO5xb9LRHCgpUX9+g8vJyXbfq2pYNHN5JfJz37t9vYhKUlJ7RxPHjddVVM9uNg/bWrf9QEydM0NvvvKtbb7lZI0eGQGR4Qdx49NgxnTlbpuXLrjaACBq0NSqrrqlRSUmpcnKIeJekvLwBHQKdo0ePmX6XlIYSAAEUOpKIAK54L+6Os666SgMG5HbY3t59+3Xq1ClNnDhBH6z7UF/4/GfdbIuE1rEAIaHk7LQxDk6M7HDL48IEQ0PHToIh9g5uewAN1LC9sfQWgIDdx86dO400AbsEYh5MmzbNgC7iJuAGCdDCToE+48raFGxsR1J/IGDOgiRfe/Wyz5Os8g6SfHWVAybZm6yzdWdU669p9y4jJeQ9Hbi5DE7J1+ayj9r3r9lvzgxvBxE4bx51h7636z/bn++BoBkzXmpty+Khi7Sv7FSHS6u52a+kpI7V7H885yFzxkWS/DoNuwYIGI1gUELQEw5+EDLAgBSebl+GNXnRmTPyNjdp+PBhqrhQr9qaSuUPHawL1TVKzRqkQG2FaqvrlJKdqT0nK5SfUq+dmzdpzSce0PnSEnmT/UpPHqCcvBwVnSpSMBDQqOG5Kq+sVcCbrazMJJWXlip/6AA1NUvpWdmqq61WZlYoXWgiS3dJEFi40HjHzp1qbGzShPHjVVxaYphTZsYlXRX1sA0pPH5CKSnJqqmp1ZDBg4wBKZ4Rw8J0qQcPHTI0LjxWqPqGel01c6amTZ3SCgCwGNHD/urpZzR71lXKGzDAMNAJE8a3YogwdJjwsWOF5kBMSUnVpEkTNGXy5FZrgcXFOLZs3a7ikmJdu3KFSktKtWDB/FbTgMgRL47GpkbDhPOH5xt1CIChNUCoNOOtratVU1OzaqqrTVu4dCYnJ7X4SlMH6QYgAenFDdetUl19nca1uc0xVq/Pp1deec2M1Zfk04prlrcTfZafOyckIYCNKVMma9+B/Zo/d54BHm0BzI6du4zb3vD8YTp1usiAjp4sFiD0HLWR8jkZClmv0B5QwN/sm3DX2J7rlbs39RaAwFlCHAQyNuLyyt4FIGzatMnQEdBAwCS8HZw+twSGCRvqufJyNTQ0aviI4e0JYNzDUSW2LpwhIcnPmA6I5jHxVTrK9wEf5JLsxGYIfxiPquZgc7v2iouKlJqWZmKAtC0pnhTV+dvHBkdFxQWsIylUkjdJ9c3tgRJt07/OJFfZySFDeLc82zVAcAaFOIhb0n333edacuBuybavVVlbr0N792verHFKSmtv0Bhru4l6rrsAQnj/9u0/oOLiYp0uKjYi7tmzZiktLbUVE+Mmv2fvHmVnZZvbK4fWiZMnzYZCXIcUwpEo7D9wQGlp6SY+ATfna5YvM0y8rq5egweHrLcrK6vMRq2rrze/EauPGT3K3IycJCrUO3euQjDPjIx0nTlz1oAKvDEAA9OmTm1ZhFUXLpgoaG+9/a7S09I0Yfw4TZ8+zbQVbjVOPxhvQcFRzZ07W8nJKcrNyW5lVQ4o4uZP30Dx06ZNNaAGVcHqG64z4l9HonXg4CGlp6dp/foNhnZIL/j+7NkyDRyY1xLdj/eipgFoDB+er6zMTI0ePcrcSJzNhDri1OnTOn78xEU7nHSNGT1axwoLNWjgwFaqhxMnTmrTli3yeb3mJknwq1EjRxp9NbfMWHSvbtesBQhuKXVl1+stAIF+YJAIKDh27JjJycD+wK4Dw0RsQjBqjLRnMC6FmUUTU4N3OzE6olkN2JfA6CP1KbxN3gNoRMrrtnA2Mi7s/qIp9C/aZzprP2qA4NZYK5oB9dW6PQEQoA1IGhUBIuzsrCwtWrRABFfC/WfNTatbyOcY+q194/dGR4+IbvKkSYax5+aGdOfM3/MvvGgWKhtv0sQJFz97Sffde3dLW4747fCRAh08eEi33HyTQcwHDhw0THb8+FDiFQrMH7CQnz9MtbV1+u1zz2nSxImm3ry5c1rqATaOHis0IGZALtn2gtq3f79mzpjR6r2oTBAlAihuv/1Ww2jfefc9A2Zo0xkHoOejjz5WTW2tFsyfJ/qK1OCO229tae/QocNG4nD+fFWLeuX06SJlZmWaPjjFOTBffe11LV2yKGRBXVlpxrt0yeJWNMaWAyBB//cfOGjmZPeevYZGDhCjveKSEu3du1+rb7zeAA02/K7de1piXXTHurcAoTuo2v/a7C0Aof9Rtn+NKGqA0L+GH99oegog0EtuqoSCgzGfPHXK3L5hytzuUbNwI3cYZ8HRYxo0ME/nz1eqrLzciP4Ljxca6QMMLNzS/v0P1ik7O0upKalGxE/9EcNHaOqUyQYQEIGR6IccKEgfPB6v0Bt6vT5NnTKplY71wMGDhkEDShDNwZx5N+90bAqampuN7cDJk6ExoKrgN7fs6dOmGVQOwz9ypEDjxo4xKWJPnDxlpBz0GxQ+4+JYGS8iuMqqKh0pOKppU6YYV9xh+cOMFGTSpIlKTSGKYygICVKSTZvwxBlsmDdtASwqKs5f6l9TkxETozoBqNAX1B4ALKQVLaCoqUnvv7/OqMpOnjytMWNGGZctjCinTwtJTxzABu2QUAwaNFB+f8jzA/sIpApuRX1uV6oFCG4pdWXX66sAgTMANTeSuc5u49zWOxLlh884lydsl9jrtEdBbd5ZQRWByB+bCC4GnDP5+flGnN+RzRftIPnlQoPhK21z0cOIFXsKLlW8P1xNwXnhjA21CwGlkADjIIA0BQkkF5e2cTpQ/yOZ5CykT9AFKQLnqrGxKikx3jWxFAsQYqHaxWd6EiCEd3PT5i2GwSDOh4lu275TQwYP1ogR+WahUFhs6MMRlxccO6bRI0cqKzvbGPwsDLMBoB76ehjyjOnTDcMeO2a0ABmAhPSMjFDI5OZmfbD+Qy2cP99ILi5UVxs9HIv/ptU3tlh+U+/Q4SPGf3nwoEFmwaI2ANSsuelG41lAqa2r0wfr1mv4sGGG8aJWwIAHPT8Gl46aAPXBRx9v0uzZs8yGA5iMHDHCAKa5cy4tem77hO4FoLApuPXv3LXbSEjCY/gfP3HSiBVh1myomTNmauv2bVq8cKGhmWPBDk3Oni1XU2OjUU2crzyv4uISA2JQTziMHXCClIFDg/58vHmzZkybrrPlZZoxLQTaDMA7VihfUpLRtfI874Euq2+43hwCiQrPbAFCHBv6Cnq0rwIEYicQJwHvBiIzIpUjxgLMFNU3e5jPiNRIPZgndgxEagwvTz31lPHA44KFGB9VBm10VjBChUHfddddBhy88cYbuv322/WTn/xE3/72t9sBfZjyE088oRUrVhi3WTykeA9nE7lJGMcnP/nJVqpJAARjoC8AigMHDmj58uWG2b/++usmCyZ/33TTTS3dZLycKahnmFPOtM985jPmLOQzwAQAJhJg6mzcFiDEcShcLoBAl0GHMBhuxZkZ6ao4f15jxoxW0elizV8wTxkXw8WyKBHrXzVzht577wMtXrLIiMTbFqQN5efKdfDgYV111QwNzBuoV159zagdWlyMgkFhLbx12zalpaYZNQB6ezYZwGPJ4kUt4ASgAZAZP3asYcaAFYwd0duHFzZbUXGJaZfGMEwsPXNGI0YMbwETLFL6hycBjBlVBQuetnivIz1hgxQcParkpGQDFFCtTJkyqZ2HBe0hQUCKARhBesIYNm/ZopUrrmnpHtIONmt1dY05eED7GHYiGZkxY3pLuwA1JC979+4zz2Mgys/yq9u7dqJyuFB9wUhKAAXQZPeePbp6yZKESBMsQIhjQ19Bj/ZVgIC9ApcObuLsYxggjBsQwAWC35wpSBy5wOANAZPFyDG8wPAx5ub8YO8T06crbzxiANE+un08VwgFjd3Eyy+/rG984xstqs/wd/ziF78wAIHLEsyfdwBeJk+ebOwukIKEu00zJ0SS5JLHmPgOqQUSWP7m/fT3xhtvbGU0DghirPv37zeXN8AFZx+SBwIZMtYHH3wwpvPFAoQ4DoXLCRCcbuPl8Pobb5hbPAsJlYHzd/jQABTYLcDguiqI881GCQaMCiNcrB7+HBIBjA+5JW/eslWTJ08yngDhBaaK+B43TdwSCSXdUeH2vXPXLoOyeQYxPWCjo1s1un5u4HhzYJyJWxTShbZj3b5jp+bMntVlEC9ot2XrVkM3NjBjHdqBQRCbevPWrZo6eQoxlQwd58+d065/tIEkBEnBsGFDWwBO2zEDJgAnqIsAB8OH5Rt1SCKKBQiJoGL/b6OvAgT6TYAqYk1wpiFOhxHCIClIBxHrc5NGcogEElfTtkZ71IOJcsagMkXc35W6D4YNs0YawBkFs+ad3Pj53VG8GIIJ8m6YNjEd6BPSA8T9vKttYjf6iveGo04ASAAWyEfBhQhmDTgCaDjFiVLpSI7pC2PhXOTc4iyn3xh/xlIsQIiFahef6Q0Aga6E/INlxPjDhoYiXcZbWFTo/7uKusji4QejvY5dhUK9QN/GhujILagtY9+xa7dx1cS1s7PC7WDP3n3mFo4RZEcbOxpjWpNZ8KKUpatDoqysXG+/+67WrL6x06BKjoiTTdoV7aiHHhT10LUrr4nKIrqrubUAId6Vf2U831cBwpUxO71nlBYgxDEXvQUgxDGEPv0oEgzUJW6SSyVqoF0FV0nUO+JpxwKEeKh35TxrAYL7uUZlwQ8Xr65yDyExQFKBgTMqAW77Bw8eNBe4jowL3ffg8tW0ACEO2luAEAfx7KPdQgELELqFrP2uUQsQ3E8p9geI/bFn4ILgJJciPDQ2AXgy3H///Xr88ceNlwPqCIAE32NcuGbNGmOrgBoAGwNABM8Qpru3pxa3AMH9OmlX0wKEOIhnH+0WCliA0C1k7XeNWoDgfkoBCOj233vvPaP/h3aOMSS2AdgwkJaaTMd8DpAIBwjklyCdNTYPhJXGOBJggOFkbw3F7VAnaoCAVTzGIViP9qRo1/109lxNCxB6jtb2Te4oYAGCOzpd6bUsQHC/AjAuxHgQt0r+BhDgRukYKPIbN0pcGzE0hC8CBuCRuIEjLQBAUA+68x1qCEJL93Ye6hog4GtKEAesPrGMxMAKP9O77747YT7c7qesd9S0AKF3zIPtxSUKWIBgV4MbCliA4IZKndfBUBo+mOhAZ/H1KvFPuwYIBH3ARQM9CggIXQpuaV/96leNtbub8sqGvRpVtV2Trn9An//ad/XMP35KhRdSNTw3VYUVVUpLydb4Iek6W5+kyhMnNGLieBUdL9DwYYP0d49v1R1X1epUfbpumDdBKQNGqfxUoYaPHafsVKmy2q/cPKz322e+ctO3WOpYgBAL1ewz3UkBCxC6k7r9p20LEPrPXHbnSKIGCF/84heNnuV73/ue6Vc0AGHdjgLtfPtp3XH3A/rhywW6dclADardr+1HgpqzZr7K/PkafGq73t1drPHDhyh70hSNS6vUu5tPandJsv7t0bnaWp6igXWn9MHO3Ro+5xY17nxLk1NOaL932sWUyJ7upFerti1A6DFS2xe5pIAFCC4JdYVXswDhCl8ALocfNUAgQAUuG4S6xMAiGoDw4Y4C7dpbqPEZx7Xu5EzNHVygYXlSYUGj5q+ZqZHDpupnz72pq1NOqCx1rvJnTNWMPL9+9/4h7T7ZoE8uTdGLr6/TX337a/rN7/5H/kFDtCSlXC9vL9cNC/O1bPU9LoedmGpdAQTsNGyxFOhpCmBlTeTLzmJDoD+NJgtdT/ffvq9nKMA6IcR3R2uB78KztvZMj+xbeiMFogIIqBeuvz6UmY5kEmvXro0KIGzae1z5ecna/NabOtw8V1+4NUc/+ulvtGBCviZcc71G5A3U88+t1ecevEFv/v6Ahk6ZqCkD/Hp1w1HtO92ov/v8VTpRn6GSAx/pjY3Fyg6WaeGM8SqbuFoTyj/QnOW39SiNrQShR8ltX+aCAvFIEDDAwlKbCwAuWgANDgiYSH/Xtbogbb+qYiUI/Wo6u20wrgHCiy++qMrKylYHBT6gjz76aJcxrLut5xcbrmrwa/26N3TTshVKygilNO6pYgFCT1HavsctBeIBCLyDsLUkdyEBjHPLBCjgmmVL/6FAJICAt5oFhf1nvmMdCWcAAaK4JHiCTnzaWFu7wp5zCxAINUxwDSf9byLIhDcJIsJYCpMdKfZ4LO3aZy4/BdwCBLY6AN9xs3LiuwMQiADHd0gUSGFNjgniwhOSmvju8RbezfrFyJmCOJs9Eu3xw1gTpS7h8uOmLergvuaEDYeR8tMXCkAPv30YfySAYFUMfWFGu7+PriUI3d+VvvcGtwCBxBkcxIn0eWWzh2cCi4Z6odwNwYi5EaJp09btHRRwCxAAq/hst/VAgjHAvGF6MG3ag6k4GT0TNUrAh5PXHpexWPKHOMloEtEnot+5AdzsG35w8YaGAKm+ctN20pnn5eVZgJCIRXMFtGEBQhyT7BYgEEAjUqKiaLsRD0DgoHDSF0f7Xlu/d1MgXoDQU6PrqwAB+iBRwR4LWjOOvgIQ6DuXFICZlSD01Erv2++xACGO+bMAIQ7i2Ue7hQIWIMRGVrcSBAsQYqOvfapvUsAChDjmLVqAwK0dY88777xTb775platWmVCceJ6NmvWLOM6evPNN+vAgQNG31tRUaGrr77a6H0RwfK8o7d1JAiE70RPzAHHTYYIl9wQ+CEDGfpk9MroTqnH81aCEMek9/JH4wUIrLmioiKTdObdd981MehnzpyZ8FF3JkFgzWKvQ3Kcs2fPGluZY8eOGcNJ1jBB2lB9oPYIVzGgpnCy6NFZxoAawLHVOX/+vNlPtOOoBcaOHduiVnAAAu9k/3HT5nvUCQUFBWbfzJ0713zemQSBfu7atUu33nqrCSRHH9nfhOWlHd7N/uQH1Q79IdtfVlaWicvP//Rt+vTpZuzs4S1btpgx8D0qofXr1xvV4vz58825wTvYz/v27TPzxO+JEycKetAWbUAn5tFKEBK+jPt9gxYgxDHF0QIEDu8f//jHuuGGG/TRRx9p9uzZZvNPmzZNGzZsMD/33nuvOehwMyNyJXEnOLA4CDgsOTgpDkDgMCXNKAcAemOMzQATHBA8z8FC8hAOHdoh/rcFCHFMei9/NF6A8MMf/tAASRgLngus8QcffDDhKrKOAALr8uOPPzYx72Fuhw8fNgD5/fffN2CaRDcw5wULFhhGHQ4QqA8T5nP2AIwXw0oYNDSBecK0YdZ4aDBG9pNjFxQuQeC96OnZVxTAAe2wb9mvnQEE9i8MHVdw9jDjASzQHkaQ7GnUjYAX+kgd+sDepb+8kz07b948A4L+//bOLTbKIorj/91tS5e2QEuBtFw03IpYUxsQamtsiCSYNH3gYh8Q3302+GLAYPBBfeLRmGhCqCFKSKwpCWisJg2IJmhLkSJCQRAKabyPZAAACKFJREFUCFKwtEAva34DU5fSbr/tXltmkqab3fm+OXPmzDn/OefMDHTSb3hFSMPOaYASZ/8DegAx8AVwUV1dbW4UXLt2rekX856+b9y4caif4w0x3O8P6fbdAfl80oxgQDd7BhTw+xTM9OlW76AyA1JedkC3egdUmJth6vIMnwdD0s2efmX4fZoeDKT5DEoeeQA+ZAR9HZ6fZvNcwkNX1AvPY0OXA+KRN4Arso2tGF7IfwOM8tfc3GzuhIgmF84BhBjkYTwAoaGhwbSIoqKgIBholAuKg6tAKeEAoaWlxSgPQMJwgEBdLhJBSFBoHF7FKosbyGwyFQrGPstvDiDEMOhp/misAAGFAnjlnPnKykrt3bs3IdfSjgQQoB1ZBhTwO0YzHCBgEDGceAYo4QCB1TR/GMqSkhLzLCe+MneYBwBjDC7zDmWKZ42VuFXCFiBgyNvb20197p7hWXjBvLTtRgIIPGs9AIAJAEJHR4fpD3MaQE8dDD68BujzGXoBZXgO4AM5S9DCTYDQjfcBWo4dO2Y8DvSNeuiD+vp6o/SpC1CiPRYf6BRoqKurGwJ44wUIp67c1fXufvXcH9T8/CxdvHlfy4uyjcH/tv1frXxqqjpv9en4X73aUlGghpYunb52T+/WFOnq7X61X+k1wKJ0btAAhSe9YHjx7CKD/NmEXSvXFjhYPiGf6HbGnoK3GdC7f/9+rV+/3sgVHiz+19TUGE81wBMAiQwg84DcVatWmQUpQJUbJ8cqDiCMxaEIv0cLEBh0DDeTn8NoWJlw4BQrf5QH7sGFCxeaW79YIWDwUQQoFww7CsEKUniSonXBsiJBiSJIKD6EA8XDigPFSFsACRSNS1KMYeDT+NF4AQSUB8YG0IqBiXci3mghBmSf35B7DCjG3rrPWXHRP6skwwECc4h5gLJF1qGbeihHu2UP8ICRZ5VOf+gjAJ1iAQLX8gIAANR26yfggPlny2gAgbkG/QArdANhAIwA9EAf7eMdYGUP0KEeVwQD/vlMvwk/ADC4HA/v3+HDh02f8Q7Q7sGDBw0tVVVVxrPCXMdTAr2EH9Af9JsQJe+ibW4TRJ9QYgEIGQHpXl/IGPyz1+/p6ZlZql6Sp5/P39FLi3P1dWuXCnIyNHdGpn46d2cIIHTfG1RjW5cU8mlD+QxlZTiAgOEF7CFj2AE8ARTGjrFEjjHoyAaFsUR3251r2BFknLoAWOQAWbFhJkAAMo0N2Ldvn7Zt26Y9e/YYcID3DI8Cc4wCmEDe8HytW7fuEe3mAEIMyj5agBBDU4896nYxxJObk+ddsQIEgCPGiy1/GDXkDAUU7+J2McSbo97eFwtA+KqlS8Esv15fVaDPjtzQzKkBbVqRr7ZLvapclKujHd1aNGuKfrnQY0INRzruqLQ4qFefnSaezZkS0BsVBcoKOIBgPQgYbOYYXiW+Y/5ZQIk3wIaXWORZrxcjDcg9dOiQOahw586d2rp1q8lrw+jjSWMRCqjg/Yw5HgQWnJs2bdKuXbu0ffv2IXCMziBkATAdvhBwAMHbvBqxlgMIMTDPPZoQDsQKEBJC1AgvdQAhWZx+tJ3xAoTUUDt5W8WLS06JPYeE5Fy8XRaQ8zvhJjxeeIMw+nid7XZ5vGeEoPiOEBSeAjwK1gMF4MCrgHeC9+K9wgMF+Adc1NbWemKuZ4DAy6kcXkAbXg4X8UTJBKzkAMIEHLRJTrIDCOMbYLfN8X++ucuaxidDk/EpzwABdwbx73AXBMkwJETYON5YDDpz+YZmBwOalv/giNXRymAopO+af1R/d5cqypcrv+hBQh/l14v/qLQgpMycmWM1l/DfvQIEYqnxjuHGGmLAkIAsXZlcHIgGILCCsfH8ZHMh3IPACmk8dKTiJEUUJiEXu12YuR3vQ9ASNRasHolhw2t3UFKiuDy53usZIJBdzPYiYhUkwrEVqampySTXDD+udTQWHW2/oEXTMzWruEgnL13VyaZmrXmlXKcv39fp39u0YU2Z8opL1HqlV7nXj2vB8tX68tNdqlhXp6eKZqut4zd9/HmLdmwpUdHSipSPhFeAQJIUCjHas+YjdRCA4BWYDX8PdDBm8QYtKR8QR4BR/LiRR7vuOfyMfWKceAaTXZA/Eu2s3oBmEhCjLcRr4yXDgA0v278AA7hubcHoTpS7GPD2WiDmAEK00pZe9UncTWQhl4E56hkgHDhwwCQ6IFjERjZv3my2SowHIBQUF+m9D9/XO2+9rR0ffKTXXi6Xb065FvjOq7CkSvUt11Rb2Knp88q0+5PdKnnhOZU/U6rvj36jU3cX6M3VOcrOX5RI/nh6t1eA4OllrpLjQBw4EA1AiENz7hUTlAMOIEzQgUsy2Z4BAjE69ut2dnaaO+M50IdtNdEAhOYT5+W7fkHz5hfri6YftGbF8zrb1qpZc2arpy9XlcuyVbjkRV27068TR5tUMKtYN/9sVfbcFQr6e3X2fJv+zlupuqV9KphflmRWPd5cJIBgb71LRAZ4yjvuCEhLDrCiJplpNO8QK3fc+cikCy+l5RAmjSjkBDkY6QZL5ASvCHLk5YbLpBHtGko6B9AXHOSEpy7idc8YQw7iMBUf3kzId9EAhMFB9t8/cIHK51dooF99IanzXJt6B4KaV5Sr6fkP9mb2DwxIoZACAb9CId/D59jIG5BfIfn8/qQza3iDkQACCJ2sUmKU8QwtpLzTjoC05QAu5PC9/SMRyoqA3CGynV15MjmA/uWUTPbYjxZWIXSCx5g8FVeeTA5g6zm2m7wVY/NDESwZSoVDQMKrEKMoKyuLCWWGJP1x5pJ8A11avGSZfP6JcxRnJICASDlg8GROrFT22ksc3cllKkcofdoeS1acnKTPWKWSEisnEQFCKglM17bHAgjpSrejy3HAccBxwHHAcSAaDjiAEA23JDU2Ng4dczpaPC/KV7rqjgOOA44DjgOOA2nHgf8Afu27LTOUikoAAAAASUVORK5CYII=;" parent="sDDYBNbBu50_8kbClNVD-18" vertex="1">
          <mxGeometry x="5" y="111" width="327.74" height="179" as="geometry" />
        </mxCell>
        <mxCell id="sDDYBNbBu50_8kbClNVD-27" value="ABC Web App" style="text;html=1;strokeColor=none;fillColor=none;align=center;verticalAlign=middle;whiteSpace=wrap;rounded=0;" parent="sDDYBNbBu50_8kbClNVD-29" vertex="1">
          <mxGeometry x="70" width="200" height="30" as="geometry" />
        </mxCell>
        <mxCell id="sDDYBNbBu50_8kbClNVD-30" value="" style="group" parent="1" vertex="1" connectable="0">
          <mxGeometry x="490" y="120" width="331.45000000000005" height="269" as="geometry" />
        </mxCell>
        <mxCell id="sDDYBNbBu50_8kbClNVD-23" value="" style="shape=image;verticalLabelPosition=bottom;labelBackgroundColor=default;verticalAlign=top;aspect=fixed;imageAspect=0;image=data:image/png,iVBORw0KGgoAAAANSUhEUgAAA/MAAALZCAYAAAD7vHFHAAAAAXNSR0IArs4c6QAAAARnQU1BAACxjwv8YQUAAAAJcEhZcwAADsMAAA7DAcdvqGQAAN7USURBVHhe7N0LYBTVvT/wX5CHD5BUURQQNARQrBeNEJBarsQmFsQq2oAWLqbFagFrgyiS/EsppZdQfECpQLVyDdxQhLSCLUoll4eUAomYQq1RIARBQPGBUfDFw/x/vzNzNrOT2d3ZzW52Z/P96CEz58ycmZ2dnZ3fnDOzKdffcGMdmc4+6yxKTW1Ptwz9Ll3arRtdemlX+sY3vmGWNj8p5l8AR3W+j07TSgmwZ8ZrfQDCZt+H7ftuuOUA0HRCff7cfBeF8xn2+ndbqONZMO63k9e3kqNALz/Qiw01fTi7XZOLZOVCbYik3CualaMff0z79x+gt9/eT6tfWkMff/IJff75F2apwRfMtz+3HfXv15dG3TWCOnbsqAqbs4T+vEPiiEcAHSiYFwjowRPs+7B9vw23HACaVrDPYKjvoXA/v17/XnN6vW5fU/jHOq9vLT+BXn6gFxlq+vA3ZxML9wUk1bsNIRw5coSWPreCXt3+GtVyUK9P+c/oemnaL6VF/lvXZdKD+T+ltm3bGiXNXMJ/3iExSGDtlGIpWP329dAp2hpbf6PntyXwmFBvWmPLASBxhfP5TYZgxen1ut0G4R/rkuroGO6LCTW9ZzaOXtFA+39SvcvgksTo1w3oTwcOvEPvvvsenTx1SuW3OOOMM1TX+h/cOUJlNHfy8cBHBBotkgDVrUha36O5Pk51hVN/o+c3/1qFMTskAtmHrcnObTkAJCY5KFuTsA7bWT/v1pQMAr2WYNujcWJTaxw4bbZk2S0aDRuiufrBXSPoGxy7SwwvWpx1Zht1j3xz7FqvD6PWBOAJEtCjSz00e/gMAHhDsDOs5vI5btrXKdfIrcmzZLNZU1NoymU5CrUCcV05CCm2O9BFHLPfPHQIndmmjRpv0bJlS/Wwu+bGy8c18Iim+PYMJ6CP9fok8tmCrJo1heJ2OkgAOKkBSCzhHDyb2+e3CV+v76K/scxAX9H6606nUMKdHgCi77JLu1ErjuFFyvA7cuvmzXnU1VPrt7/2Fp08eUqlEydOczpJJzl947wLqXXrs9Q0nx77jHK+c4UaTmQ4AEFcRbNVPRpBdLQvCgSrL9D8btch0OKDzW6fJ9Si9PRhbBaIpWBvYKAdAgDiI5KDdHMS6RdSOGx1qipSGnzNhvtOxXp6V+yVWisLtMBw6TqjVR80M7HfgeQp9z+b+BB98NFRasFCBvJvvfU5PV/xJb3X8jL6/NyedMbF36R2Pa6mjldl0kXXDKRTXdLp/dSL6d8tO9KbZ3ehX81YYM6ZeGSz4rMZmboE+S8pRLMVOxoXBqK5PiLa9UEz5rQvYf8CSDzyuXT6bMp3VJJ8d0eF3h5ut0u4285hejPL+tUc7Cga7hE23Okj5rQga164mypeZD29sq6QkM7j2F1ieJFyR+7IusX/87QaCeQfWz6iN9u0pa9PfELVFeuo5vUKOli9g85q/Smd2eZLjiVO0WdfnkHHvuxA7S++krq0aUFLS+abc8dPkx1cmoFEC6JTkuHdjUYQbteYINp1y7jLZQSqL9D8jV1+sPnts4RalJ7e5SrFRLzXIRG2gRLg/fatWKByAIidcD53cT+IJJFQ2z3ItrZ/d4Z4W5yKgy09nOkj3iPCrTDY9G5eTLBprMKZ3r6ubpcBYHP3j35MRz74kIyQPoT33ttH/zsrn1Y+ejtddf7L9OuHW9Ir66+h9RsG0tq1vWltWWfa/PdW9I8NB+nJX79I2Tmr6NbhafTQw4+YNYCXBTpGxlMirlPYGhN4B9KYCwSxWJ9wxHL51s0Si51HVt2aGstaRzTqi4Rsp7h/0IK9+GhtbACInbgfRECT8wN1juDuPQn3COu5IzJ2zYQ16aGH6dz2qdS23bmOScpkmkRzVZ+radPf/26ONSRl/3H1NeZY9LgK5l955c/03/nt6ZULaukn3/iCrviPlnT2+x9S2++vpDNv30pnjfwXnf3UB3T2WUQDPq2jCX/7gtam1NJtdc/SjF//zKwluH6ZA2jJ//6vOWY4dOgwv2ntfWnM3XlmSb1f/WqG3zRW1s9pX67/HC6XtH79BjPXHX3oS9S0mLebvD57/n/x9tKvWdJB3p7W8tf//YZf+TreLtZyncShQ+/y9k2lf/M88VX/deG0rrIdZHs4lTklt6zbaTrvc0K2hd4nZd+VZYdNAlinFC9O6yKpqcRyeeG+6ZAAgr1heEMB4kd//kIliK5Q29TF96eqwv17o2t0+80co2/wpiUvIileiDf94Q9/oPJtW+nQwXcc045/VqppEs38J39HP/zRWMeAXvKk7MnfzTNzosdVMP+T+66hb3c4QSl7DhKt2k5ff32cTn/5CdGR40Q/Po9oJKcln1NKxZdEjxwjGtaGWuSdRTdVnqA7vm38Bl4wErRfccXl9LvfNeyaL/nHj9WqlN69uxnwG18SOpDS5bveqvIrlyT/SVD77P8845vunUMHzRJ3/wmp136xIVH83/+tU9vJKdDetnULv+ZP1N/bht9u5pK6oDHguoGqTKfNmzebpQ3t2rWLbr99OD3//Eoe00e5eCR/cjHHenHm1YptNOa//sscC03vKYHIvikBfDlvv894G0m67LJLVb6VLHM7LztSUp/fxYDGBLSNaZ0PxLo+sajfrikvIAAAAHhGqO9gF9+fYX6Nh/uNHLNv8CY4/UhI8rqb0Wv/+uuvqVOnTtS+fXvHlJaWpqZJNIO+/W2ONxc1COh1IC9lMk20uQrmz2j5GZ295d9EQ3oQ7f2IUt7ZS61Sjqqy0zd+SXXfeZ+oJdE5b/GednVLqs76nN75dmui37SjlPahF7Fu/TrKu/tuMyDl5fj2Wv8991IOojQJ4CS4/8Uvfm7mEHXu3ImDqtHmWL0333yTvvnNK80xCbwaTuNVOqiU7ff888+rYSf2hxx+79bbVABv9YtfTDWHGipevJiKZs6k2Y8+ZuY0DwWFhSqQ999//kvtawnN150uRmJdP8SenG1F84wrVH0RL0/2M+u+FmocACDZhTruuTjYRnQ8dk+q12tpT41atFOFsRbN5VhfvJsNYV1uoHWI5vqBC4E3uD2gj3UgL8xIW6+Uczp96jjR2ir64j/bEWV0oHMq3qdWrT8n+qqOzhj8PqVk8XQ9jN+6owta0CUdU+jC1I+p4pw6Sjkr2MfZSL/73ZPUq1dPDkjHmC2/zmS6G7Oy1HDx4iWqpdiNW4YNU934rZb8bwmNufuH5phBupGLX/3q12pYkkwnLfLjx9+vknTl1wG01Km79+vWYfkrrcXSa0DyZVhazO3TCev8kXZflwsh3/nOjZSVNThooC3T/fSnE9SwrMPkhx9Sw27I633zzbdUACvzWV+DsN7qIMNC5tF5kvQ2s04rSbP3fLCOyzyyTD2P7pEh+fKa5cKErkvK9LaU7Wudz1q/NV/qkVZxvY6ajFfx67YG8oFIfbr7vZD10N3y9XJ1t3yZTpfJMiT1vPwKddHJOn1UWqdjHXAHq7+pW9djsbgmfgk+1s0a47cwKqzbKWbbzPi+MMhCrEl4YUMBACQI9f3NKUWSkeWam+mDTBP1o7X+Kgj3dQDEgDWgrw/krzdLo89Vy/xnB99WXerP2n6U6PMTHBly0FPHAX6bFKpbxqmEPz3HeMK/neRy4yPaqg3RlWcco3//6301HogEOFdccYUKFJ0CUgkidWAtQbm1RdTNb+MLab3/zawiVYcE6kJa560XDiQYW7DgSbU+1Xv3ku6SL62wkqRMkrRmqx4AHJTJm6O7qD8ypcCsidRrmPzwwypfhmc/+qgalq7uejoJ2CS41vO7CRidyK0JN2bdqIadAm3pSi8Bq1yIsHY/t/ZyCMV6IeD2229XrfSaDt7165DWfQlOe3FwuuutN335ss3kNRvb1sj7ywurGlxkCUT3JJAk+4S8T7Isec1Sj+Q7kXWVMlkX2QZC1k/q0+t3/fXXq0Da/FrzS72vuJz/DY8E69JTQnfLl9sgZJniz7zPfZuXJ/kLeX96ZtEitW1287rI50Dyre+TCoidklc02frKu8VkUW4Wp6dzO3086J0wVmJdv13Uluf0hiXqmwgAEEuBDqphHGzVpGEenKNyLI8S++E/Hl8Hssx4fg0FWb7TA+ScEoQj0jc7Nh8cV8H8DZ+8QnQRT/rVp0TdeEVe/5zoo1qjMJXHJb7uwOkifnHlJ6k1x/spHMOfMy6Fdqx7S00WiATU0iKv2QNS6z3z11//LQ6i61vTP/74Y3MoNLlQIHUIXYexrI08lKJa+iUo/uY3v6nWyQj6A79ZMo0OlCVJMKhbhKVeHZxL7wEJ7IXkyXQi45oMFVzag28ruWCg67e2KmvGhZDLfRc47IG20PfMS5J6dFD59r631V83rBcMjNfwlq+ev65+kcaOHauGNbm/XraB9cKLkKBWbwsh74nQdQUjAbt2y7Cb6f33g18k0uTWACHrIsGyLMu+frIeUuZEWubD/ejJNrnl1tt8re8SwMsyxR28P+jXLfvA3r171XDYwgmQE6E7vHV9o74+DvUF2zxOZaGmtyeIk2Ab380bkwCfBQCAqLIe12Q4guNcjA6NMb+WH6h+fE/7HD/2qasE4Qq8k1m71usW+k1/188li/6HzVUwv2/Ne0SjOlDd5BSqe/CkCuxTNvOL+KqOUobwy+FEO05R3Tgu69+KUm7hvBGcd3VL+qpt8JU2ukkP50DTaH2XcQmsnfTq1csXDEvX8mBd8gORVnqpQ57OLkGoBL86mNTBnW6tDRREazpI1imc1nWZVuaRh87JcvSFAKsli4t9dfu11prkHnnZBjrgl4sLMh4oOJYLC3IBRLajvQdEILJesr2kpV0vR8altT5a7EF/U3DTM0Gvl9N7E4q0tOuWeUk6gI8bCaATIajXEm19whXJiYLM05QnGNFeXlOvf8x4eL8DAHAkx7VGHtvCPb4Hm95S1mQd9JzozWJPmlNeNESzPuu2i9d2bHbC2Sn0tMb09nvk/e+htwb0busXwad3FczfUZVG8/Z9Tsc5EKw750uqm1NHdd/hv09xcP8UVz+P0/NEJzg++upXJ6lueh19UtiWHk9vTfv2X2bW0pC0SkuAqVvedQoUkErrpm5BlW7yEpDKPe2azGMd13TXeiHT6Pu/dbC2aNEi1S3aSoIvadWW1mTRpXMXv9ZsWe9ggb5b0lVcuu9X/rPSzHFPXr+1K7skaXEOFGjLdpVbE+R1y3T2Lu66y7yVXDDQtxfoJNtF//KAtJLL9rPSFwvs76FcgJFbDjR5/6VngZDtq7e1cPplAycSlB88dNAcc+fCCy/0dbkXsh76IpGd3J4hF0nkZ/00ed8DXTARsk2k+3w45D0JtA4BRfLt2JgAurHfxk7zB1ufuH37x4D1pXjxZXl9/X1k5SUF/2IEAGh21Pcxp3DuodeHVJ00fYjViQX7SpeyaH/lB61Pyuzl5npGTbTra0ZatGhBH330kTnW0OHDh9U0sRH5GxfoYXdyv3zDgD56XG2Jv297hbb967/omxln0H0TzqL//cc59GZLoqPdOYBP53QlD7ch2sux7rI/t6V7V5xN1zzwBW0pv4n+VPqcWUtD0gJv7WKvGQHpejVsvWde7jdfsvhZlS8k8JeH4uly+ek1pyfVS8Cnp+l1eW8VAGsSxEvgqVtOpRXW2tKtu2nrAFXy1UWDxcW+B+JJcnvvtyYBoZ5XAlenlvdg9IUQfUFCk6721kDYeiuABOF6ermIIPfB6zJJMq+dvGbdxV7TPRBkW0k9ch+8rkMuCMgyZFnW1nzZZvIa5RcIdJ7xfharumT7G++1USYBsRv6dgWZxy1Zf7lAoZclvSMCdbPXF3Xktehu8/Ix78SvMdDHfRpvE+lqr6eX5IZ0wZdpw7pIpL8B7SlWGlt/uPM3dnnNmeyg0TiZcNr81rxQ5U6k3JqiIay6orVQAAAPCOf4qL43IvjyCDZLNL6LosW6HfBVkJB+/OMf09V8fu90b7+ky6/oraaJDb1ThLdz1NXV0f0/faBBIG9I8bXQT7j/p2ZeOGRdAq9Pyh25I+sW/89T5mhgf37+NfW7fsXF86my8s906tQhs8TfyZNn06WXDggaxDed0G+EBMXSshtuMA3JRYJ66XUQqfA+8k0k1q3euv5I6wp3/oDTB3idgV5+oMVZp3ezSsGmty/b5SonpFDbK9i2cnqdoeoLyaGCiLevTBjsBQAAJAF9mHN9bBQhjo3hHnfN6e2nJvav9GCnLg0EWUUpalBXoOn1dEHqC+vrIlR91vVyU6eb9YM4qX8zZX9LCXlOG+6bH9jdP/oxHfngQ/fBvHi2eC117XolnXnmWfTpp8foyJH36OjRo/z3EH3xRQ3N+63Rip0Y3G0gaVFftfL5Bi3c0HxIbwLpXaB7CUQiIY+vbr4RIw3Eha4/0jrCnT/g9AFeZ6CXH2hx1undrFKw6e3LdrnKcaXXMdS6a3q6UNsq3PpcsVTSqPrcvggAgCakD0lhHReDiHZ9wv5dHKruMA+zbk5hAuJlyeIa1BFoHfR0wdbRbV0iVH2BXluk6+dm/SFGrG+m2zcgOm+YDubDuuHgh3k5dGNWZ6qqWktvvbWRPvjg39Sq1bv0m1n3eC6QlxZ5aY2VruYI5KNJdtDGpKahu9hLki7xjQnkRdOteRjcBMmN+baU+t0G4onCY6vbZKzbJdrbyG19YS3XPF4Em8dVfTKRJLM+AEfYPwAakPMHdQ4Rm89GsNOLoKcfZr5aqyB1hKvB8hLpkBDu64zd2wZxEFbLvDdE8ZMLYYrWkSF53sOEfSXWID5eAbleB7fLDzq9w75nzfLN4zCd5je9+TcYPX2gaYPVF2Q1mlyo9XezLdxwVZ9ZaN0/heM8LlfM9baWCaP1YiH5RPsDAZBE5GNRF+KzEaC4weHeMp29TNPTNCgPtAqhPr4uPt5SFPXl2TVi/SBe3O4UVtZ5In9TI2qZTzyyAewJIHHIxzXQMTuu3HxbekqQz75f8I9jROKyvDfW96yxb5nr+WXCZPgsJKqEPRq61NgdESCJRfjRdjr9sOb5fX2b/L4erOXBPqJR+vg29fLAC+xvdrgfhsZ/L3o4mMcnJXHIjtj4nbFetOuDkOTb0/NBvRwTrAmaVCLvPmHtDjj2RJ91m3p9+8r6Yx+BJhbtr7VYfE0Gq68Ry5IA2prsAuU70h9fe9KcyiRZRHV5sdIUy2hWwn3jmnZ6M5iXvTJQSkSJul5ep3eOcFOsOC3LKUFEXH8buRTrCwLhHpIimd76F9zTb3uwtz+S9yPc96LRu59eqFQUw305qeltZ012gfLtrHW4mV6L1fR6/7DvmOEuDyAJqe9/Tvp36gN9XOIk2ClP0ADdzNefckluRLy8aHG7ohBCom3IhuvjomVe9jZrirdEWIdk5OVPPY5YEdPfKE3yzdIY1vfYzfsd7vSmWGwCpzqbelPL8qzJjXCntf6NiLxP1hRBZcFmkTLXVTbqhTRzYW3oGAl3+Y1dXz1/GMcagHDow2K0hFtfOB9rVW80V9afbjeIdfuBEuA1x3qxkKic3vlge0O4e4qb6RvulBF0s9ef6HglaBzZUZyS1zm9JqfUtLDXRoPT+xbsvQx3+iTntAPGYqeMyY4eqFIXC5O33Oltd72eMmFz2m8CbbBYCrY8p7Jw1i/c96+x77frHQvAu9zu5i4/Sk5tCMHaFZyC93AC+lDL8ysPsh5uRW15UVgXiBbrDudm53OaRt7QQG+qmzr95/f4A/AaR2+KZE8G2Tnc7CDJrn47OG2raCcA1xJ9p4nb4cO+UVxsJOu6Oq13WNs5bi+8CYXaYJFwu5GdlhdsHcJdv1hPbyfzN7YOgBDk4xXWcSyEcOqL5nKZBLTWFKlgs1rLQi0vUL4j/XG3JwvrspzqDZTvKMAyoLHC3aiRTm+fJ9AbH179zTqYB4AoCusbiYU7faKRVY/W6lvrScRNor9T3H+3RFmYG8XN9nRVpUwkKbwvVu8I9Lqa+vXq5bldrtvpwn3/Gvt+6/klabquSOoDSFDWXTwg676v93/+a+0jr5rVJUWH9RNoTbEQrN5YLLPB6VL0NlszZ92QibZR3a2P+p35P614zhwFAAAAAAAAgET1/RF3JsPvzAMAAAAAAAA0PwjmAQAAAAAAADwGwTwAAAAAAACAxyCYBwAAAAAAAPCYkMH8Gk4pKfdxSvGl6rkDaW410cCUgcQjapqBPI0MR1ui1+20fWgN12ljXZZ120VLyn1r/NZBJ3mvwhWrba631Zr7nJ/zOZA3zEBe52gvN1rcvtdexLuP7zXdJ69LvdrIxGL/bgz5bFjfJ3ll9v3bmCQl4nV3qrOpBVoHN+uWCOsPAAAAAOFx1TJ/Hae6PXOorq5OpfT8LZSfTrSlbgvxiDFRM2bfPjTkKaMgAOu2i9ZJdN1TQ9SyX+J0Hd3rWx95rxKJbKsZr/O/DgHH1omPGiMJzPpe3/tSHd039GnOkbWPrVgGWxLA0tCB/JpeUq/rij28D6/ZZRQ6sK+LfTzRjg333jaE1qyS98mwi1/vVnqdqlevMHOIXufMHldch+MaAAAAAHgGutlD07vqKr9ASqziiPDeeyXgutfI8ACOETkk5PWtDhz4esGbe4iuuG4rD/VQ4xLQ0pDkCWav4Je1Sy4gkVy1IFqxuprmzLmK9rypRo3cFaspfdgINQ4AAAAA4AUtTp04aQ6GJ1hLobT0paQMjEqX3WCsy7F3ebZ2O7d267bOsyuCLujhCLQsve3mVq+hofx3Kz1NKT0m+q1ntATbRsHKNJ6EUgbODTpNuKY+fAU9OvEqHjL2C1nG6zPm0m0Pz1HjWqD30Gmd9DYdeN99vn3OzetrDLkAMeK6p4mjQDVuXZ5eB997vUbW1yiz3voQaB2tr0fyh3Ky7idO2yBSclFi4tZ7eb3GmDn17K9JXpF1n03h9bPvw3rd5digh++bW7+ugV7/XM7X80Xz9Q1L51idOFCvXq3qlcC917AraNXTxj64h/+9aitH9um9Il53+7Ek0Ptq7fJvXZaQedbc519PLNjfU2NN6un1CrTPAgAAAEB8SQz/1edfuGuZlzY7deJuOzF1IieCK3rcR3V7Rqguu/RSHZ8IzjAKo0iWM1GW89JVajlz9tTRwKGv+06Mrd3OZzwtrafGybl1nhW0hHPqu99Gyrp9rEFcqGXl0y5ev6d83eKHPMXbK4qCbaNQ2097lCd86aqJahpJoW4hcINjR3r63tt4BVep8dUcXIzgLaSDYs3pPeRJqQcHeXtGrGiwTvI+LLnidXqK89bwUty8vnBZ3+vbVqVQ/hZ5z9LV9gy038s8NEO24RK1HmMm8riL90C/Himz3j4h+0k03xd5P/bwfthjxQi/z7fTa+rBr8m6z9Y99ZTfuNM+LK/jtjeNdZVbEx6dKDnBPyPRfH3S0WDrVb34Rb6pAvcR9CYN4X3tddkHq3epizK3qV4hsiX8RbLu9jLr+2rt8i/Lpevqu/tLj4EeV6jBiMnaWY/VkuRCkHXd3ByfpR6nfRYAAAAAEkdE98wHO7HW96PqE8qnh6bwObQ6NYwqWc69vBwawifkTLoGb713qjphF9IAZj+RlXnm8MkzDXlYjU9V/Ykb363bun0kkJSgIFbLCkewbRRq+2nSRXno09fxeXx0W+bmPDyE5s7g5XN4PpEjt/yp0koq26ie03sogf+9W1dQej6vq428D7qrtNvXFy79XkuAs4q3ixEeBd/vZar8JdLrID2s98D6euyi/b7Ilq/bkq9eV4oEnhzQB3tN4ZDXMcTsdWG9NUHqD/QZifbr00G0BNC9rpJ9iZfFC5FAWt8v7ySSdQ/2vlq7/L/OKzNi6giSWL5aLlNFoau/1Gw9VkuSC0HWdXPznko9TvssAAAAACSOmNwzL6eN+mFakqLd4hyKdCPVD/TaIyey1/l33wb35ES+rm4LjaEl6uQ/WK+McOiuz3PXrKY5r8/wBUVaor+Hsl1en7PEr1XTzX4vL4ujRzXcGLF6X6Te6/h16dbjeH2Wo/36dBD9+q41HGMbge0I3glXS3zahPfL6/1+TfVqGvH6Kho2ZBi9yeOrq/c49k6JhXDf02jtswAAAAAQXS2OHT9mDkZHLz5ZfZqu8gtyYkEvR3fVluDv3qclKLzN74Fe0pJLW41urDLPxK0yj/HU9BkqYjSClmhrymUFEmwbBStzsoWjq+vm7KHqXa+bOY3Di6erpubTxKETyYijJKdeoPdQgqGnrxsRcv8K9/VFQlpjx8i9/9VzfcsL1GVZd6XWPQsieQ+cRON9mSudC8wu1MamXq1aqoO9pmiQ+kN9RqK138l+M5HDZd7heJcy+rKr5T99FV21dSLvfr1UnlvB1j3Y+8pFchWBZoxZwfv96zyeTq/z+JuPcmDv8DmINrfvaaB9FgAAAADiT2L4Dz54P/ot83LX6Zw9T1EPPj+WFjVJjX2wm5xYWu8Dla63ejnSJVjyVvRIoaf2yNnwEHqYCyfSHM7vQW+O4WVfxyfWqoRPSl+SeZ5W84wgeeCX0UrXGIHWz82yZLqt996m5o/2A/CCbaNgZVa6q7ukqyb2cOzeHil5n+69bo5jnYHeQwl1XtqSz/vXVb71cmq1dfv6GkPVNOdhmjtmIg9XB9zvpcvymDeN9Z0o6/GSvBb374GQHOt+Es33pRdXntLjTVVXD05yr7r8pKFeP/trsq+LfdwtmS/QZyTa+53sN9dx0DxC3gyz9VuWT7zeRkO9GnMt2LpLWbD3VXoEyEFD9waQ8def5sC+CXoH6HVz2k+tAu2zAAAAAJA4UrJuzK5b939rzVEAiCZp9J6Rch9t2XMFR2/47fJgpAX7zR4D6ak6CdwROMYL9lkAAACAxHbjd3KopmYffmceABKDPAjR+nv3AAAAAAAQGIJ5AIgLucvc+lvy9z49lPK3vMS5sb1vHAAAAAAgGaCbPQAAAAAAAIBH6G72KphftfLPZjYAAAAAAAAAJKrbht9RH8w//+dSMxsAAAAAAAAAEtXtd+TWB/PoZg8A0bZ48WK67Tb8NjkAAAAAJKb27dubQ97i181egvlPPvnELAIAaLxVq1YhmAcAAACAhCXB/MGDB80x77g770cI5gEgdhDMAwAAAEAi08F8u3btzBxvaLJu9uPHj6cFCxaYY9GFuhtC3Q2h7oZiXXdRUZFjMC955eXl5hhEU2FhIa1btw7bN4j+/ftj+0SR7HNdunRBYwAAAHhWUgXz0e5ioE8sJWhA3QbU3RDqbsjrdYcK5qUcouvYsWN+2x8awv4XXbLPIZgHAIBAHnroIXMovh577DFzqKGkC+aj+UL0iZMOGlA36naCuhvyet0I5psegvnQsP9FF4J5AAAIRoL5n//852r47bffVn8vvfRS9dcuVuW//vWvkzqYb2GOQwL429vHaWnVx/T7f35Ac7cfocfK36WZWw5R4cYD9Mj6/XT/32roh3/dTaNW7aJZWw+bc8XPfffd55jsnKaRFI7U1FS/BAAAAAAA0Jy5DubtwZROkXKqy5oSVazWdfPhL+idT76kDz4/QV+e/pq+PHmaTvDfY1+dptNf19GxL0/RZydPcV4dfXnqa9q6/0MV+EfC6TXYk1s33HCD+rt8+XJfspM8+3Ru6fWpq6vzS+GuZ7LQrzvc5Fa484RTNwAAAAA0P9JqLi3mknQLulWsy5OZq2BeTtg5fmqQfvnLxp3M2wM0nUQiBgn120HWs/5vNNb1+InTdN5ZLWn8tRfTvVdfQOOu7kD3XvUN+lmf9nT/lW3poT7n0CNXnUVTrmxNBb1bUsuWrTj4/8Kc2z3jNfhvb3sKR21trTkUfdZ13blzp0oVFRUq6fxE3E9iTT53QrZ9sKSniVSwbStlkhpTPwAAAAAkNx1oa/aAO9bl8fK7J39Pi579H7pvwngqmDbVzI2+kMG8EVAZw9OnE6WkGElMm9b4gD6QRAvU9LoYrz/F76+QcqfklrTCnz51ms48g+hMflfatWlJZ7WoM/6eUUfn8t92rVrQOTx8nkzEvtZvTASMdfdPOj/RAjQJ4ocOHUrDhw+nO++8U/3VQT0EF84+KOzvvdP8Og+BPAAAAAAEYw20NR1w2wNxLZrl8SL34l/5H1fStddeSz3Te5i50ee6m70E8hK4ywm8JDP2ixkdXIYbjASTmjrXL82dO9csccdoDQ7vr9v1P8nB/El+O06dOmXm+Pvqq6/MocjJusg6CWMd/VMkggV7ItL3T6+rBPLy2r/88kt67rnnVFq5cqU5FdGiRYsiXkYg0a5PxKJON3Qrfjj0Z1yzrrseTrRAPr/MWDedFmTLetYYhUEs4EnyU7N5iCuwkZzU1HzH+mQoO3sBD9T/vJ9TXZKXynl6vags3yzxDuN1yUNhWhkZMdbUywMAAACItm9c3IHOPPds+rLuBPW++nIzN/pcB/NWclIaYeznSuMDTP8gXQfvtbX5fkkCnfACernAIOtk/DUuONSPO/9158tTdarb/J/e+piWvfWJSit2G2l59We04u2vVFq67yQVV3/FQf9Jc87w6ZZ4a9L5whd4uDBu3DjHe+B1HQsXLlTjgaYLRV/EOPPMM9WFjkAXO6LF7euORCzrjgV7QK/XP9EC+WyJ/nKly3+pWjdJhVeWcgCewaVcFgGZK5eDda5S1bdyeCXH4VKf4W88wXBaSZT2XTUuFxMKM2T7vKrGhYT0KzP4WFM5XNUxs7KWsnPf8LsAAAAAAJDM7K3jxcXFKknruW5Bt+YL3eK+ceNGX74uE4HK9TS6XFK8XNKpo3pCfvv27ahlq7PN3OgLGczLSajEeLpVXk7odYxtba1PNDqgtwbxdjqgd68+UPcPgAMF8uaGcunjL05S5e599M83d1NF9SHa8c5R2vZmDb36Vg1VvPcF/aP6Xdoi43veoZOnw6vbeN+MeawXS3TS9Hup3+tgnnrqKRo5cqQ51pAE8hLE28k8Mm84pGX+lltuodGjR5s50Rfq9UZDUywjmuyf7UT7rKs28MJ5NLdyJg9Iq7ihcm42FRLnlc1T49ZW9nz1HtS3njvZyynv1d1c5c1qfPh30+jF4n48ZMy3myfocaUE7mmUypH8G7mpNLNU1kGmMbzIk07O4y+VtPFqfHwah/p5k7lyrtej5LrJgux2/JrP5G3ZXiUqq/+CMnpIGPn5UmZpXTfeg7MblKmWeKkz2ygrzGhPxfzVlM/TonUeAADA26wBuxN7uQ7EdWCel5fne5C25AUql79C8uMZxGtHPn2HPk/5lL6gj+nYidj9Cpmrlnk5gdfBnY77EjmQ13QgHz1GgK4DeS14QO/O5ydP01cnT9EZO16iMyqep68PvUVffPAO1W1cQq23LKOTx2up7vUN1GrtQqJ/hNfCrQNIWc9gSb/H+q9buvXdSgfyTmWRWrNmjepmHwvhvN7GasplNZZ9XRNt3SVgHt5PAmajhVzjuJlqyziIzjYu6uVylFk58w3jeFVaywFpLucGbrXfw0U9+73BQ93VeA+u8A26kmfZo8aLecHZNxtfGrVzs6lM6u1uBO0aZ/Pi64+PEsz2K36Rp+tpZHhU4atElT1b8bb8hPJKP6EFsyXgbmFc5sg9m/M/V2VvzDxGZfn1gX5ufit+D85wLCvmOmsny/fJJzSzkuulr2ku10MUeQ8kAAAASAw6YLcG7ToYF9LCrjkF4pInAbukQOVStzWoj7fWLVtRi9MpdPidI3RmW2nEiI2Iutl7IZDXdAt9dBgButGabebwX6NlO1BA785n6qfoiD6+PJtq+9xCn12QTsdSu9JnA+6k2n65dLJNO/r88sF0Mmcc0bcCt4bbSfAl75ObpKfVfxvjrrvuMociI8uXCwyZmZlq/OjRo+qv1qZNG/r3v/9NY8eONXMiF48AtbHLlM+f1BEshdfrpCGpQ9P7iLDmJ4IeHGMb4bszCTLzOIhOG8/RIruZg+yVr/KBvuZvatyJtLxbu8xbySWAfm9wUB9GUC7zSLf9p2a+4Wup9yr5ikwb/6Ua7tmdt9WrX/OQ8VBOufxBNcZw2fivKXvuJ8Ywp37FrSjtu0ZwPpnLXiyWYaPlXX3tZiNwBwAAgORwRtsT9AV9SGd3+Jo+/XS/mRt9EQXzXhMooJf88AIep0DdKYC3/nXvi9On6csWrelky7Poi5RWdKKuBX11Rhs6weOqW/0Z8qj7czmSPcecwx1rgBcs6WnDCeSlu7xcTXvkkUfMHMOyZcvUX3s3+0i62EvQft5555ljhtdee80cavxFpcbOH4loLFP23WCpMfT+IKzrqoet5fEkweSeN6Rre/BWdjPMVFRbe7/ggbjUa+0yb2W/Xz4UCWQzUvOpcvhKDoJV+3VSkpschld+TqkZrXj/aE/Z0pW+5kyjkMmlkdSMNqosl9MbEsibgT8AAAAkL9013t6qLq3z1hZ6oVvvrd3mJUm8oVvg7XS5voc+3mb8bgo9/+e/0AurVtHxY5/RP8q30eyS2Pw8XVIG8/oeeWuy0w++y88Ppxt+w0Dd6KLu/9d/OndOnf6avjxxks7c8kdqvf4P1GJfJbV8v4Zavzyf2vztd1T3xXFq8dqL9NUfp9KJv4XXdV0CMKf0S474dNJ5WjhBvQTn8sGydqnXQbz1nvpwA3lZvmxPaX1/9NFHVVD/5ptvqiR5ulU+GoGl29caDdFalg7ag6VIBArktabcVqFI9/eVr0r3d/9WdonfU+Vp82X5ahqSLvImo9E9+H3rMs9uqdeYWl0QuFIuCKT18LtfPhTj2XzZ6kF6yRzIa/JcgNraY5w+oSulC/59bTjX+JqRr2TdBV9SGSdKM1r4AQAAIDnpQN4ta8Ae6H54a0Avw1Ju7V5vLY+Hz/p9TJdMaEtHh+yhd657jf7VYwMduvpNszS6wgrmjeDKCBIS6YQ+EhLEOwX5wfkH6rqLvf2v/3TuyO/MS0v8Rz2z6OP/uIWOpqbRp2edT8czbqMv+t1B1PpM+vrygdQm625q2XeYOVfjTJv2S1+ySpRWVyH7mSQdvFs/rNZ90CsBfVMtI9LluN2OUn8i7CfqkXczH6D8jEIeqA+WM/LLaCZxXvYDaprivJupZsFsVRboPnsraZgv7tfTN8/Kv9XQzXkSwGf73S8fjATyhRkSyF/Js0Xzdp/EJA+/W5At94Q1/Fox3oOTvD2Nlvpg0wIAAEDyCBTIS5CuWQNxoQN2SU7zW/MClev54+H89ufSl199RS1SzqCvvjpBxz//nFqfUd9bMZrCOpOSk3eJVSWYT6SAr+nYA3U3f937gt/sT9tepJIE7ymtz6KT53elk6mdKeWMlkTnXkh0UTq16Oj+6paQ98opGT0JjKTzRKSBoLVLvQ4oI/k5Oie6PmvS+Zpe/8aw1hdtsaw7FkKtb6K8njJpDi6Viwu5vv145hu5NL6skkuN1vPSudmUUXilsY/kpnJZqa/MiZSUlo33zTN8ZQbH45Vh3S8vFwCkc3lqbrFvvdTyPfhb827IA/8Kr/ycX2M7Thyo57bn7SwPsZN76uU9OMnb87Qqe0PKnpKfnTTKrL7LG7+430k8zR4AAKAZ093m3Ypl9/rf/va39Je//IU2b95MmzZtUumVV16h9evXq3V88q0Z9IO/fZceeeMuGr93GP2r7SbaeeYWOpb+Lh3tcYiOpR2hmg6v0rgPv0s/fnUY5f7xBlpa/RT96c0ltO6tl1V9FRUVqq4NGzaouv/4xz/S8ePHzTUILK7NIkbX9OApkRjrFN7fcH1j/QL6xt8epzZvV1LLd3dRq5UzqdVffqO62Z/cvMLoZv/ik2raFi7q1wGX/A2V9HQScOhxt6T7vHSjt987b80L9155t6zrqoKlRgr3tbsRizpjQa+n2/WNxvaOBgkkZZ11Gl8m618frEvLcG2t/LpFLc1Vr01yjG7hc2ulRd8Yt7LOo+uTGsvkKfkOD7Gz1yUXGazrpJPXWumN13WMh076DdvLRC0H7Lob/VzpRm95Gr2xPY1u9tYu9vY6eJRqy75sMD8AAAB4T6DWcWk9lxZ5awu9JvPo1noJ0nWgrvMClWtSLvU7tdpHokuXLpSWlkaXX365L1155ZUqyXBatzTqcH4qndPuXGrVqhWltvsGtfj6NJ0+fZpS+O8FF5xH7dq259iwjs5pfzaPd6BOXTpRl0suoUs6d6EePXrQN7/5TVVf9+7dqXPnzvTZZ5/RiRMnzDUIrEW7tu3MwdDkRFTix2h0s7ee3IZKicBpvdwmN1qfYVxXOf7Nm+h4n2F0smN31SJ/MvMOlaSlvuUV36JWN4z2dbO/pP1Z6m8osg66VTBYEvLX7TonEus669eSjOR1hrof3vp+BpsukHDefy/uKwAAAADQNHSXd83+83G6XPIk6UBc6DzrPMHK9XC0gnhNntclrfKlpaXqwsHixYuppKRE/WT2888/T29sfJ3ee/Vd2rfhHTq+/XOq3fwFpVSeRXWbW1LqGxfRma+fS5///TR9WfEVfby9lj7b+wVtXLWOXnr+r/TckhJ69tlnVZI65ae4Kysr6d1336Vjx6Sxw5nE8BdccGH4LfNy8o4T+Oh7qP/FdNXFqdTq0quoVfdr6MzzL6azU8+jsy/PNNLZZ9M5l/Sgtr2vo7bpfej6yzrQqN7fMOcOTb9vbpLWvn14v4koLe8FBQV+dTjlxYpeRlMsK57k9YWbAAAAAADiQQfs1kDcKtbljdWzZ0/q2LGjio3OP/986tChg2o4O+ecc1SM1v4b7alLp67U+eLO1LHDRdS6dWtq1aY11Z08Ta1ataQLO5xPLVu2pDNbt6H255xL3bp1o3bt2lGvK3rS1ddco1r3L7zwQjrzzDPp66+/plOnTqlf8pJ6QsHThxLIb7K60Z+/f4WrVDiwszlX7HzyifEb0V6CwBUAAAAAAKIlOzubBg8eTDk5OXT77ber24i/973v0ZAhQ1S689I8euCKyTTxP6bS/T1/TtOufJxm9JpPM65cRL++/A/0SOfH6Jc951PhN5+gydfOpHFXP0y3d7ubbrrgduqXej3169ePrr/+errlllvojjvuoO985ztqmW56G6fceuvtdatW/VmNSJeBaCsvL6cFCxagbgvU3RDqbsjLdRcVFdGqVavotttuM3MNkqfLIbqkK9a6deuwfYPA/hddss/JfYRevPALAACx99BDD9HPf/5zvxZzp9bzWJb/+te/pscee8wca0ha2w8ePKhayr3k7rt/RIfffY9Sxo2bULdgwZM0fnzDBzoBAEQCwXzTQzAfGva/6EIwDwAAwUgwP3r06KgG5yKc8mQN5gsK/h998eVXlLLxlVfq3t63z8wGAIgep2D+xhtvNMcg2iSYx/YNDNsn+hDMAwBAILpl3okE3MIeiGvRKpeHyiVjML9j5066JuNaI5i/uk8fMxsAIHbCfagiACQ+BPMAAOBEgvlEgGAeAAAAAAAAIIl4PZjH0+wBAAAAAAAAPAbBPAAAAAAAAIDH4AF4Cejuu++OyU+GAQAAAAAAgHdJrPjKpk3198xLMC8/1wPxV1hYqJ4OLME83hMAAAAAAAAQOlZEMJ+AFixYoB7AYA3ms7KyzFIAAAAAAABorgYMGBA8mO/fv7/6C01LfvtY3hgE8wAAAAAAAGDnKpi/7bbb1GP65bdj8bdp/h47dgzBPAAAAAAAADiyB/OOT7N3G4Dib/T+AgAAAAAAALjlGMy7DUDxN3p/AQAAAAAAANxCy3yC/AUAAAAAAABwK+la5idvaU8pKSm0ZXKqq+kT5S8AAAAAAACAWwnbMv9P/ps65FkVmKempqq/k/nvJ5/8Keh8Jz4zAuPPTnirhwEAAAAAAACAWwnZMv8n/puROpn6bZ1IdXvmUG1tLc3ZU0dPUz9qv6Us6PytzzEC43Nae6uHAQAAAAAAAIBbCdkyX7ZFAvKn6QfXcUB+wX+q/B9e8AkH9BX0yWeX0rMfSFf6TF+Lvfz9Z1Gmms7eMl/0z0+4fIhvuj/9MMW3nNTJW/xa/uPZNR8AAAAAAADArYRsmdcB+cStxIF2hi8Al4C+/fcL6Itjn9BL97ZULfYv1dXxlHk0ofBV+uSfRX4t8xLIF2YModK8rVTH0/WbWUm5xaQC/yHPfkD09FDaM+c6X8v/Zyf6BV2vWP4FAAAAAAAAcCshW+af/T4H5Hml5tqQCsCl5XyI3DPPAXvBNe1p4Ow1avqBPD3dO4I47qf2773t1zJf+PstPLSVvj/iXlXvNVdfo8ree/tV2rpzhxou/eNWrucDdaHg+89WBF2vWP4FAAAAAAAAcCshW+blb92z3/e1mBP1U+slAfuW3xeqcmsXeWlhF59wBG9tmefIXg2nDH1aTff00BQ1vuOfRHv+30Ee6keFr8qFgh6qXHfVD7ZesfoLAAAAAAAA4FZCtsxPfvYD1QIv49JiXldXobrICwnEn51sBPC6izzd+5Iqa88RvLVlniN7NVz30r1qOulqL38LKuroggt+qOq1zv/KX1/l5f8z5PrF4i8AAAAAAACAWwnZMv/PL45RakYhffKnHxrjnP/qX19R61Yw/V6aeMLogn9Bl170AZfTP40u8/aW+Zk/GchD11HRtKe5ng9U/fLwvD/9MJOGTN7iu2Cgp+PqePyakOsXi78AAAAAAAAAbiVky/wfC64h6jeTUnOLVVf6jNRU38/UfTJwNs35f9/nteynyn/A5dTyr8Z621rm5d76mZVrqPDV63xd6Sf2SOFA/1XaeuIzdcFA6i/MSKWZ/bbS95/d42r9YvEXAAAAAAAAwK2EbJm/gP/WVRT4dY2v4L+fXGC01Ouu9zq/ds0aNZ0E+vLwPMn//rM8zvVIQF9ba5Tr+gbO5r/mPfnWrveffHJB0PWK5V8AAAAAAAAAtxKyZb45/gUAAAAAAABwKyFb5pvjXwAAAAAAAAC30DKfIH8BAAAAAAAA3ErZ+MordW/v20fl5eUqo7CwUP2FptelSxc6ePCg+rt48WL1nmRlZZmlAAAAAAAA0FwNGDBAxYqvbNpE12Rc6x/ML1iwwJwM4gXBPAAAAAAAANgFDeaLiorMySBejh07hmAeAAAAAAAA/NiDecd75gEAAAAAAAAgcSGYBwAAAAAAAPAY3DOfQMaPH68eQIhu9gAAAAAAAGAV8gF48gA2aHrr1q1T7wGCeQAAAAAAALBzFcy3a9fOnByayqpVqxDMAwAAAAAAgCM8AA8AAAAAAADA4xDMAwAAAAAAAHiM54P5hTVEqak5tDAnlcd4BAAAAAAAACDJxSSYL+OUmprPKdUv1SzMMSYAAAAAAAAAgIjFtGU+k1NtZRFV1tbySBFlFFQgoAcAAAAAAABopCbpZp/GKXP4TWp4766KBl3jpXN8as5Cyknl8ZqFlF8m5alUlp+qhvMln8p8+TrJ/DfRQqmWdqk65vnK9EUDvSzrfNYLCqlcqbVMlins8+l8EWgeAAAAAAAAgKaQ0PfMP1pFVJxrBN5lZS/ycCoVZRLV1lZSqbT2U54qE1UVnP/7Xr78eQWcoTr8E5XyZLWcr8t+ImU1CylHIvbiXKrkSqW8qFLKM1UgX5CRw/NVqPzMokrKLZZZcgLOAwAAAAAAANBUmiSYl5C6omCeGs6+uT4AD2U4p9ra39NcDppzX7xZ5Y17WOZPo2wZXjuXXqZxKn+4xNNpN1F3GcnsRVXyt6aaxqXxMueulTE1D+XdTBLm095dVLFrrwzRyyslp8Y3bcE8tca+de2dLn0LjF4FgeYBAAAAAAAAaCoxDeYl3E3NKKDcVOmGXky10kSePVeVuZHeW/41AunGsHaLl1Z1regBCe8zSRrqU1MzVLlfF/zcYpUnPQJEdRVR5QPVPBR4HgAAAAAAAIBYS9n4yit1b+/bR+Xl5bRgwQI6ePAgtWvXziyOjLRr56bmc8hbTGsrizgeN1rPNd2NvSizgsatraQaDtgzchZSZkWBmj5/7zgVQBuxv3RjNwJyCcTtFwRC1ZU6L93XLT5t3NqA9eh86cZPvbnOYgp58cE6jyy7MRceVq1apd6DwsJC6tKlCy1evFiNZ2VlmVMkvt/85jfmEAAAAAAAQGJ777336NSpU/S73/3OzElsAwYMULHiK5s20TUZ18YnmNfleVw+t7aUx7P9pncK5o242bhnXgftL+cvpJseIMrIWBkymJfAvIYDcykjLpPxnBdvprXS0s7rZ71PvvqBWr8LBBKkS3n6vBx6lB52nEevZ6S8HMxLEH/uuefSI488Qr1791brDwAAAAAAkMhOnz5N+z6qpRt+MIa+en07LZw/3yxJTAkRzAt5kFxFQYYalsbwisxMDsArAgbzQgf0mgT2N/2+KGgwv5DGqYBbOv3r5RAvR4L5VLkPnwN9zdrCrgN1mU+T9cml0oDzNIZXg3kJ5EeNGkW5ubm0eseHZi4AAAAAAIA3DLy+F715+AhNuCEzoQP6JgnmIXxeDeYXLlxIS5YsoRd3fGTmAAAAAAAAeMvlA9Np1L330pyRt5k5iccezCf0T9NBYpNWeela/+JODuRTOAMJCQkJCQkJCQkJCcmD6a2t1TRv/lP005/+lDO8ocXu9S+YgwDhk3vkU1JSkJCQkJCQkJCQkJCQPJ1OcVTfsmVLM9JJfC0O0RXmIED4OnTo4PhBQEJCQkJCQkJCQkJC8lI69XUdXXTRRWakk/haUOdO5iBA+M4880xqwTs+EhISEhISEhISEhKSl9PJOjPI8YiUp1e/Utf6w/oH4MmD1yA+vPYAPLln/tVXX6Vn175h5gAAAAAAAHjT19+8lH5/6w3quWCJKOjT7CH+vBjMF5e9aeYAAAAAAAB405e9u9Gi2/7Tm8F8UVGRORnEy7FjxxDMAwAAAABA0kn58DCtW/hbOvxm0/bs7XTFlXTjuJ9RXYfgt5gjmIdG8WIwv+T/3jJzguvW6lM6efKUSidOnOZ0kk5y+sZ5F1Lr1mepaT499hkda9teDQMAAAAAQPJ4fsIYmvDQvTTwumvMnKaxZes/af5jT9Pt85eYOc4+6XUJLbndo93sEczHnxeD+f9dt8vMcda7fXuq+rQFtW6TQme1SqEzW7eglq1TqGUL44mRn50mOn7ia3r/+Nf02Vcn6JN1/0vfzBluzg0AAAAAAMlg8Z1DadW65+jzt/5l5jSNsy//D7rtxjvp7udeMnOcfdCjCy27w6PBvDwAD+Jn/PjxnrxnPlQw3/F0a3qzTVv6+sQnVF2xjmper6CD1TvorNaf0pltvqS6ulP02Zdn0LEvO1D7i6+kLm1a0B0//bk5NwAAAAAAJAMJ5leu/SN99tZOSkkxMy1PkJdBya8z8/QkMiB5vnHFGKvj/1RddfxPCk+kKlFFxjA7+/I+NDznB8kfzB88eNCcFJrSunXr1HvgxWB+6YbdZo6z0+8cpHnLFtHZp1+nH9yeTv36XUCX9ThNrducpJYt3uPP2EcqHT9+jGpqTtFr5adp5co21CM9l64fMdGsBQAAAAAAvOzZEUPoz2uW0Odv7jRzLFRAbgy+8Na79H/V7xsj7DvpF9CtV3SiF96051/I+Rf75nMiRedc0YfuGDKGfrhijZEZwDtpnenP3/d4MN+uXTtzcmgqq1at8mww/8eNe8wcZ+v+dy6NGFFHOUtWU8r3rqTPb0+jFvsP0ZkT1xsTtPqSKKs1Hb/nTGq79STRnM/oa84qS2tJG1Lvov/4bqExncWicqL1U3qqYdlCYzc8w/8OUuN2cqhYOXgq/bIknajz3UZmlMkytvMyxm7I5iHn9YjU3w4RbRs9ktd/aMzW/5d/2k/D9/O6T9pNs/l1EC03CtjSWSOJ+s+gUY9voie6zaeO368vi5TUNZnuoT68PE22YaBla0c4PXj/YqI3/luN/9eVRN99soyHuqlxLZz9AwAAAACaxv/kfpf+tPpZ+qzqn74AXBrUhTSqaz97uYr+tPwpc4zo+yPvoxsvO5/W7fuoQf5vv9vbsSXfh8vOufIa+v6wH9KPSv9mZjqr6daJXhjhnWC+hZkPELEWKS2Cpp/cdw19u8MJStlzkGjVdvr66+N0+stPODI7TvTj84hGclryOaVUcAT/yDGiYW2oRd5ZdFPlCbrj22c0qO/lwy0oZcqdtGzjIk7V1GVpNbWoeLvBdDqlSOL/WqRIcp6msSmWyxjapQX9amMptejyQ8fyxibZntdtfISueWideh09+XUsW/pztW1v/E01/c+U5Tzd32nOQzfQ7zfeTC0OL2lQRzhJlnfjvgW0at+dfnXZlz2G39f/mbKHy/7um+/Bwfy+j9mryiWlFMp7/4qvDj1dOPuHU/oXp+mDf9Ho14qEhISEhISEhFSfxNenTtHXJ07S6VNG+vqEjJ8yxk8aeVndvqEC9a+//lqlFcsWqkBe/uo8KZfpZJ46qcdMRj1cH6evzfpkmcJpnazphOWCghcgmIdGS+EANlg6o+VndPaWfxMN6UG09yNKeWcvtUo5quY9feOXVPed94laEp3zFn96rm5J1Vmf0zvfbk30m3aU0l6CPP/6Dh9KoS7frOThy9T40C6cP+CHftPYk1yec8qPalLLCL09Ei1t23aArs2S9b5UjVu3Vb8BKfQO3UUph9+mi3m8690/pJ3P/dpXHkmS5X1Pmsuz7qX3t73kV2Zddid+X9+hXmrZ7/P4kqLF9NxsHh/w375pnN77SPYPp9Qk+wwSEhISEhISUjNK2unTEmhz4iC77jQH45yMYSPv5m6pNLhrexpx1zie9rRKy0qe9A1LvpQPvTRVTa+SWZ+RdGDPdXK+5rRO1nQKwTw0Nym8FwVLp08dJ1pbRV/8ZzuijA50TsX71Kr150Rf1dEZg9+nlCz+1PTgaF5c0IIu6ZhCF6Z+TBXn1FHKWfzBstXX7zqixf++i478+aEGZXc+vpHu/M/uKu18vLsvX+jhNe/ydP+Zq6Z5hlNKi410ROadUOybN6Xi577p3Sa9jJ2cfvGfP6dn/lxf35E/5/qWYa37mQpenwmyDvv91su6Drq+lHd5Xh4OtK6RvC4ppw0b6KJv3ezL069D0nZev+u+uYxSLhmsxjt3JXp3XwYP7/dNE06yLu+6b3Wjyg2SX1+Xfdl3fE+WnUeV/Nq+8+8XKeW67/jKAyWn/SPYtj/Cy7duo2cqNtIs3t67aRnd+YMZvv3Iafvq92ZNhcxvlMkyfvFnrtOsT9576zrofPt7gYSEhISEhISU7El8WLWTdj2/lHat5MR/3zKTHlZ/uSz9n2uozxeH6K7R99PHH3/sSzIu+VKu6tHz8Tx6fmuSumSZwmmdrOmE7q/vEbzK0ZeaX0apqam+lM+JSO5rjQ+9PlSWb+ZANDl1UbGmzw6+zZHMcTpr+1Giz08QrTtMVMcBfpsUqlvGqSSF6BhX9LeTXG58gFq1IbryjGP073+936C+DE6/2zyTfrZ+GI38dndqUf5zX1np5Cwq3byPCjn9+S93UYtDi0m6bwvpCL+Th7fe+XMqfW6Ymi7lsX30ful8Wl3eggrTZqg8SS2um+m3zFDJ6GZvbAsZljvBM9826svmZayeV0mdUjZRdt6PaOffl/nm+7+/b6JheXfxel1Gi2W9Huul5sl7bh9NfXhXg/V/n4d/Nm4x/S7rRb91jfR1HeHU7d/V1KJLmhrX6z7yzhlq22b+vTsN+z3Px+sn5Z27tKDD/+7Fw/vVeLjpn4da0EB6kZd3I/XlurbSMH6NG1WZfdkpD3enjMnPGmX86rt8U7Yvv99mXYGS0/7RifMCbfvV5Zf5baP7rsvi/Wcm9aS7eHv+gtdhX8Dtq9c5ZbHM/4R6r0c+vIx+Sg+p6fR734Lf+8buY0hISEhISEhIXk/hqDi7G+08qzPNeezn9NVXX/mSjEu+lIfLaZ2s6aTXWuY//ZSDqiirnZtNmUWVargok2hurQzLg8EgGTl1UbGmGz55hegi/vB+9SlRN/6EvP450Ue1xsypPN6J/3bgdBGHw+UnqTXH+ynvE50zLoV2rHvLsU7p8v2np35EP1z+NuU+tItSyv+fyn+6PIVyr7+MZnJKoWWcZ66f/MfD7x5K4eBrF+Xe+Ss1XdlDl9F7b1dSl0tSaOZfMui90juM6W3pJZ4v9/o71DxPS90pGxtMw0viv8byevFwxqhfqOHM61LoAP2AUg7tU8Ov/oWHef4dXPbDmjJKue4nar2yeb1SrstR8wzj9dn9vZ/yPNVqXP3HdVfKdP9eTReP5DLJN1Okr0uSdb0lybr/afkv1LZ9lee1vlbZ7ge+2UO9Fp0XTtq69QBde6Ms61JVV8qNN9KOP/7KV66X/ad/vE1dePk/v/53vKxnVdmhf8t87pbrtH8E2vYBt5FluwTavlIm6zxsqrzXl6pl9OL3+uJvDVNl1vfezXuBhISEhISEhJTMSTujdRtq0aYNncFJ/urhM9qcyWVn0qvnpqmA/TczJ9OJEydUmvjQr33Dki/lMp1Mr+ozk1EH/7UkzWmdrMkrwbzE8EeOfEgtLrzgfDMrthbWcNyWmkP5OamUmpPva7WvWZhDXMR5C/1az/X0C3l64in0uJ6vLF/yg9crcmSC4lw1nJpbrMp0TwHpK5CaWj9PjuTXLFTT5nOh5MlyjOEcypFlyDTmOupp9Do2Vy1apARN+9a8RzSqA9VNTqG6B0+qwD5lM3+Yv6qjlCH8oeJEO05R3Tgu69+KUm7hvBGcd3VL+qptnWOdOt3SlYOn/Dm04+9/VAF3yqQ76PmtxTR/636iq6aRPJAuhadT62l+SDlcVtM8z9NIurZgv6rn+a0r6cmUOfT9b11KLcoLGyxHymX6cZxatMjyK5dlyFL0sF6effxaHj6Qfx8dKX2S/lS6n/p+ZxdPY9yrLv9Z6+QZ5P8G62+fTlKkr8u63npcL0vmPcDbVtZVlx/hpFryu6b58tymHZx2/fYp+ulvK9W6SNr12//kAFuWv7HBduvLy9911S3U4lC1Gi6T4fIyvzpDJev+EWjbO20j+7oE2r4NpgsyHuq9QEJCQkJCQkJK9iRSzjiDWp59DrU66xxqyUn+6uGWZ53FZWfTjlYX0a+nT6STJ0+q9EjhbMqo+0j91XlSLtPJ9Ko+M7U8yxi3JlmmcFonazr5tZos4UkM36N7N2rx5VdfmVlNo6qCqPb3vai0Vlpm82heQQWlcVidOfwmVV5TXaX+rnxZguMKuml4JgfsaVSQkUOleRVUy/NJqz/H5b6AXTjVKwH72nFpPFqqpqktzVPzz+W0sCabcjlAL8os5rxKquS8iswiysko8AX04lFeneLcHK6xgobzuoiyF3nhrKraCOBlHYlfRXOlApcg6Y6qNJq373M6/vHHVHfOl1Q3p47qvsN/n+Lg/imiunmcnic6cSnH9786SXXT6+iTwrb0eHpr2rdfunf71/fiNv57SLpfc3DJade6DdT5smvpIAfzl1z1GuenqRZsen218cHkafiwoYa7cEC1li6nIyt+56vPmn5z52XUa+ImOvIOB3oO5cGSWoZ12Fy2ffz66y+jF9YRdVv3NHW+8wGVp9erxTYOVnn8RV7/nFW8jgNv8pu/n0zHQa19/SN9XZ057b+qJ29Pedq7kWdd15E837y5vF7m9pYW6kuukjqkW359PW5SBb9vY6/6I63atonTAZUWclp71S99r9u6bHkPe8l72LWnWs+cH42l2x/8I0/LQbBZp2ynFtuMdfPlBdg/ZFxve5Jtf/0tfvPZt5F1XYJtX+t0bsYbs48hISEhISEhIXk5CWkpb3VOW2p5TjuVWrVtayTOayXj/Ldvy2P082lzfEnG//OsLx3zjXnMeqQO9dfMU3W29bXOO62TNXklmJcY/tPjnzX9A/CMuPcm6i4jmb1Ihe411TT8JgmGM+nllRKE11DFrr08JpMOp4J50oZeQdk35/Ffot7pRuC8d5dMawhUbyDWiwUSiKulD7+Jc3i2l1fyv4bhnGprf68uAKSPW8tjeSSxfA2VUcXKl33r2JzJfcPB0i//50Xa9q//om9mnEH3TTiL/vcf59CbLYmO8pt1Ip3TlTzMn6+9bxMt+3NbunfF2XTNA1/QlvKbaNz0ZxrU12VgC7rt+3votgFdaRynaem/pE53vkC3c/4i+iXnD6KD07tSylWX8/Tm+qn1JLqWh+/5829o3BxS80v652+6clDJdZrjl84ZxPXl+5bnOlm3hbk8p/F+l7TgwPAWui59KY/fqPL0et028S21Dv/4flea8OdbfOV6frn3e9oz9/D6X+5b35RtBRG/Lqkv5Tvfoff+8df6fMu6Sr0pE8fR6um/5PEDdPAgb//013g4zZg2jLR20yvU7zvX8nD9vLL8y3n5/9wk26IF7eJl3/Z9eQ+NbTBbtsEl96iyCfz+3vPng75tJClF3ueB3/HVJynQ/iFl35Ntn55Pd8q2N+t12kbyuncN/65aF9mOgbavWmaQ99o6HpV9DAkJCQkJCQnJw0mcceaZHHC3o9ZmanXOuUaS4bbG36zUOnrk/E9pcgcjZaV+7cufrPI/MfPrzPkkaDfrsATxRn3nqmUKp3Wypvrn3ntDysZXXql7e98+Ki8vpwULFvDJ+kFq166dWRw56d5eUZCh7pkft7bS17pelFmhxms4fM7IWUiZFQW0trKIatLGqfE8Hr+5tpRyU19UreYybWr+Xl9XeSup+6bfF1FGxsqA9RLXKw/Ak/mlZZ6y56p59fpVciVpKkg3us0X56aSTPbizbW+4ey55v3dTNdVVJRHBQVVqreAtTxSq1atUu9BYWEhdenShRYvXqzGs7LkN7wS029+8xt69dVX6a/bD5s5gX1c9RalpaVRcfF8qqz8M506dcgs8Xfy5Nl06aUDaPyMRWYOxNpfDvI/v/gefe9/5vHApSrPybuc5vzoDzT7VzzQ5ccqz4u+V7Se/vKfLxMN/I2ZAwAAAABN4bdDvk2Li39D77/C52IxJc0pwrgJ/sL/vInuznuEfrbm72o8kJKz2lFNXhY98sgjZk5iGTBggIoVX9m0ia7JuLbpW+YD0S3j0oG9euGL/G9Vg+7rupu8TuPW1tLLNM4sbTzdbb57L1mus7ybjQf5FRTImtb3FmjO1H3cIdJ5V15BO3a8St/73g9p1qx19ItfvEr33fdXys1dTIMGzaR+/e6hmc++TY+WVNGEX/+PYx1IsUm3XpJCm3PmUWXRtxzLdbqvaAPd2eOXlHLJvY7lXkh/PZhCP67+LaV8a5xjORISEhISEhISUuyS8N3TLvfK81//e+blHnfLPe8yLadWvjxj3Desx/V0Zh2t1LDkGeNSJpzWyZrwO/ONoLvaS6CcyYGy7r5e9IAE0Jm08FEJoI2AW55rV5Zff898MJm9VOd73/344mG5l57yfN36Vad7F93mjVUpUsMqjM++WQ03Z7zfu0qXDbyezujyDaqqWktvvbWRPvjg39Sq1bs05Ec/oNsn/NxxHqSmSY/94DLq+/8OO5bptPr/ZYWcJlHTe5xu+dEf6O/DO9Gtv5LbF+QXCZynRUJCQkJCQkJCik1qd8GF9O+9h6kTx1udvjucLua/F8tfTjKu0k23G+VqGh7mdLEvzxj3DetxPZ1Zh71OWaYs22mdrMlrwXxMutnrruiaBL03VxZRboju8BJQSx5xnu6er1vmJXiXbvrSGq5JF/jqB2qDdt+31ytkfebWllIZyUPw5Mn0xgPtJJDX81i73Nu70evX51QWKS93s3/pn++ZOQAAAAAAAM4O76yk1UW/pONHPzJzmkbb886nYQW/pE59MswcZ/PPaEvvjx3smW72MbtnPllxGK8uAGRSsS/wjwYvB/N/23HEzAEAAAAAAPCmuSln00f34J75pPWiRPMcyOun54N0SXG+5wQJCQkJCQkJCQkJCckr6TTumU9uc7Plp+qMh+/pWwCaO6cPAhISEhISEhISEhISkpeSR35m3iflf/+3pO706VPoZh9nXuxmn5ubS3V1dbT2Xx+YOf4+PBqd5wlA0xrcq605BGLDruPmEDTGD2gppUxPMccgWdRtmGYOuTN+/Hi6fsREcww0HHe9Bd8LEEs4HkQm3M9lh/NSzSF/M0+fSa9knEulpaVmTmJp0M3+kq6XmEUAAAAA4ZFGADdJLlIDAABA9DR4AB6+bOMHLfOQCHBF2B9aYKIDLfPJSVrmJVB306NP90BDy3xDOO56C74XIJZwPIhMc22Z9wvmIf4QzEO84UvEH07aogPBfHJKlmB+J6fnB0+l6SXdiTrLD9g2LRx3vQXfC94W7897KDgeRAbBPH/BFhUVmZNBvBw7dgzBfIJZVE60fkpPc4xo6ayRRP1nmGONl2hfKk39JdJp8nrqWzKa/vKP6USX/djMNXARlYzuZI4R/WN6X57kL+aYIdQ03/vDPto+7VvmGNFhXhZlzVbDXETTvvU9Htquxq36cpJ12nDiLiMjgaw5JK95BA/tMDJYpPulff+z7+9Zs57hcfkZj+VGBotkWQjmk5OXgnnZ12fzvm7dlycPI+ozabff52Anfw7CPSbLD7SunlBMw+an8d8aGst/iQapMjdw8u4tCObjz+nz7Pa7qbGf91jD8SAyzTWYx9PsAUIY259P+DbspnQaSUtLCqMayIs+nKZv4DoT5EukKUmgzVGpOeZPgnziIP3w4RJOh1WyB/KhppH6L+dAXpePLjlMnUaX0L4/SABP9OPLOLg//BffvDr1nf4PVZ6IJNguGd2TT1p60VLeLyXJ/rlmiZTuV9M0hn1/79t/EA/zSRIPy7JGl+ymUVN20ZFSuZgA4A0SbM/mYHvpLN6XLZ+bwzV88m/73ERyTK48RNQ37SX+O0j9DSeQB4DIROO7qTmfg0FyaHHoEH8DAYBrckV32uCptKi0mEYN7qmSfHnofDpUrKYT0oK6aLB8sWxSw6N4WKafxklPZ59PxkfxuK575+NGK6k9n8rlirR3SRxOHGiPnj7dyLBQMToH+bM5CCdy7p0Sahq5TrB92s9otrpYYJTPlj8czC+cJi3xsgIN8Wy0/a//R/kym62nQLxJQLJ+STE9Mf5qv4tKcjIyZP4M3ke6NdiXrONyIUDvPyo9XqwCnGpaTqNGz+R9Vfa1TWraQIZ0ltb6FbR6gfQKCD4tQKKQYDurioPs/tlmTv3nhvhzY2X93Ohh+/Fe058pucA2e/UO31/rMR4AYs/pu8nNeZP+jK85tMnv+1JYz+EC1eWbv1yOEXKON4KmTWh4nFjDeQCx0OLr0/W/pte+fXukOKaCggLznYBEV82p74GZvqvBqxfIieEmqh6WTTufm2lMxLZt2U99h+3gg/0gPsmb6mtN7TprNy3i4MkeDOnWo8nDlqvpnpCWIyrk/P0q/4nxu3zLXDRlF0/tzWDKaJD/Hv1FAu3u/gGzBNMlc/9A46ZLR3fnQN7NNHt4or7Sff6yHmaOYfR3s+gtGdi3V43bLeQYv+/2aZQ1ruFFhniTgCSdA5KOA4eaOe7JScmBKSN8rRjSKjmZ9tLk+Xm+VvixnOemRbFvf7kUMpJPZqT7PYAhNTU1YIq3DD7RX997KJ9Q38Nj4fVgsR7vs/jYvUCCBfOEX3qySH76sGfUZ0j/nS6fJbT0ATQp63eTPp9ye940hGoCnsMd4e/FYHXJMYKWyDHiUU4riG4oo8qNclHBONas37yJMm64Wg0DRFuDbvb6J2SQmjbhVwS8Rbp29bmzUA134pPEA9SLT+5qKOv6QbR9teRuUl8k1Rs3UJ/rR9L2cgk5l/tahQIFQzpY03V35DRkUh7nd1OtSh1z71f5+sTUi8GU0SA/meQWeX3vupUE6rR9D/0fXU6dOn2PUyeV/vC9TrrU1TSB9LhM7pDvy5PtMXPqyZxykSARW+W1rvJPZ7kfN3zqhOOgcRFDWiX7TKpv3QdorNpa5+ekBMpvSnIsfWJ+HpVQIY0anK1a1ty2nluP93LsrpZjt/k5EtIyN6CGg4fOg2kABwTEfwEgvnRvnHDOmwKdw4WqS44RQwrlGGH08rk9txttq+LjxKEN6viQvrosoovwAG60aHFGw9vm5UE2SE2bIDkMkyC9Nx/Q+QAvB//RJN06pSWIg/7e8q9xoL9I/undXQ1bHT4owdqOBsGa5K/n/FGD71EnoQ/KSWhV/dVjr5BgefT3/kAlo0sa3P+u7VWx+FtEf5X73H+r7mEv4TRt+2gO1uVBdvtcTRMsaA8kkVvltQPyzyEOGMKkuyCOmrJc7UPWboIA0WIP3BMhkNckoF/KAb20rEmi8WWOPaSCsR67dbfb2fxZKqlazsflbCpZPZPzsvHZAoizSM6bAp3DhVuXXCyXVv4jW15SjTkDei/HRT6ImRadO/MZHgBEhZwspt8wmHZuXq66Z2XcILlGAH+4Sv41uly9J/9UNezm3amL/OvcFUs6ky/d8IzvRFSdjEb5YXyx9q3J62m0BMuz5T53Z9I9XsLwHxvN4zKiXvvoktkcrPPA+oWupvmOZPe9hSaPlmXV3x8/TSJ26X5vI1VKq/wt0nP/su+ovEQjrQHVvYeqE4RI6C7BkqS78CIO7MMJZDR7TxMAKx3AJ1Ig70Razw5IK3sYF8esx245YV+6YQaljy9TT9HWf714bAZIBvbvpnDPm4Kdw4Vbl7TyS1f79ZuLzS72/s/mAIgWPM0eIMoGDOxGz6/mA/fGh33dqnS3+iOlT6rxQMGQ7rq183GjNV+6ea15vJiG9d+vrhbr+cWi0v2uuogmGgmtO3Ua7esaLz8rJ6F1p29NU0+ZlxZ13mLyjx+dv2/vW66mkcF//OXHVNJ3ut/yRtPfjDlt99IbMf40vwsEiUZONLLG5NGDcs+upeVPWgjXTJhKF9F+Dva7+7oAPy/7iOxnTB7AY30gj1w46tT7atXSaO1+H4rce79+yggaJg/hwxO7IYBEC+Rlv935eP3+LyJpMXM8dh/gz1kX/tzpvwDQ5OzfTbqVPdzzJqdzuEjqkvO+kqqRlLV6pq97PkAsIJh3Kb/MeLhPWX78H+QDTUuCIOlGqZ/4vb08eEumdGeuHnY/DVDd5Y2TRGnBGV0yg4Mw48nHB6b0pLElcn+VfzAkwZo8kGz26pG+rlydiL8IqJvKf3BBL5UvqdNGPpn0WLetw7OzVJd4a5Kfi5Pg+vA/pvt1vZeAPJRQ00hIfpgDeuvy3uoxrkHru26VN56nN07lJSppXdc/waP3Bdk/h4yR/aebCvZ1V/oB9DDPMVLNJycW1v1n22iep3AozzOI0sffo+aRp9nvLDe6DVv3dwn2ZVjm0z+L1zF3haoXwAvkQunsmqG+/V8S8XF4yPxnuDR4i5l1/7cfu/X98jv5WCx/0ZUWoOkE+27S51Phnjc5ncNFUpec99GwbOo7TAZw4RtiJ2XjK6/Uvb1vH5WXl9OCBQvUw9hicQ+3BMPFuf6BcFEmUfrwTMotqKDSPKLsuU1/JT9nYQ1VFGSEXL5e/1it56pVq9R7UFhYSF26dFEPxJPxrCzp2JOYcnNzqa6ujtb+6wMzx9+HRxOrZQbcGdyrrTnUNOQn5t4a3Yn+Ik/Eu+zHKrD+1vc4sKZp9OO/yO+9G63k1un28XShpnF6gJ2u+x+3/NXvwoHMJz0EDsvT9W0P5duw67g5BI3xA1pKKdNTzDFIFnUbprk+b9Dfc9ePmGjmJD4J1p8fPJWml3TnE/fYPZ2+qY+70Dj4XoBQpGflgxOKaemYvUG74zvB8SAy4X4uO5zn3EA78/SZ9ErGuVRaWmrmJJYBAwaoWPGVTZvomoxrm75lXgL42tpK1QVv3Npayh63Vg3HI5AXa8elxXX5AOBPwvLR+T/23fsupAd8yejJvqfMu5nGTgfyJZdP8wvkvdQqDwAAAIlPPwEfz5aBWIt7N3tr9/WFNTKcQ/k5qZSak+/7fdqahTlqWl2u853KAs0r9LJ0WsjT1pQZ01qXb53GOj8ANI3ZWdKV/DB1Gl1i3OfO6R/T36Ks2YfNKdxNIy3u+l75b3E6nL/Hr1x44V55AAAA8I6S5zap36hHF3uItYS8Z76qgqj2972oVD1AJ4/mFXAGcSTOpJu7tKTrsp9IWY3RMicCzau7yeueAbrcLlT9ABBdEpT/5TAH2LbWdMm33uvu9FN2oaaxl9u70As9jVMZADRvct/r9A0zYtrFHgCSz9JJg6jPpN3mGEDsNHkwL7FxampG0Fbv4RxwU9pNpJ4Jm9mL1C961VTTuDS5X32tjJHqtJJ3M0moTnt3yb9KoHmLXzQuBox7WL6Q09T849bOpXk0V+ULN/UDAAAAAAAAxFtc75lPG2cEzuFIzS/zdYGn4lwzN3piXT8AAAAAAABAYyVkN/tAJNCWALuyKFNdDKC86D5lMNb1AwA0V3iSffJat26delJ9qAQAAADR1eQ/TSct8+PWVnJOml++3Kte/UAtFWTk8DQVapoaniYjZyFlVhTQ2soiSp2XroLtWp64JnuuKiMuk/GF3ecGnTd/7zi/5Uv5y/kL6aabd1FGbrFafi5x8B6g/nya61tP/DSdAT9NBwDQvG1eMccccs9LP00HAADJKVl+ms5TwfxCGqfKOcImuTW+IpP/rahwFcxT2jjfsjRZl5sezvMF83r5TvUjmG8IwXxyyr7S+eAGAGBX9gaO89GA35X2lnj/zjz2F3/J9rv/OA+LTLjfRwjmIaoQzEOiwJcIALiFYD46EJx5C4L5xIJgHkRzDeY9dc88JCa5E9aeAAAAAAAAElUyxDAI5gEAAKDZ2clp2uCpRIeKjQwAAFD2cbpw8mu074XlRkaUxbr+5gTBPDReMlzWijE5aRzFJ41rJvTkof2+PJxIAgBExxFOoyYU87G2Jx9b+VgbhWPrmkNy7B6h6tSJyvm4HQCO682L/m5fJPsFbVJ52qjHN7naD7HPeMOicnmv3R0HEtWFT9bQhSMW+KVAwXSN/LP/KF3W+Tw17jQvbS9TZVYPbedpLdNEs/5w1t+1JIhhEMwDNJF0Ttvoav7C3mBkAABA1HTktHR+Hk3esJuHRqq8xpCT95LRPWnprF60lOuUJHWvWSKlxkVZALFe/imvDzzkIhCtftIYgaQwtj+pz386H1uWlhQS9Z9hlnjDOk5j/r6X3l/xXU7jVRozeTz1X/qRY0C8hoPyMbSHqG931Yo+5sDHfvP2HXUXXTibyy0BtwTyVY8uoPfn9lfTzJjL9f+RolJ/uOvfnKQ8//zzdZ9++qnvAXjy4DWID68+AK/s9YYPwONsPADPQq68Pz94Kg2Y1Z06bX6J+kxa4cubXtKddnbOo9lyZZ7qD0hLZ/HJKH9Z6Om6ju9O6xfMVGVPjL+aVnddQeunSGuAMd4xd4Ualumtdel63MKDVwDArUR8AJ712Ep8bJXAqmT0CM7doS6qTpcTcc4PdGyVY6m08j84oZieuOEl37HVToJ9fQxWhnG90txUZdQl395j1YWF0PBAM2/RD1yz7kOdNs6kIfMl8OhG00r30wB6mLYt6BX0O/4IfzfLfua/zzzD/w5S44Fgf/HXVA/Asx5b5D11On68x8cL6/FHyDHoMB+Dxm5wPpbYNdV5mATR/Se/RjOonO6bfRePfUPlC2kFX0Z/oxvvH2/m+JPg+q6RZbTs23vUNLquZV3L/eaRemYc+Fuj63diX/+yN8JrVpcH4KU4zPLfp7zxALyVK1dSjx49KGXLli11u3fvVoEjxB+C+eRk/QKY9lwaTb+zxvdFYD3ga/UH/vt53kHqJGDysOXUZ9Ju34np5GE7fON62iM8rfUE1FoW6uRAQzAPAG4lejCvg6ilsziTAycJwIkDcAmY7MdWKTvAZRLsr6E82sbHzuklQxscn4UcW63lskx6nIO1STMCHteDQXDmLfZg/nZ+v58fvde3z9nzQn3Hh7vPYH/xF69g3n5upt/TUY8TTaZ7VL6Qizu3H8j2jYcS72Be578/4ihR32yVZ2efdx3PK8F3+Q+O0mW31veM0q31L83pT9TpWpUXSf3WCwGafZrmFsxv3bqV+vXr5x/MFxUVmZNBvBw7dsxzwfz/OQTzXyOY92P9Alh0MI/6bu7JJ327/b7AZRrrlXvdgmQP+q112cflBNQavOvWpaVj9vIRz13rPIJ5AHAr0YN5Od7q4F2Oifo4K8H9Tj4mOh2DpWxNlxlBL4TKibtcVJUu+NZjq/347BaCM2+xB/Pyfk/bMlgFbNuv392o73g3sL/4i2fLvPX91ePW445uZEnE87ChL3xM9MdlfoG2eOow0QsTl3M+76WWfCuZZipPs+zbH6mWcz3+/sPn+QXoEswvmb2A3p/cw5cfSf1O7OsfyU/TtXAI5n/tsWAe98xDFMgnwZ4gkGF8zHm+ptDvYTf6S/6J8bt892VGcs/n4YNy794OGjX4HvWAlgflIS1m9z0AgOaoU2/5t5savkj+6c0n3w7sZQfkn0PqMU0NDOlMlDVrBY2astzTD8SC6BkwsBttX301rd88lfpc7//9Ha3vePAGOc9b35vP88rLqPIQ0Wh6iQP5e8zS+JLWbHmKvDw8btI7HAgv50DZFlC/8OrHdGu3jzg/zcxpaOrzfGys40B7AAfpbA8H3zLuRiT1a27WP3zejmEQzAM0MXlIU9cxebT9ufoge3u53Cu3nDrmSitQ40hfjqUbnvE9sElSOPfMAwAkk8NV8q/xwLr35J+qvWrYzlqWwcF6de+hdGQLn4QHIA/E0sfYrFm7aREH9vYnmkPzIRd41g+7n0bX8H5gC9yi+R0PiU/O89JvGEw7Ny+nbVv2U8YNkmtcUIy3yzi9P/ta9QC5NQPGq6DY+hA7CZa3/6OGcr51Pg817NoupLWdNv2NlkmnpQDd5ANpbP2h1j983m+A9Avm27dvjxTHVFBQYL4THmO/oOX9z0XMqau20jpvdrfr1EVageRJ90YrkHzxWx+U45a+GnyktP4puotK+SQWP3kDAM2E9fjZV46JNNJ3TNRBFfVveAJqLZOT8awxefTggh1+Le7SwrpmwlQ6wnlHSuWhegY5hnfqfbVq3a+WjIPOFwwguWVdP4gDN/4utwVuob7jsc8kH+mp8fxqfs83PkwdBw41cxPLY335n0HfpadW7OGBj1We2kMtPxlnJ93flzy6nGZcSnTj/XIvu6FHJ/4nRQL04CKt34nT+octCWKYBi3zBw8eRIpD8vKvCHj8MxAX+kRRkyv6NP5RGjV6ptFdU+63i6ALntQ7eb6cgPbydf3stJFPWjsPNiYAAEhCEmTL733LMU+eMD9dfsWjcx714fzRJTP4mGj8RrQ84G6sPM3evA9egih93LWXScv76JLdNGrKLlUuaTanIWOI3usvddYfZ7eN5vzCoXwMHkTp4+9R3e+N3x6H5kT2GadfPwj2HS/7qP8+g94diUgekCmf/2part7H7eXB3yd5z6uH3U8DaEdCn4P1veQbtEd1XDKCYetPxtnJE+anTizj8o/ovtnf5bH6lvV0CebJOUDvK8FBJ6Ms0voDsa9/uOwxjCSv8XsAnvw0nQSW7dq1M4uhqaxatUq9B158mv26f39o5tQ7/XUdHoDnUXgAHgC4lYgPwPMiPNDMW5rqgWuBYH/xF+/3I9qa8jzM/tNxgX4yTv9U3IxuexyfLq+fLB/qp+kirT8Qa/2RPM3+DIcn4M042QYPwAMAAAAAAID4k/vQn5q8gIfqW7DV0+A3cSA8Qh4y9w0VkNOBjxs8dM5NoC33so8ZcS09/nceOPyaypMu8/T3V333xzemfjfr31whmIdGs3ZN0QkAAAAAAOJvSF+iqft70IUjlqmHxqkHx/1xGb0/tz/ph8yt5eC77/5qX5d4rVqCcjpKU98mv/l99ZgPoJN72Hs/PJ4uzC9X+VPzF1D5DzjQN393vjH1u1n/SCRDDINu9qZ83g+Lc1OpNI/oxZtrfcPZc5umC6GXu9mvf6NhN/tTp9HN3qvQzR4A3EI3++hAt2lvQTf7xIJu9tEhLd23/mNZWN3cwxHr+iP5nfmWZzQM3391At3sXZPrOKmp+ZxS/VLNwhxjAgAAAAAAAIgZNz8Z1xixrr85S4hu9pmcaiuLqLK2lkeKKKOgAgG9h9i7pzS8xgUAAAAAAIko1E/GNVas649UMsQwCXXPfBqnzOE3qeG9uypoIb/zqak5DVrtZYdIzVmoxqksX00v3eRlfGEOT8N5MlyWn6ry82U6KmvQEyBH8msWqvmhMZLhowAAAAAA0PzcyOn95dmNuv88mFjXHznvxzBxvWdegutcDq4zqZjWVhZxND+OcjiCryjIUPerVz9QS+nzcih77toG0+a8fJNvOrmvXc9XWZRJ89LXqnveMzOJKioyKY8q6GaeJzdjJRVlVtC4tZVUQ2mUkbOQMisKVH35e8fhnvkw6XvmN1Z9pMbr1L+Gk6e+xj3zAAAAAACQcOSe+dYtW6j4xRrC//Kr1p66Zz6hgvkyDuZlnHi81oik1XRaqvGUOlVWxmUybR5P+0BtKQfm1Q0Cc47rVeAubf7WYD9t3FpVn9MFAATz7tmDeasTCOY9Cw/AAwC38AC86MADzQAil2wPwMPxIDLh7gc6mLfzWjCfEN3sKzilZhRwcC5BhH8gLwG87hYvgbymOmnk3cxTE7288EWuZCU9zLNJ676W3lv+lc77znqnG2XSpR8iZ++cYr26BQAAAAAAkGiSIYZJqAfg1dbWqmQN5CWAl5ZzlZ/nf4Uk72bjvouCAgnpKyj7Zonm3auqVo9joO69ZA0gYsnwSQAAAAAAgOYjCWKYhHoAXiBp6b2NpyBWVatx7QGJ5TOL1LAK47NvVsNOHh4nrfB59PJKaYWvUfVVrHxZXUhIu2k4/wuN4fHPQUKYVrqfjpSOMMfc28lp2uCpRIfkopa/YGUAAAAAAM2VPX7xYgyT0MF8kRGtU2puMf1EdcFfqfI11Um+d7oaNhrlAz8hUUpKa+dSQUUepaZmUAbXp++xt3bNh/B5ccePtiOcRk0opjUTevLQfpUn7MF0oOBa5qeNG6jjwKFqXASqEwAA6q05xMfKwSM49fQlKufjbAScjtmjeNxat/2YLBdireWRXJQFgMTh9LmP9JgCEGtxDeYlwK7lAHutdKF3CKilMb22dq3qYi/T1K41hnU3fHmAHhW/qFrXsx8wWujFXK5YprM/vE4vT8p0nXq51nkCzQ/OUlJSGqTmppJPJtPpJdpWdTWfBG4wc92T+Qfw/NR5sJnT+DoBAJLdonKiktE9aemsXrR0w26VJnNas0RKo3MRVJoMlpYU+urfdkMZ7XxcziiMQL7rgmzOf8a37AcX9EJAD+Bx1s/96JLdNGrKLnyuk1AyxDCe6GYfyItGNE/Djb7yMgIQF9u27KfxN/DA+EfpyBYOypm0rM+eUEzVtJxGjZ5J0nL0/ISevvFFcqWXNqlpZf4MmZ+6qXHhVKdmvWo8W9WzXOWLYGUAAMlCjrHrlxTTE+OvJuo/w8hkfTgNmT+Dj4XdgvaMkgsB1pa3UY8X+x2zrcdoqwEDu9Hhmqt5+ZuoesEzNHbWSM4dpMpk2VmzZtDqBTt4qOG8AOA9QzrL53qF73NtP5Y4jVtb9tGqD7Hk6WBet6CPWyst6IGfWg+xpe8xsabmxNpFXk7yKjdKxn7qyP9Onp9H6TTSvLq7gm6fv9s3PnbDbp5ikN/8WqA6hb5I8MT4Xb6WIOI6Q5UBACQT1Xup6iW/Y6db0jX/wJQRvpY3OVZOpr1+x2x9jLYreW4TdUrbwcsfRFm0i6i/0Uqv9e3Pdctx95DxkF0A8D75XK+Xz3W5akkMyH4eJq36i6bwcQIX9xJSMsQwng7mIUEkwyehEVaXE92eNpOocx5ldOYTPeITy/JnzNLQnLrYB6tTps+SE9jc+9W4VbAyAIBk01X+6RzZxXz1SN2De9WwtKj3mVTfum8l0xm9q4xWtsl0D0+7mw4fJOrUW1rq6ntUada6AaD5sJ+HyTnc+t5yDhf8IgDESRLEMAjmodGS4HPQKOs3b6LZq43umg9Kd6qqmbRzs/uu7U5d7IPVKSeQRHIC2VCwMgCAZHNA/omgBVx3mx01ZbkvSA/UFdZ+z7wE8qJTFz7myjNNHO7NV4/m7dJdDQNA8yHnYev5PGzU4Hv8zuEgMSVDDJOyZcuWut27d1N5eTktWLCAFi9ebBZBU5P3oLCwkLp06aLeBxnPysoySxNPbm4u1dXV0ZbdR82cese/PE0fHk3+BwjKfVHbB0+lsRukm6XRHdOat5Pznufh6SV8Utc5T5VZx6U71oIJxTS9kAd4XISqc82hQXR49Agelqu+g/zqXEN5Act0/aFkXym/HAEAEFrZG/E7zsvx80HpznqDtIKtMDIt7Me/YMdDuX+epvSkvhue4WnKXM0jZbO5bOksHrDcs6/rGst1OXXTdzK4V1tzCADCtWHXcXMoOpw+99bPdbBzu0UHefowP/92OB5EJtz9oMN5qdT2zDPMsXqFn7WiVzLOpdLSUjMnsQwYMEDFilu3bqV+/fr5B/MQf94M5j82c+od//JUswjm5eDed3NPX0uN0CeYS8fspZ18gmc92bOf/Mm4PXAPt06Z/gB/cUwvKaSd/KUSqMx+IhoIgnkAcCuewbyQY9x6PsYtlYfQ8TFPyHH18ISplDH/Hj5ublDHTSmTJ8/Tgmx1PJQT7mEHRvguAsg99DRzBM9zPz3Iwbz1GB0omBf6afb6xF0f4+V+WacLDIHg5B0gcrEO5uX4UDJ6BH+uSX2uredk9mPLEZ7efpFxEZePHbjB9XkYjgeRiSyYb2mO1Sv8rKV3g/miovqfd4P4OHbsmOeC+a0OwfyxZhDMB2sVkgP7gI3ZNGR+GQ8TVfNBXt5JOeGbVtrNN95XTkA3L/cF7m7rXFTeTZ3AiqxhHLCvHun70tEnt05lbiCYBwC34h3MC32ibb3FSAf31uPh6PFX07YFvdTxUF/41L/2Id3i9UVPOdb6jtF8zLa21DvR02vydP1wAnmBk3eAyMUimLceH4T1gqEIdGyR44R9/tG95Rc25J75hs/XcILjQWQiCebbOQTzBQjmoTG8GMxv29MwmP/0i+bRMt9Yox7fREuv5wO85Qsi3hDMA4BbiRDMJwOcvANELtrBfLzheBCZSIL5c89qGMxPOe6tYB4PwAOIE7lym7VaAnn/nzUCAAAAAAAIpcED8CB+xo8f78l75surG7bMfPL5SbTMexRa5gHALbTMRwda4gAih5Z5EJG0zLc/u5U5Vu+RY2d4t5u9BPMHD6rftoImtm7dOvUeeDGYr3AI5msRzHsWgnkAcAvBfHTg5B0gcgjmQUQSzKc6BPOTPRbMO3azb9euHVITJy9LSWmYAAAAAAAAElUyxDC4Zx4aLRk+CAAAAAAA0HwkQwyDYB6iQPZ8ewIAAAAAAEhU3o9hHO+Z90K37/wyouLcVCrNI8qe6/179latWuXZe+Zf2/eJmVPvo2MncM88AAAAAAAkHLln/vx2rc2xepNqW3j/AXixDuZ1IF6USTRubSXVUBpl5CwkqiigSs5MG7eWUo2JqNaI1tV8OQtreJIMFcC/eHOtL5h/tFelL18C+1DzJmLw7+VgvtIhmP8Qwbxn4QF4AOAWHoAXHTjuektz3e/xYLbIhPtgNhwPIhPu51KC+Q4OwfyDHgvmPdXNfu24NKqtrW0QjAfKt3IzDUQmGe43AQAAAACA5iMZYpiEDOalFV1a1kVqbjGlpqZSPqeysnw1XJbvf8VKGuJ1vtt5ZbLU1ByVZ69TWvZ1vr0MGkpx+A8AAAAAACBRWWMX/Z/XJGQwL63olGd0bZCu8tKiPpfTi2R0mQ/GzbwSyBdk5FBpXoUqzyyqJI77qWZhju9igHT3l7KiSmnJzzRmBEfJcFUrlnZymjb4YqJD5xsZFsHKAAAAvGAdpwtHltG+F5YbGZCwjPOOqXzewSe+AM1cMsQwzfJp9gXzyvjfCsq+OU+N905PU3/37qqgil171fDLKyv43xqSawPZc9eqPACrI5xGTTif1kzowUNtVB4AAMSPBCqjOFAZNbinXzpSOsKYIAA3AY5T3VTO80SBDoaHjlxAdPg1I9O0j9OFk1+jC0cs8AXLwYJnN4F1uMuLNr38dU/y8htB1yPrak0Pyevic7hkNK10v98+GGrfBoDk1qx/mk53w5cH6YnqKqLKB6p5KJMKOJZPTc1Q5dJiD4Elw1WtSFQeIkqntrSt6gSfAOKhMAAAiSCd09KSQlq6YbcvdcxdYRQ2krXurFm7adEUCXY3qbJo2F7HAerz5eaYYe1h/me/nJtEX1MvL1bKR51P768Yr1I5pyXd+nNA/zcuSa6AXgL5rguyef97Ru2Dkzk9uKAXAnqACCVDDJNwwXxaem9zKPZ0N3ydxq2tpbS0cTy8Vo3r7vq6lR6cyX5vT83Bti1taPwNPDD+PTqyxT+YN1pwLubUg2ZzIg76tUBlRsvQxbSm/Hwu60aLVFk7v+klUfnFMrmyiM/BdL6knY/LPIHzAQCaK+MYO5UWlRbzcbG+VVN6Wc2eUEzVtJxGjZ7Jx96ePO0mNe2acpl2hMqzB+2dusi/V/O03WgUz28NqOQYvGaCzBOeMYN60Jq/y1D9OccLr35MY779EX+5Rv843tTL027k9P7ybLrx/vFGRhRdxmlG/rW0hM6nfS+8amQmAdl/qxc8Q2NnjeShQSqvD6esWTNo9YIdPLTJt4/b91vjPMLoVTJb5dX3uLCWSdK9TZzrAkguyRDDxCWYvzlb/s0jI0Z+mVTH9opdnMOyb5Z/KbNXd/W3RprLwxRq3qIHZAUyaeGj0p3O+AKTW+XL8nMoR56mV7NQ5enpjOsLRld8aCglJaVBSnZy8kcb21LHgcdpwMCvqHKjZBhd7Y0Tw/PpifGtaemGPTSZE5HxsyTByoRqC1lyHpe9R2O57Agd85t+dMkeWjRFfkajHa05RHRgSjdaWnLUr65A+QAAzZ0cY/semMnHxt18PN3NQRBRRw52Js/Po3QaqVrdx3KZBEvG8VimfdSXZ3X4IAf0vXeogCr9hsH8PSAB1X5Vtn7zJsq44Wo1HI4hA3iRxEH0duOWP+lGTn/cTkNu76/Goy3c5Q194eOQXdl1N/2nJkv5xypPu/DJGpW/j+ez3grg63bP47qLv6RYdfP3osP83Z5Fu4j6q5Non778Vh3gfZcOGe+Ffb89wvutXKx6Yvwutd9Laz7J9ExfyNJl8plYNIWXYV64avgZAEguyRDDxCWYl8NQae1cquDwPTWjgHJTUzlkLqa5lUVmKdHv5Wb1zCLKKKhQXd3lifQ3U74qCyXUvFJcVLmWCioyfV3pCzKkq30F/0dqnXReUWYFZc+tVPOBM+vVLJ2S3epyotvTziPq/BFldCYqkWC5nMeZdL/PquJAP/eoGrcKViakC+eQQin7So3bp5dlre8tyzJa89UX7UHjNzLlhLLPpHfVcKB8AIBkJ8c/aWHXLY3W1kY5xva5s1ANd+Lj6QHq5QuC7IzjsUzbTY0La93rp/SkIWMkKOpGt+d2o21VElBtUC2a6avLqOPAoTJLWKTFuu8P+tJTK+Qi7Me0ZjvRrd14uFNsGhTCWZ4E8vTHZfT+3P6qO/uSb3+XA3Ppyu4fsEvL+JgR19ILcl3jcP22VRcK/r6Xcr51Pofyzq/nrqUf0fsjjqr6x0weTxP++FGDe/rd2CO3CtR9RJd1Nr6Xk4G+eGTdHzXjO9+4IGPfb43ziJf4POJ+NW5lLzPOMXi/LZdnSzl/BgCSSTLEMHHrZi8hey0H9LqL+1rp1p42zihkcpivXStd3o1yeSJ9drYxvfxW/FyuwGnYzbxCAnrdnV4nKavlyqx50vUerfIhJMMnIUzrN7ej2aula1oPepATVZ1HOzcbAbZ84RIZgbRdsDInMv16nn7U4Iv8liWG8Jdu1qz9NGpKW1UmSbrgB8oHAGgOJACx3zNP/WcYhY1krVtaMadJK+ahYnXRtHpYNh3Z8hJtLyca0Hs5UefBap5w3drvGxwIn89fADW0ZFuNCn6JvmEU2vTn4Fe3Yut0Fyeqk+DcHTfLk0B8+x+30/wfcFmna1XejNvTaKrMt327Grca0pezqQfte1WFmYpcKBhDe+iyW/uZOQ3Jve/U12jUcarDDVnXJY+W0TLpSGHWlQzkto7DVdLbw+j9YSX7JXUxeqXaGecdchGgIeMcYwefJ9zDqSefY/Tkc4yZZilAM5AEMUyzfgAeRIf0SLGnZCatLlmr2/LJ3Huc9qgkXdm3r5au7O3M+yhPyD8NBCsLJIuTdVmSqL/R0j62v5QZeVmzpAu+XFBoFyAfAACiRVr2q6Vl32wRzbp+kOpqv35zsdnFPrLWzJxOHMR2S6eHnq+mMX9/NWTwqx/8ptMyTuHc7+5medXS0k1H/Vq603k+IueWb2nxp293p7X/+IgHjJZ7uVAw5NsyFP0GEutFjcdHLqD355wXk/vx40n2t/Wyv5mt5ppcPOoq98B3dt6u+tkOgRjnGMYD9aJ98Qsg0em4pQX/49UYBsE8NBrv/g3+S2byxdl3mATHx4wMdhGn9b05SC9va37hGsNCptcPuQtW5mQYB+Xrex+lI6X1J0yLStuQ/C69PGDpSGn9yaJ8YXfidTjCdTvlAwBAYNauym7I8TtdgiizRVTuXS6pGklZq2c6dml2S3dTX7LpIw5+JRiObe9AN8vT3dYvnL2nQQ+AfYecbxsbMyDN19Ved7G/cYD7iwzh0Bc1ZswdT9vp/AZP6E8G6tkM4+/x+wUFaVxYP2UqDRsvwbr/Mx00+0UA47zDeBaBcY5RyOcMT6pxsaiU3zT8Bj00E9a4xTrsJQjmodFkt1eJ/9HDyUoeFrN+yfl0UVf/4Lgjp/QbjtOaJW35C7cNZc1619fNnTbLyYvxADr5Mg5U5kTqnTz/I3pwwQk1vaROG7sSdT6uThyt+dtG96Ahhcfpvf7vOuYDADQH1vvadQr10106UBrFgZLTk+s1a91yz/x0ebJ4Z/X4XlUHDcumvsNkwDmwcku6mEvreqyCX7tQy+vRif9J4YB5co8GPQEuu9V4mJqdtZu87mJPfZ27gkfLfbyeYx4eSXfx25eMD8+bntuNDowv4/3P6BYvT6aXh9cF++lF47xjhtq3ZR7aLPu38Z4Z5xh56uft9Gel08bsiG8RAfAaXwxjSV6TsmXLlrrdu3dTeXk5LViwgA4ePEjt2rUzi6GprFq1Sr0HhYWF1KVLF1q8eLEaz8qSDlCJKTc3l+rq6uitww0DxQMffkEfHjWeTwDekn2lPAwSACC0sjdwnNfkYu+DE4pp6Zi9YXdTbsHH3btGltH7D/OIw33e0rIt5eU/OKqCZ/u4VbAyTU8TjeWJQOXy0Lxb/7GMpnbtT+WXVPvK3NQfapki0DTy1Hza9Dd18SEW98031/1+cK/APQkhsA27wmtQwXlYZML9XHY4L5W6djjLHKv3kyN19ErGuVRaavxEeaIZMGCAihW3bt1K/fr1axjMSxAJ8eHVYH6XQzC/P4mDeWnt9iJ1r70L+BIBALcQzNeTnwU9PHoEjd0gXezDa5lP9GBe6KfZvzSnP+mH4D3EeY/1q6F1PO60zKcOE02duJz60kd+87l5PeG8Dvs08vN4/Se/RmP2l9Njy7/LY9G9VQHBPIQDwXzTiCSY7+YQzN/n5WAe4s+Lwfzud42DVJ3617D/A7TMexW+RADALQTz9UY9vokm0z3UZ1L4v8fthWBeSEC/fekyc4xoxqV84jv7Lp7+G47T66B6BpWr6fRT8t28nnBeh9M0gS4kRAOCeQgHgvmmEUkwf+kFRjAvMYzuYn/vex4O5ouK5HfeIZ6OHTvmwWD+MzOn3tsffI5g3qPwJQIAbiGYjw4cd70FwTyEA8F804gsmD/bHKt373tfeyqYxwPwoNGsD77TCQAAAAAAIFGpuIX/8XIMg2AeosP6KfDiJwEAAAAAAJoPHbN4OIbxC+bbt2+PFMdUUFBgvhPeYt3/Pfo5AAAAAACAZiQZYhjHn6aDprdu3Tr1HnjxAXjV7zW8Z77mfdwzDwAAAAAAiUfumU+7sOE98/e866175vE78wnCy78zv/dIw2B+7xEE816FB680b/oBMl7fD5LldSQ6PAAvOvBgMW8J94FmyQL7aWTC3V+wnSMT7naWYL57x4bB/NjDeAAeAAAAAAAAAMQQgnkAAAAAAAAAj/FkMF/DKTVnIeWkpvLIQiMT4sj6yAivPj7C29YcIho1uBunHnSktJuZCwAA2k5O0wZPJTpUbGQAAEAzp+MWa/KWhAnmyzilpuZzSqV8CdJVTvTlLKxRyyjLx32U0SL3zRupfhjqHeE0asL5tPPxHkaGxbTSNrRmguS3MTJcMk5KL+aT0vNV/SUzz6els07Q0g17qGPufjUNAEBzI8fGURywjxrc05d2Pt7TKHTBaf41E2R+HFchMTjto1Q+1SiMMlwAg2RXH8PUJ69JmGD+RRW7GwcL9W/Zi2o42taOS6Pa2lrKnouH9kTLydN1DRLU68gpa8xHtH21jNU/XFKC8OqNbSnjhhM89JXKc6sPp+kb3iXq/BG9x8PpVa2Jukg9AADNkxxTZ08opqWziJZu2K3SZE6Ha0ZyiftgPJ3T0pJCXx3bbiijnY9nG4UACcC6j44u2U2jpuyiI6UjjEIAcC0ZYpiECeaLOZrP5L9FpUX8bybH8v5XARfWSMt9jmpVz5CW+4r632TPL5OyVMrPT+W/Ruv+whxONdIKb8yjW+L1tDKu68znaVNzjPkk1SzMUdOCO7Wfn/RLn3ACf337E62n40Tl9U8orTzEQX5VW+qYe1SNG1fbL+bUQyUqv9iXL63wa8rP5/xutIjLdlI7I+9QGz55PZ+qqS2NGn2eKp82wb+r/aJyMlv/AQCSl3FMfYmof33gLRc+h8yfwf82vP1Ijo3W1s1ALfgDBnajwzVX89B+x3l06+Wi0mJfPgIraCpDOvN+P2sFrV6wg8c2qbxA+7a9VT/Y/qsvjlXTcj6/mMnnHu57uAB4RTLEMAkRzBuN8i/ScI7mb8q+iWP54fSoxPLm/fASdBdk5FAeVVBtbSlV1tbyNBL02/A8tbU3E+WVUkEFj/8kg6f9vZrWWp9dFU9b+/teVCr18lLmqZlj080/GR3/4hQd/7I+HeME/uSEkoYdp52b64P5bVvaUN9hrXnomPmleT49Mb41SVf50SV7aNEUKTNa8qvlnyXncdl7NJbLZR4xhIP4yfM/onQ6TktLjnL5fqIbDlDlRpnX6Lq/fnM7s/UfACB5ZXBQs773UFoz4R4eC94SL88ZOTBlhK91U1rwiaQFv6GS5zZRp7QdPE+3gPPIMbrvgZkqX1pKVy+QXCOwAog1o8GA98XysoD7tg7OJw9brvKf4HSYCuki3k+d9t+OnD95fh6fX4xUdY1V9QAkl2SIYRIimH9UonWOxG/iaD6N/8scfhOH7Rx7v7xSla98Wcor6IEiabsP3NXt5jz5N5sye3VX41IfcX2hGJPdRGquzF5UJX9rVPgEEDVZ1x+jw7Irc5Ctu9j3ud74TUx7K71xUlrfki9d6oYUSlno7vi3535F26p43kNt1RX39NVc78DwfnsTAMBr5JamJzj4KOEAZdTgbNXCOE1aEwPc76u+5Q/uVcNywbXPJGnBN/KlJVK3Uk6me7jMCGQCzSPH6D53FqrhTnz8PkC9eLnqgA/Q5Jz2UznPSK96ybefyudlyKQ8eo8GYf8F8LC4B/MqTF/5supin3bTcJU3/CYJwDPp5ZUqpKeKXcYBKS29t/obCamJ9u5SwwDxIFfOdZAtX6qjiQP1/kbwfvigXFVvzSeOF3HqQQ9KN/uq81RZuOSLu3rYcTqypS1tLyca0JuX0xnBPAAkPwlQlnJALy2Mkmh8GS3iwNzeSq67Jo+astwXtOuHiNnvmdeBfLB5ABJFoP1UzjO60g4+HwjdyAUA3hH3YN5odF+pgu3UjAJ1z3pBhtzfXkFGLM+BvtnSXlOt2swBPEl1tR9/VAXZ0sU+4wbJqG9pz+Ik3eilm71O1P9dozBM0gtAutqv33x+RA/YAwBIBrfndqMD0v3YoZVxbH855hoBe9as3bSIg59QXeMjmQcg1uTCfRbxvmg+L8JpP+3bRXqoyLMfACCZxD2Y113oK4sy1VPmdcosqlQBvnS1t7fUq3b6CrSyg/cMGPgVrd7IAxvP8+v6Pkzud+vNgX5pfWv8otI2fAJ6vjkWHukFUFJ1nLJW83LMrvsAAMlM7hXe+bj/g+eM3kkc5HQebOYY5AFh1ofUderCqffVdJE57iSSeQBiTfb79VNG0LDxEqgPCryf8mdAnimx83F5poTx6w9rHi9W98wHY+2yDwCJJ67BvFMXe00H8PIwunFpZRzc/1491C41NYMeTU3lIrTSg/eoe+HpON2eJl3fPzJzja6h8iC7BxecIOlmL6nTxq4Rd49XvQCGHae+w2TAeFgeAEAyk+Pr7Jqhvq7FqnvxlJ40ZP4zXOr/NHu54Pnggl6+6baN5ukKh6r7hwOJZB6AWLA+16GE98Ols3pRx9wVqizQftqRPwPyQLvZq0eq/Ac5daKZQfdfOZdIH3+P6rKPp9kDJKaULVu21O3evZvKy8tpwYIFdPDgQWrXrv63sKFprFq1Sr0HhYWF1KVLF1q8eLEaz8qSzteJKTc3l+rq6qjsXx/wnmRmmjibPjyK3/KPF7ni/uCE82npmNZhd9XPvtL4GUdonsreMD63Xt8PkuV1JDq9naFxBveq/6UTSHwbdjXP59BgP41MuPsLtnNkwt3OHc5LNcIXWwzz36fOpFcyzqXS0lIzJ7EMGDBAxYpbt26lfv36IZhPFAjmk5u0tMebugffBQQ/zRuCeQgHgvnowMm7tyCYh3AgmG8aCOYRzMcVgnmIplGPt6PJdBH1meQugLdC8NO8IZiHcCCYjw6cvHsLgnkIB4L5ptFcg/mE+J15AIiupZOORRTIAwAAAACANyCYBwAAAAAAAPCYBt3spXs3xAe62UMiQLfk5g3d7CEc6GYfHehW6y3oZg/hQDf7ptFcu9n7BfMQfwjmId4Q/DRvCOYhHAjmowMn796CYB7CgWC+aSCY58CxqKjInAzi5dixYwjmAQAAAAAAYgTBPMQEgnmIN7RkAoBbaJmPDrTEeUuytczjez+2wj1O4v2ITLjbGU+zBwAAAAAAAIC48Avm27dvjxTHVFBQYL4TAAAAAAAAAIE1eJr9wYMHzSJoSuvWrVPvAR6A13zs5PT84ItpeskJos4fGZkJAN27AMCtZOpmbxyTp/IxuTvt7JznGyYeDoe1Hrfzopu9t6CbPYQD3eybBrrZW7Rr1w6piRMkJzmpG8UB+6jBPXxpzYQenNtGlQMAQGwZx+GpnHr6EpVP9ZVN4zI6VKzGg1lzSOoZ4VgPQFNy2qfXTOD9kfarcgBoPnDPPECMpXNaWnKUlm7Yo9K2Gw7Qzse7GoUAABBzxnG4kI/Buylr1m5aNGU552yiPvzv9A0zQragLyonKhndk5bO6qXqkDSZ05olUooACpqedZ+WtO2GMj63yDYKAaDZQDAP0MQGDPyKDtecoIvI6JGxaItcYTda7Y+UdlN5wmgF6qbyp3GiQ+erfKMl6WJaVHq+43z23gBUfrFRAAAA1KmL/Hu1GnbTMn+E0/olxfTEeJ6nPwf+JrkQMGS+jHfzaymdLS32JBcLAJrOgIHd+Nziat5fN/n2RZ2kB4nsx6MmFPP5wghjBiYXqYwWfQDwqrgE8wtriFJTc2hhjtwTwiMAzUjJc+2oU1preo+OUTWP9z1wHkmLfdasPbR6QWvOaadODEtGX0xLZ51QZV25bNHo81SZsM43ukTmk9x26st69oTz+aSzta9s0RSjTgAAIDp8kAP63jt4qP4iaDCVh4jSq16ijgOHmjn+jOOuBPu7VAuptNgTjVRlAE2l5LlNfG6xgzrSIN4PZ6h9UdLoEumJsovzN1H6DYOpcqPs+0ZvkvWbN1HGDcaFLQDwpkYF82WcUlPzOaX6EpXlG4UxkLOwxm9Z+bI8tRaRS80va7Deejll+XgABTSeBN6jOBDXLeWT6SLqM2mPKpNucn3uPKqG+/YnOkDHiQ61pu3lRFnUlqi/8ZAdKVsvZeXGQ5Ks83XqLPOdUPPJSWdWVVvqmGuUZXDZ+t718wEANEfGcXimaqVcP6UnDRkjwba7YF6oG6M6p6lhO+O4y8F+7v1mDkDsWfdpSZPpHj63kAtJRo8T3Tovt4ccIA7gD9XQ7bndaFsV7/uHNqhp0leXBbxIBQDe0KhgXu7Mqa2dS6W18vTA8J72Gi4JuisKMqiUF1PLy6vkVJxZxAF3rjlF9Kwdl6aWkT03eZ7SC/Fjv2deB/KhdOot/3KQzi6Sf3obw8FIi9N6as1f4Bdx6kEPSjf7KmnRBwBovqz3F0tL5bQpu4J2rbc7IP9wMOREjrskwRJAE7LfM28N5GdzIO/UU0RuDakelk1HtrykGg0G9F5O1HmwKgMAb4pZN3t7q32OtH7XLDQKTfxVSqk583zT1CzMMQpsOI4nKs5Vlwuy5xo/EyDXx0vXjuN/jYsIoZanW+B1klZ3aYGXelV5brHKl9b+sjKjHplG3xKQn8Pz5dTXb11XWT+dr5PT6wUIx+Eq+Ve6yBO9J/9UGcOhyI8ZLt3wHifj4oEk6v+uUQgA0MxJb6Zq6kV0cK+ZE5z0cKruPVQFQE6s9+ADxJvRs295wJ4iWdcPUl3t128uNrvYu++hAgCJJybBvATAuRwAF2UWU21tpWpFr8gsopyMAr8At6qCqPb3vVQ5cflPCjjDIQCuqjauht+s4vb6J3XKUPbcuSGXp4P2yqJM1eJeVCkt7pmqBZ7yjIsDtaV5qmwupxdprsqz0uuqeyHMk3WlMrXs4twcdUmhtrbU91oAGkN3qz9SarSq27vdBzJM5ut91DefWFTahvTD8wAAmjs5nqbLA+q6dDdzguvIKWtMHj24YIffT9FJC+iaCVM52N/Ex+teXGbc9if14wF4EC9ycemAXFwye5LY90c5vyipGklZq2fi1hCAJBCTYH7ly3IAqaCbhmfy3zTVip45/CbO4dj65ZX8r8EovilguVaxK/jV81DL0/O/vFLlkMTw2XPXqjy39Lqqr/7MXqQaTWuqfct+oEgmwE+CQHRIV7jRJe/yyaPc99aDDkzpQWNL5D74Y6o8EDnpnDz/I57vhJpPUqeNXYk6B78IAACQzOz3zE+fNTLkz9FZjeUASLrnj5qyS9UhSZ5aP2SMHHcHUdasGVy2XOXTZnk6OB6AB/ExpDP/M/5R3/5u3x/l/IKGZVPfYTIwSP4BAA+LWTd7u97pEmIT7d0lAXV4Mnu5u3puZV1e0QMSZGeSNKanpmaobvCBuvSHS18oSEtXNzgD+DF+w/hdPmn8yMiwsJfZx+ULeemG/aqb/HTpKh9gOqfxpTyuu9gPmS/36H+lygAAmhvjmFj/dG9J+ifmjOOn8TvzgYY145i8wrEeCfZ13thJuxvMCxBNTvun1fTcbgH3R/n1BaqpoT7X44ITQDKIajAvbdPUvZcattNd5bv3UlOFRQfmL6pn1Rjd2IQMleU7Pz3fujxpia+tXau60etu9bqVvrH0hYaaatVWD+BHt44nQgIAAIDmTf/6AvVHb1KAZBCVYN6Im6tItU2npdPDEj1Tni9gVh3RV76sgv20m4bzv/4kKK8omKfuO08b97DKs5orxxsOwiWW10+vlzpzc+T++uKQy8uRJ9SZ9+LrVnqjIT2t0cG4vtCgl63a6Svk0X4A0lJT/xC6eCcAAABo3uT36PsOk19fQBd7gGQQcTAvAbh+enxBRiqHxxU0t1Ie/Jat7hwvrZ1LBRV5qlt7Bk+TWVFAa6U8TZ5Ab9Dd3nOlnINyPb+TWo7oM4sqKZcjelmm1JnHdcrT7UMtT8Ls1IwC37oWZVbwfJWq3t/LhYDMIsrglZFyeZr9zeT+t/LlQoOsl34tj/L8lIlWegAAAABILEsnDfL9jB0AeF/Kli1b6nbv3k3l5eW0YMECOnjwILVr184shnDJ0+0LMuTJ+hU0bq1cMDBa7kNZtWqVeg8KCwupS5cutHjxYjWelSU/NJaYcnNzqa6ujsr+9QHvSWamibPpw6Py5H/wmuwrU80hAIDgyt7AcT4aBvdqaw6BF2zYlVwPlcX3fmyFe5zE+xGZcLdzh/NSjfDFFsP896kz6ZWMc6m01Lg1O9EMGDBAxYpbt26lfv36Nd0D8JKVtYeCteU/nEAeAAAAAAAAIBwI5htJuvjX1s5VD9fTadxauTKEQB4AAAAAAABiA93sEwS62QMAAAAAAMResnSzRzCfIBDMQ6LAvVoA4BbumY8O3DMPANA44T7LImmDeQkiIT4QzEMiQDAPAG4hmI8OBPMAAI2DYJ4DR4g/BPMQbwjmAcAtBPPRgWAeAKBxEMxz4FhUJL/zDvF07NgxBPPQKDs5PT94Kk0v6U47O+f5homH3UAwDwBuIZg3WI+7bo+1VgjmAQAap7kG83iaPUACW3OIaNTgEZx6+hKVTzVLAQCaFwmaR3HQbD0mLpLjIm1S5QAAAM0JgnmABLWonKhkdE9aOqsXLd2wW6XJnNYskdL9ahoAgOYmndPSkkLfcfHA+DIO6O/hXAT0AADQvPgF8+3bt0eKYyooKDDfCWjujnBav6SYnhh/NVH/GUYm68NpyHwZ79aghQot9gDQHA0Y2I3/5WOlKdCxUfKncf6i0mJf2ZHSEerCqXVcT2vvAWCvZ0251MPzS5nlQoIcv0dNKKY1EyQfAAAgdhx/mg6a3rp169R7gAfggZDu9dtGj6DpJUMd77+Uk8UH+WTxiRteoo65K9T0h3n6sRvu5xPNQbhnHgCaRFPfMy+BtP2YNurxTTSZ7qE+k3aHPDbO5nknD1uuppWyEi6bPGyHb1xPSzytlVM9o3svpyHzy7jUuLiq12vUc2n0RNcn1fLdwj3zAACNg3vmLeR35pGaNgHYdZV/OqepYbtKPrHMqpKTVTnpJMroTLS+Nwf+5XJiCQCQvKo5jRo909divvT6MhWMi1DHRumi3+fOQjXcicvSqZff+AEep0M1atzaOi+3PB2gHb4yqWdIocwnvQLqTXtub9iBPAAAQKRwzzxAgjog/5gnjnaHD/IJKp9Yjhp8jzrRfFC6eVbNNEsBAJKXvmdeniFCNJKOHNil8kW0jo0SyEvr+xPjd/meVyLLCkYuMlSvXm6MAAAANAEE8wAJSFqTqnsPpSNbXjJzGpIbMJZueMb3EChJ1vvrAQCSmTxDZHTJDHpwAQ9YnhkSjWPj9nKpZ7mvhd8NucjwREkhPbhRegLgGSYAABB7cQ/mF9YQpabm0MIcuU/XuRUSoLnpyClrTB6fpO7wOymU1qI1E6bSsP77aX3vQjpS+qRRwBaV7ic6VGyOAQAkvyGd+Vg5awVNm7JcHf+G9Zdu9Y0/NnbqIr2jrvb1jpLgnji4D0WO3aML83h9duF4DAAAMdckwbx8FabmLOSgPdWX8jkRhb6/N4ejfZm+LL/xD+WKZl0AsTaWT0pHl+ymUXxSqO8Nnc1pyBg5YexGk+dLsN/LV9ZpYzZR58Hm3AAAzYMcK2l8GU0bPZM6cgAdjWOjXCSg8Y/67s2nzfJk+uDd7DU9r6wPAABALDk+zT6aD2STcD03NZ8yqZjWVhYRpY1TrfEFGTlUW9qbFnafq4aLMito3NpKntr5gV/JbtWqVXiaPSQEPM0eANxq6qfZJys8zR4AoHHwNPsYeVE1vhfT8Ez+k3aTjNA4jteLKtfyUC81LuTxNak583wt9zULc1R+Ps+vW9OlqtTUfMqRaXJyGkwbqtxal+7en58j0+Y3mFbo6a1J6uaJzCkAAAAAAAAAml6T3TNfUCGBcYavi7sE9JQ9Tg2LKi6v/X0vKq2Vq/x5NE9mCNINv/b3w6lSps0sogyZtizfLDGEKtcCLVeC/eLcHM7h8tpSX10AAAAAAAAA8RbzYH5uNv+TV99NIbfYaO22t3DrlvvuMpLZi6rkb4380EtDveWftHTVIT9zuNHaX1Ot5lBClVsFWu7Kl+VO/wp6oEgmkBcBAAAAAAAAkBiapGW+liP62tpaKqqU1m8JjiVMJiqbV6CGG6N3unGP/d5dUmNDocoDqdi1V/1NS1eXBgAAAAAAAAASRsyD+Xzpr262wEvX+tratZRZJA+6I5LG8puocfefV1VLCzpR917GRQK7UOWBZPZSbfUBW/QBAAAAAAAA4iXmwbyEwqkZBb571lXn9ZUvq+FxD+fRy1R/33y45I76ioJ5qq0/7abhKs8qVHkwukX/5ZXSol9Dqp2+Qh7TBwAAAAAAABBfMf9pOgneM3IWSlRtZDAJru0/U6d/mq6G0tT0mTy9TJO/dxwV56ZSqTyJbm6t+pk7eTq+Zq1Lgvdg5fJ0el1X9QO1QZcr08vv0lcUZPjqqcjM5PIKX3k04afpAAAAAAAAYi9Zfpou5sF8NOlgPY+D9bm1soH9H0wXqrwx7BcdOJo3CqIEwTwkikh/7zjc3/f0GmwXZ/h97OYt2ffvpoLPkbfo/T77SuMXmgAg/sreCC/uwO/MJzm5MCC/Wa9/X74gIzVmgTwAAAAAAABAODwVzEs7e23tXJqrfhO+Yat7qPJw6LrkKfw6jVsr9SKQBwAAAAAAgPhCyzwAAAAkpZ2cpg2eSnSo/lk6AAAAyQLBPECEFpUTjRrc05eonE8YA4jHCaUXT2LXHJJtOsJvu1rTkdIR5pTND7YNgDM51o3iY53187DzcT4mh+DmGInPHQAAJLIGD8CTB69BfOABeN4jJ4PP88ng9JLuRJ3lJxecuZ0umiJdZqI86C0e2yyYRHoAXiJtGzy4q3mL9wPwjnB6cEIxLR2zl6j/DJUnn4/DE6bSkPn38HC3qH1WYvm5w+fIW/AAPIDE01wfgOcXzEP8IZj3FuvJ3U4+uZPhruO70/oFM1X5E+Ov5g21Qp1sUpWRJ+/o2A3P8LyDaDZPT7Rc5S+dNVKdjOo6B8zqTiVTXuLpdwSdXkgvgfVTLC1RwwqN34X0W+ZuNRxKIgfz+sT9iRteoo68XYW89k5LelLG/GdoweCyBttfTyf1Bdp+bnglmA/0Op32q768Xz3vsM1Wd13h25+s29C+n00eRpT/9GFzDJqjeAfz0nJ+ePQIPr7dz2ODjEwLvd87HResn6NAx2+974tgnztZjxJeD+LPVTr/O72Ej8G2aYJBMO8tCOYBEg+CeQ4ci4qKzMkgXo4dO4Zg3kPsJ4MSRE0etpz6TNrtd5Ipgbj1JNAelNqnlXpG915OQ+bL7yp0Czr9mkODaBsPTy8ZquqWdaLHOZibNCPgiWcwiRzMi2ml+2nAxmzfthn1+CZ6ouuT9B5vF+v2l8DzAAeeclJ9hOcPtP2cAgAnXgjmw92vpB77PisByeRhOxrsw4H2s/yn58gQNFPxDub1Pj+aZvr2ayv7Pi7HBeLjgr5AGuj4bT1+6M9YoM+dXsbSWTzQf4bfMmJ9fIH4QDAPkHjw03QA0GjSItPnTj75Y50688kg9SI6JE3k/io5SMqqkoBLgkmiDJ52fW8OksrlZNSoZ0ih1GOcmIaavlr+ObhXDfeRxIF8sro9txttqxrJ23WDOolOX11GHQfytpBhTnr79+0v24Wn4+0Savsli3D3K2HfZ9N5nw20Dzen/Qy8oSOnJ+bnUQkV0qjB2eo+9mmcrPfB248LB+S44HBcDnT8CGU7B+9Z0hOmv/ErOjLvepk3yY4vAACQeBDMA8TB4YNysreDTzzvUSefD8rJp9kl3kmw6YdwwJU1awWNmrJclUkK9jA+r5MgsnpYNh3Z8pI6iR7Qm0+iOw82Ci0ukn96d1fD4W5vr4rl62xu+xl4hwT0SzmgX7pht0o0vowWjZb9fpMqj4T1+OFGp97yr3GRLNx5AQAAIoVgHiBO5AaKpRue8Z2AqpPQIPdwB5t+bH8pM/KyZu2mRRxwNeZENtFlXT+IKjfuoPWbiynjhqs5x79rrXhP/qmqb1ULd3t7VSxfp/N+BpBYpPdOoNZ3t+zHj1AOV8m/+9VwuPMCAABECsE8QBOxdlEeJt0wexfSkdIn1bhYVMonggF+IinY9HJ/pvXnkTp1kVaiq1XrkHWZyUS6sZZUjaSs1TN9XcrtrF1fw93eXhXL1xloPwOIJ3muw87H/X8eLliPHbfsXeeD0d3q9ecunHkBAAAaA8E8QIQkuJk9uCcHzMtp1OiZfAIXuCVcuoanj79HdVFexPN0pE00eX4ePbigl6/LcqeNfOIX4ORTupEGml5OJK3520b3pCGFQ3meQX7LTCayPWlYNvUdJgP1D5iSixfyXsh2kIdXjZWHV3F5sO2XTGL5OgPtZwDxJM+FmF0z1LdfSpKHzw2ZLw+fa9hjJ5hAx49Q5Hg0umQGfz7kN+nDmxcAAKAx8DT7BIOn2UO8JdJT2wPRT7C2/7Z0JE/vd8sL2yUe8BTu5i1Z9u9YHz9CwefIW/A0e4DEg6fZAwB4hH5qO7qxAgAAAEBzhWAeADyn5LlN1HfYDh5CN1YAAAAAaJ4QzAOA5yydNIj6TNptjhnkvtXpG2bEpYssAHgbjh8AAOBFfvfMT5o0ycyGeGnTpg3umYe4wr3hzrBdnOFe3+Yt2ffvpoLPkbfgnnmAxNNc75lvEMx36NDBnBTiAQ/Ag3hD0OoM28UZgpDmDcF8dOBz5C0I5gESDx6ABwAAAAAAAACeEFHLfGpqe3PIUFv7iTkEjYWWeQAAAAAAgNhptt3sJZC3B+9OeaFEMk9zgGAe4g3dPRODV7ovY39p3sLdT9EtGSD2dHdjfN4SQ6K/H8myv6CbfSMgKAcAAAAAAABoOlG9Z97e/d46LsNuyoPl2cuFfRoRahwAAAAAAADAy5rkAXgSSEvrvSRrUK1b9K3lTtPoPHt5qPmE03wAsbKT07TBU4kOFRsZAAAAAAAAMdAkwbw1kNZBdrRIvTo5ieWyoXmSgH0UB+yjBvf0pZ2P9zQKg4gk0D/CadSEYsf6p5XupzUTevI0m3ABAXg/HOG3T1rTkdIR5lQAAAAAkCya7KfpYtUyLvVak5NYLRuaHwmuZ3NwvXQW0dINu1WazOlwzUgu2a+mCaQPp+kbZhB1zjMyXOjIKWtMHm1fLWOb5B9F1qN64wbKuOFqnmZQ2PVC8lm6YYVvf0ynkbS0pNC3j3bMXWFOBQAAAADJIirBvFOgbM2ztozHMqgOth4I6CEaKg9xcF31ElH/bDPHCNKHzOdgmrqpcbFoi7SU+reKWlvm9fCi0uKQrad9+xOt5+CMysvMnPr16Jh7f4N67b0GqJzLoNkLtG/o3h/Sy0NfkFpULvsUj6O3BwAAAEDCCjuY10GxNekWcWuZzhNO+TrPOmyfJhQ381mncVsvQCAZnTmw7j2UA597eMy5Jb6aU98DM1WLaNas3bR6wQ7OqW9V1+zTLZDpHIInuVhAw7Jp5+blalxs27Kf+g6TegcZGSaZdumGGb4W2dElu2nRlF2c23D50LwE2jc68r7xxPw8KqFCOlL6sAr610+ZStNnjURvDwAAAIAEFlHLvATF1mRlzbOWBZpW0+X2PC3YsE6adVjYywEiJd3edeAzanC2at20t2Cmc+pzZ6Eallb1A9KqfqhGjVvZp6uW6Q7uVeN2WdcPosOqiv2+LvZ9rpeu/Q1ZW2BLRvfk5ctFgobLh+Yn0L4h+/XowjxavYDo+dJimjxsOVF/6W0CAAAAAImqye6ZB0gWEvgs5YBet3DS+DJaNHom50be+n2R/NO7uxp2IsH+tiq5KLBBdbEfTdLVX3oH+JNgbTYHa0+M36XWTe6fJrlIAM1eqH1jSGeiA+Mfpa4LZlKfSc+YuQAAAACQqBDMAzTS7bndAra+u/We/FPl3CovVFf78ffQkS0vqS72GTdIRv09+tr2cqIsWq7upQewCrVvrDlEHMg/TOuHjaSdjze8UAQAAAAAiQXBPEAYJODZ+bj/g+okSBrQezlR58FmTvh0oGV9sJ7dgIHdaPVGHtj4DHUcONTItOnURbr1X+27sCD1ktQLzV6wfUNu3SiZWUxjZ/WiyZNm0OzVI/HgRAAAAIAEh2AeIAzyALzZNUPVPcc60ZSeNGS+dEtu2FIejDwAb9TomaqOA1zH2BK5f97/gXZW6uF7NJRuT5MLB84PJpOu0jT+UV+9tFmeUI5u9hB431hDg+nBCcU0OW2muk9eeoFkzZpBo6bwfoaAHgAAACBhpWzZsqVu9+7dVF5eTpMmTaIOHTqYRRAPx44doy5dutDixYvVe5KVlWWWJJ7c3Fyqq6ujsn99wHuSmWnibPrwaK05BnZy//Lzg6fS9JLuCffE8MG92ppDEE8bdh03hxIb9pfmLdz9NPvKVHMIAGKl7A3j/Auft8SQ6O9Hsuwv+nW41eG8VCN8scUw/33qTHol41wqLS01cxLLgAEDVKy4detW6tevH1rmAQAAAAAAALwGwTwAAAAAAACAxyCYB4gDuS95+oYZCdfFHgAAAAAAvAHBPAAAAAAAAIDHIJgHAAAAAAAA8BgE8wAAAAAAAAAeg5+mSzD4aToAAAAAAIDYSZafpkMwn2CSKZgvmDnPHAMAAAAAAIitST8ZYw4Fh9+ZBwAAAAAAAIC4QDAPAAAAAAAA4DEI5gEAACDhDeO08rm7iLplGxnNHLYHgLdZP8P4PLu38q6OdPldPzPHAME8NJk51xO99twMX5pz/VVNfuC6nNOcOdn89yr1l/ivWw90k/X/mW/96Xpe9zDIgfo1fr3WbRBuHY3h9ovCPh2+YAAgGuQEzHr8w8lYaE7fG8Me4u+OELx+3HZaf7evyTqd17dDNATaBm62DbafO7KdIvmcumE/97SnZDuO2r8nHpgj27GjUcjkPJ4y/4Pe2lKF/dOEYB6azMTNRNPunEoHqIqufWQTrdv8ulnSdHL4oLjuUG/++7r6S+RuHeSAcfdv7qJrn3yfrpXX8MKTNOd+md/9xQBxgJO8dqlj8SNT6bX7L2yyA/FqTsPvXEa0v8zIcCnS+QAANDlBe/vW+/nYt0Id/+S7YOmt7yOgD0JOWqfPyebvHf7e4O2lt1ta5youqT+5ddKcj9v4znIH2yk6GvM5dWPefqn3t7569Tm0XtZby35rTul99u8JSYMPreBg/T/MKYzz+A3E59/7/2XmAIJ5iIsH6F/q4NeVP5Cv/WYQzXlOrrxd1eDqpm651lff5tyV7SuTk0Bra3+wk0I93d2/mUHT+3bw/V3JeZFc0Xv7nSO0710Zel+NR0IO0Jue/C3dd6v8goRxUSDQ6xf2ng36qq99HsnX2+uB62V78XaSfF6GvoIZaHvqLyXr+2KdT1ivElu3X6A6AaB5k2ND11uzaOKTcnJrXECVQGLTk8t8xz+nY5b9O2G6ypOLqAZrmST794V/Xd4jJ62bLubXu/nfZo6x3eZN5ACMjqhxMWdg/XeDPubqbRDseO9lwV6T7/3v1tHhPAM06z4i7OcYrz2Uje3ngpvPqWzrQOd20WCvXy9Dzule4/fQ2rot73Ok576xJOeWdOudNPGRTTxQ39A2/DEetlxwGjywI62tkKH6Y2Bzh2Ae4mIe/QdNm1jmu8I48c6pfNB5XX1xjHrhQnU1Tlqu59x/IU9tBLpdOa3rPMhXtvRWHh8wwzd+H4/rae2kV4BMd2D7CrU8/Xc457m5Kq1PPF+7vzc9cNdddOn9P6N5c+WA07iDyTper0G8Dej6b/oCaafXLwc5Waa+GitXZ4nn0/NM295b5Y/ilEabqJrnke1Fd8j2ek5tX3svBOv23PTkVCrik+q3+OBuf1+s88kXhrWHwts83xz+kg/0HgV7TwCgeUiTk13iY5nlZFfI8e9SOf51u0iN249Z9u8EfdwTwY6XouHxz3vW7ufvh3er+ER8BI85t/DZj+PWi8NWTsf7RDuZD1eo7xun8wxw5nSOMY06YPu5EOpzGupYFQ1yjnrtnctU/dZlvMXLGMXv4d18BL78rjvVOdyg+++i4XJhNcF6ZFx2CdGGd/m4FKTFXbal7mIP9cIK5lNT25tDwbmdToRTpzW5Fc60EF/66uZby9arcX2AlEBXSBf11aUSQBPVcNkBet9v/FJpJTdPCp3IQWxDZw6a+UCxgXi6MLvoXHpJR5r2wod0d+aHtGi7HHDKVJcg+/08kQr1+tXJ6SVyomYcuFc/tkzNc4Dn0dvhLU7zHiujdD4Jlu0V7IKDdXvKSXVXOUk26w/kxuvlpLz+CrT1YoSwv0eh3hMASH5ykrZPTtIcejJZj2v2Y5b9mGjl5vsiGhdc40mO5/pE/LXn7letbfYWNftx3HpxxCqS432iw/dNdDmdY0BooT6noY5V0WJtnZfep5cSv5f8eZD1Wzy3TF3sGnuX0fhDm7353sq2RBf7hjzRMi8BeW3tJ34JQXrykRO+QXzwee25EepgtFQOhhdLq2/j6AOcdNG8mw+oS/lge3ffQZx3Px9M3XV1km5JGzLvp9XLnlMH7emdN/m6udcckn8bf8IY7PXrLvnSM0DKJMm6yzxvywF7/3tqukhVyz/vfqiGQ7HeXhDOfADQPO17h49vF8txQlqj/ElARu84H0Pk+EZyfHMQq++LRCMn4tfyd45ucSN5XoulN1QkcNwGu0DnGOBOsM9pUxyr5Dx3Op/nOvViEvL+XvrCc/T2rYNo9WMrzNzE9tpDV6ntZb0wgi72zsIK5p2CaKdxmQ4gEnKN3frgC3VQbOQVRN39SB5ad+2TVb6/4dQtrfKavgorAX3XWznA31Z/wAyXvaU72OvXtwpIkm6S8gC+de/IAa7xJ2Xp8s/F7lppLrtY/jVOysOZDwCaJ2k1HSQXAG0tUXL8e1u1sjhfjJSLAMGOb7H4vkh0i5YdCdj67pZXjtvWlmIht2s4XRCC6HA6x4hmV/DmxP45jfWxSp9LOvViEnIbxdu33kmDtlfRsIfkdoDEI8f7wXLR13zY3bWPvd7g1ip0sXcW85Z5Ce510uzjmlOeG4Hqt9fnlB9qHGLL+mX9lHTZflfu68lS42LOXRxER+u+vs58EiAtQPpvGOSBd3dLEHu9sW4S0B+oMLr5PHCHfOGF381eDq6D7v8ZPfWCrMvrQV+/9AywPrBIDnr73v2Qqvf/S3XX0gdnOdg98FC2umc+HPaLCvaTKE13q9fraJ8PAMBOLqgeeGG9X3Cg793Uxz8n9osAcrzRD8CL+fdFApDviGEP+T+oTrbBhnd5GzSim6kXjtuyz9D2f9Pll9QH79IqF+qeWieBvs+gXsBzDB7G9gsu1Oe0KY5V8n5dKhc+zYsH1mOlnBfenZ9NE598n6Y9toym9+VgOAF7XUjvga7b19MD+dJroeE5tVyEfFsuQjayJ2oyimkwL0FxoK7x9tZ7PW2k9Lz2ZWpu1sU6jbUcokO+LKSru34y6mo+mMgJnnTrkqekyoM65GEr8nNFupvXvsz7G3XSoun75YdxXfI33DrlirVcqbZ2QSugO9UD5/R9Um4OjvKlKK9d5pd7muRBcvpnReQCQaDXL0G0NX8wzztvbhXPc0TNIwdnyZfuWzV8+iv3zIdiXZdL75/he4KoPvHW74v1yryULX5kmXr4oH0+AIBAhktL1QtP8nHD6Goq3wXSJTTYzyrJ8UY/eFTmoQFyPDJaZYIdL5OF3Fs7vbNxbNeJ+Jg7b6J0kw2vm2mg430iG/XY67Q0s/71y09WhfvaG36fNU/W91+S/bs98DnG69h+IYT6nDbFsUoCYXrhOd97rI+V8stRS+UhyYc4QN68zO+YmogBvbTGD66Q7wnj2QPyPaEvisgFinVyv7/tuOW8bzcvKVu2bKnbvXs3lZeX06RJk6hDh9BX33TQG+ivFmjcmi/Dwjqdnb0eYa/DaVjocflrp/Odpo+XY8eOUZcuXWjx4sXqPcnKqr+Sl2hyc3Oprq6Oyv71Ae9JZqaJs6lg5jxzDBKNXNwY+9xdNPyRD/kgid+YBQBIVjjeA4DXyT301277pqvbEyb9ZIw5FFyH81KN8MUWw/z3qTPplYxzqbS01MxJLAMGDFCx4tatW6lfv36J8QC8QMF2tMlyrMlJU60LAAAAAAAABCYXJDf1lUAet3Q6iSiY1wGvDojt45Fo6iDaaVk6r6nXBQAAAAAAAPzJ7QET75QWedzS6SSmLfM6KNYpVLAfKIi21xOsLvu0mj3faX7rNIHqB0gGcmAcLgdGdLkEAEhqON4DACSviIN5e7AbKPiVfJ20QMPCPq7pOnSychp3mjZQnpW9HAAAAAAAACDRJMQ98wAAAAAAAADgHoJ5AAAAAAAAAI9BMA8AAAAAAADgMRH9zjzETjL9zvxVF5wyxwAAIBFs2HVc/R3cq636CwZsF2fNbbtgP2gcbL+mge3sTG8Xt/A78wAAAAAAAAAQFwjmAQAAAAAAADwGwTwAAAAAAACAxyCYBwAAAAAAAPAYBPMAAAAAAAAAHoNgHgAAAAAAAMBjEMwDAAAAAAAAeAyCeQAAAAAAAACPQTAPAAAAAAAA4DEI5gEAAAAAAAA8BsE8AAAAAAAAgMcgmAcAAAAAAADwGATzAAAAAAAAAB6DYB4AAAAAAADAYxDMAwAAAAAAAHgMgnkAAAAAAAAAjwk7mE9NnatSLDXFMgAAAAAAAAC8KiFb5mtr81UCAAAAAAAAgIbQzR4AAAAAAADAY1K2bNlSt3v3biovL6dJkyZRhw4dzCJnuvu7bjl36g5vLws1roU7nXBbZs1PZMeOHaMuXbrQ4sWL1XuSlZVlliSe3Nxcqquro7J/fcB7kplp4mz68GitOQYAAAAAAJAYOpyXaoQvthjmv0+dSa9knEulpaVmTmIZMGCAihW3bt1K/fr1i24wL3nW8kDThlMWizoSWTIF89/u0dYcAwCARLCy/KD6O7x/F/UXDNguzprbdsF+0DjYfk0D29mZ3i5uJUswH7Vu9k6BsjXIjlZALfPb67DWr1mX7TQPAAAAAAAAgFclxT3zOli3B+162B7oAwAAAAAAAHhZzIN5p+C6MZxa4TVrmR5GQA8AAAAAAADJJm4t89YgWwfaTsF+sOnclgk9DgAAAAAAAOB1YQfzEhRbA+NQ48IpT+h8e3mgcXu+cFsGAAAAAAAAkCyS4p55AAAAAAAAgOYEwTwAAAAAAACAxyCYBwAAAAAAAPAYBPMAAAAAAAAAHoNgHgAAAAAAAMBjEMwDAAAAAAAAeAyCeQAAAAAAAACPQTAPAAAAAAAA4DEI5gEAAAAAAAA8BsE8AAAAAAAAgMcgmAcAAAAAAADwGATzAAAAAAAAAB6DYB4AAAAAAADAYxDMAwAAAAAAAHhMypYtW+p2795N5eXlNGnSJOrQoYNZBPFw7Ngx6tKlCy1evFi9J1lZWWZJ4snNzaW6ujoq+9cHvCeZmSbOpg+P1ppjAAAAAAAAiaHDealG+GKLYf771Jn0Ssa5VFpaauYklgEDBqhYcevWrdSvXz8E84kmmYL5qy44ZY4BAEAi2LDruPo7uFdb9RcM2C7Omtt2wX7QONh+TQPb2ZneLm4lSzCPbvYAAAAAAAAAHoNgHgAAAAAAAMBjEMwDAAAAAAAAeAyCeQAAAAAAAACPCTuYT01t3yABAAAAAAAA/P/27ge2jrvAE/gvBtqwm6ZpamgbrKLlkvbaVcVdtlZNb1mBd1ldoEiAZHalRugkjkZXTnel1lYVEgKEiqquKNXpQGpPldYoXS1YKkgEciJSS1ZsbEu7e0erLambW0TVvySEUGcXCMHvfr/540xe37Pfs5/tN/bnI00885t58+b93sy8+c5vZsLaWVbL/Jkzv7io64dA76QCAAAAm4XL7AEAAKBmeh7mW11+36q/ebpqf6l5mqTsby5PmqdrHg8AAAAbwbLCfBmUyy5dal/q5vL76nTNr6mWVcuTVtMnaThpNx4AAAA2gp7cM1+VwnPZrVS7eTW/Z7M0vnzNUtMCAABA3fT0MvsUoMuA34sQXZ1Xt/NL0zefBAAAAICNYE0egFcG6zLsL0c3wbycVqAHAABgI+ppmK+G9lYhupsg3zyvpV5bDe7V13bzngAAAFAHXYf5TkJ1tWunOm6x/rIrVfuTduOaXwcAAAAbxapfZq+FHAAAAHpr1cO8FnIAAADorTV5AB4AAADQO8I8AAAA1IwwDwAAADWz5dixY43Z2dkwMzMTxsfHw+DgYDGK9TA3NxeGhobCxMRE9p2Mjo4WY/rP2NhYaDQa4chTJ+OaVBQWYnE4dfpMMQQAANAfBnfuyONLU4a57/zWcHTv9jA5OVmU9JeRkZEsK05NTYXh4WFhvt9spDD/7j3biiEA+sE3Z17I/n74lqHsLzn10tpmqxfrwcqov7Whnlsr66VTGyXMu8weAAAAakaYBwAAgJoR5gEAAKBmhHkAAACoGWEeAAAAakaYBwAAgJoR5gEAAKBmhHkAAACoGWEeAAAAakaYBwAAgJoR5gEAAKBmhHkAAACoGWEeAAAAaqbrML9jx+VFHwAAALAeVtQyL9gDAADA2nOZPQAAANTMisN8tXU+9ZddqbmseXzSqgwAAABobcVh/syZX2R/UxhP/WVXDefVsubxrcoAAACA9np6mX0K42XXqWqIT/0AAADA4rYcO3asMTs7G2ZmZsL4+HgYHBwsRrWWgncZutv1V3U6fbvXbzZzc3NhaGgoTExMZN/J6OhoMab/jI2NhUajEY48dTKuSUVhIRaHU6fPFEMAAAD9YXDnjjy+NGWY+85vDUf3bg+Tk5NFSX8ZGRnJsuLU1FQYHh5evTBfDi81fbvxm9VGCvM3veV8MQRAP3jy2bPZ3/devy37S069tLbZ6sV6sDLqb22o59bKeunURgnzK7rMvgzj1f6y6zSUV1+32YM8AAAAdKLrMN8cuKvDqb/sSp32V4cBAACA9nr6ADwAAABg9QnzAAAAUDPCPAAAANSMMA8AAAA1I8wDAABAzQjzAAAAUDPCPAAAANSMMA8AAAA1I8wDAABAzQjzAAAAUDPCPAAAANSMMA8AAAA1I8wDAABAzQjzAAAAUDPCPAAAANSMMA8AAAA1I8wDAABAzWw5duxYY3Z2NszMzITx8fEwODhYjGI9zM3NhaGhoTAxMZF9J6Ojo8WY/jM2NhYajUY48tTJuCYVhYVYHE6dPlMMAQAA9IfBnTvy+NKUYe47vzUc3bs9TE5OFiX9ZWRkJMuKU1NTYXh4WJjvNxspzL97z7ZiCIB+8M2ZF7K/H75lKPtLTr20ttnqxXqwMupvbajn1sp66dRGCfMuswcAAICa6TrM79hx+es6AAAAYO0sq2X+zJlfXNStdqB3wgAAAAAucJk9AAAA1MyqhPlWl+BXy6rlSavyVsMAAADAMsN8GbTLLl1qXyqHW12C36p8qelL1X4AAADYzFblnvk0XHYAAABAb63KZfbNYR8AAADonVV/AJ7WeQAAAOitnof58rL7squ2zLcqX2z6UjkNAAAAsIww3y5sV6XhsqvqprzVNAAAAMAaXGYPAAAA9NaahXkt6wAAANAbWuYBAACgZpYV5qsPrPNgOgAAAFhbXYf5FN7Lh9WV3XoFeicSAAAA2Ix6cpm9++EBAABg7azKPfPl5ffVlvOyv7k8Kcuq5e2Gq2XJUtM0DwMAAEDdrSjMtwvP7S7Br44ryxebPg2Xlpqm0/kAAABA3W05duxYY3Z2NszMzITx8fEwODhYjGqtDM1V1bJqiC6V4br6unK4m+mrmqdpNX2r+fS7ubm5MDQ0FCYmJrLvZHR0tBjTf8bGxkKj0QhHnjoZ16SisBCLw6nTZ4ohAACA/jC4c0ceX5oyzH3nt4aje7eHycnJoqS/jIyMZFlxamoqDA8Pr06YbxWem8vL4U6m7+S1nUxTBxspzN/0lvPFEAD94Mlnz2Z/33v9tuwvOfXS2marF+vByqi/taGeWyvrpVMbJcyv+J75FJYXs9T4Zt1ODwAAAJtN12G+bO0uu+ZW76XGN+tk+uZpSmV5tb/sWs0HAAAANoJltcynoFx25XBV8/ik1TSlTqdfarqlxgMAAMBGsCr/NR0AAACweoR5AAAAqBlhHgAAAGpGmAcAAICaEeYBAACgZoR5AAAAqBlhHgAAAGpmWWF+x47LF7pOdDrdWurHZQIAAIBOdB3mUwg+c+YXC51QDAAAAGtrxZfZp0APAAAArJ2e3zOfWurLrpV245vLqtNVy5Nuyqtl1fKqpcYDAABAP+k6zJeX1rcLv4tdgp+GW42vlldfs9S0nZQn7cqTxV4HAAAA/WhZLfOLhd80XHattBpfnU/qX0qreaxEr+cHAAAAq6mnl9mnMFwN+q1Ux1enSf2dhul281iuXs8PAAAAVlPXYb6XrdflvMq/KUh3O/9eLk/S6/kBAABAr634nvlqS3bzuGbtXlstr85vqWk7KU/alSeLvQ4AAAD60ZZjx441Zmdnw8zMTBgfHw+Dg4PFqPXVq2Bdt4A+NzcXhoaGwsTERPadjI6OFmP6z9jYWGg0GuHIUyfjmlQUFmJxOHX6TDEEAADQHwZ37sjjS1OGue/81nB07/YwOTlZlPSXkZGRLCtOTU2F4eFhYb7fbKQw/+4924ohAPrBN2deyP5++Jah7C859dLaZqsX68HKqL+1oZ5bK+ulUxslzPf0AXi91KsAXqcgDwAAAJ3o2zAPAAAAtCbMAwAAQM0I8wAAAFAzwjwAAADUjDAPAAAANSPMAwAAQM0I8wAAAFAzwjwAAADUjDAPAAAANSPMAwAAQM0I8wAAAFAzwjwAAADUjDAPAAAANSPMAwAAQM0I8wAAAFAzwjwAAADUzMD8/HzRCwAAANTBwLlz54peAAAAoA62HDp0qHHq1KkwMzMTxsfHw+DgYDGqvR07Li/6cmfO/KLoW33N7520ev803VouV6/Mzc2FoaGhMDExkX0no6OjxZj+MzY2FhqNRjjy1Mm4JhWFhVgcTp0+UwwBAAD0h8GdO/L40pRh7ju/NRzduz1MTk4WJf1lZGQky4pTU1NheHg4bJmenm4cP3684zDfKiSvJDh3+9pev3+/2Uhh/qa3nC+GAOgHTz57Nvv73uu3ZX/JqZfWNlu9WA9WRv2tDfXcWlkvndooYd4D8AAAAKBmeh7mUyt5VXU49ZddVSfTdKL6uurry/JqWbJUOQAAAPSjNWuZT+E4XQpfdtWwXF4iv9g0Vam82pWvT6r9STm+eZ6dlJdlAAAA0E/67jL7FKDLrp1qCE9dN6rTt3qvNL4c7nbeAAAAsBZWFOYXC9zLVQb0sltN7d4r9a/GZwMAAIBeWFGYXyr0rjQQr0agbjfPsrz8K9ADAADQr7oO82XILbuyrFQd3668Oq4sr/Y3T7MSS73vYuVlGQAAAPSTZbXMp5Bb7VLwrSrLy/5SWV4tSzqZptSuPGmeT6mcX/NrlyoHAACAfjQwPz9f9C6f4AsAAABrp++eZg8AAAAsbiAqegEAAIA6kOQBAACgZoR5AAAAqBlhHgAAAGpGmAcAAICaEeYBAACgZoR5AAAAqBlhHgAAAGpmYH5+vugFAAAA6mDLsWPHGrOzs2FmZiaMj4+HwcHBYhTrYW5uLgwNDYWJiYnsOxkdHS3G9J+xsbHQaDTCkadOxjWpKCzE4nDq9JliCAAAoD8M7tyRx5emDHPf+a3h6N7tYXJysijpLyMjI1lWnJqaCsPDw2HL9PR04/jx48J8n9hIYf7de7YVQwD0g2/OvJD9/fAtQ9lfcuqltc1WL9aDlVF/a0M9t1bWS6c2Sph3zzwAAADUjDAPAAAANSPMAwAAQM0I8wAAAFAzwjwAAADUjDAPAAAANSPMAwAAQM0MzM/PF72d27Hj8ou6umhe7jotOwAAAJS6bplPAfjMmV9c1C0nFK9HkC6Xt7kfAAAA6mQgKnqXTygGAACAtdPTe+abW9urw6m/k/GLlTWPT5qnSVpNt5Tm15d/q13VUuUAAACwWtbkAXgp3JaXtVeDbtmiXx3fapqyrHn8Uq/rhVbzb/e+1fLqsgAAAEAvrUmYr4bb1N9Lab5lt5Zave9qfk4AAAAorUmYT1artTrNt9qtlXbvm/pX43MCAABAqSdhvlV4rZZVW6tXM+iuZN7lsqWuGs47Ub5v+VegBwAAYDV1HearobfsyvDbLhC3Ki/Lqv3N0yxlua9bTPM8Ws2/3ftWy5vnAwAAAL2yrJb5FFSrXVW1rDqu3bSlcnxzWWmx/rIrVftbWWp8Vav5J0uVAwAAwGpZs3vm+5nWdAAAAOpk4LXXXit6N692renCPQAAAP1oy/T0dOP48eNhZmYmjI+Ph8HBwWIU62Fubi4MDQ2FiYmJ7DsZHR0txvSfsbGx0Gg0wpGnTsY1qSgsxOJw6vSZYggAAKA/DO7ckceXpgxz3/mt4eje7WFycrIo6S8jIyNZVpyamgrDw8PCfL/ZSGH+precL4YA6AdPPns2+/ve67dlf8mpl9Y2W71YD1ZG/a0N9dxaWS+d2ihh3j3zAAAAUDPCPAAAANSMMA8AAAA1I8wDAABAzQjzAAAAUDPCPAAAANTMwPz8fNELAAAA1IGWeQAAAKiZgajoBQAAAOpAkgcAAICaEeYBAACgZoR5AAAAqBlhHgAAAGpGmAcAAICaEeYBAACgZoR5AAAAqJmB+fn5orczO3Zc/roOAAAAWDvLapk/c+YXF3WrHeidMAAAAIALBqKiFwAAAKiDLdPT043jx4+HmZmZMD4+HgYHB4tRraVW8tQaX9VcVm1JL8ubW9c7nT4NV/uT5uGNZG5uLgwNDYWJiYnsOxkdHS3G9J+xsbHQaDTCkadOxjWpKCzE4nDq9JliCAAAoD8M7tyRx5emDHPf+a3h6N7tYXJysijpLyMjI1lWnJqaCsPDw8sL882ag3mr4ZWUd9K/UWykMP/uPduKIQD6wTdnXsj+fviWoewvOfXS2marF+vByqi/taGeWyvrpVMbJcyvyj3zabjseq36fqkfAAAANptVuWG+GvRXI3Cnea7GiQIAAACog1V/+l2vQ3e1VV6gBwAAYDPqeZgvQ3bZVVvmW5UvNn2pnKba325aAAAA2Oi6DvPtwnZVGi67qm7KW01Tap4WAAAANpOB+fn5ohcAAACog1W/Z76kJR0AAAB6YyAqegEAAIA6kOQBAACgZoR5AAAAqBlhHgAAAGpGmAcAAICaEeYBAACgZoR5AAAAqBlhHgAAAGpGmAcAAICaGXjttdeKXgAAAKAOBrZv3170AgAAAHXgMnsAAAComS3T09ON48ePh5mZmTA+Ph4GBweLUayHubm5MDQ0FCYmJrLvZHR0tBjTf8bGxkKj0QhHnjoZ16SisBCLw6nTZ4ohAACA/jC4c0ceX5oyzH3nt4aje7eHycnJoqS/jIyMZFlxamoqDA8PC/P9RpgHAICN5X2/v6PoYzUc+afucsdGCfMuswcAAICaEeYBAACgZoR5+t4PY/fZ914TwotX5gWwCOvL5nL4xRBuf+/bY7cnvDr59qJ0fVj3IG4Dk5eu+7YIqy3f338m7u//Ki+AdSLM0zdejd3tn7wyHP7knth3aVbWrJuD5XJ+P/xSmt/F0sFGq/dJ8789zj8Fg2q32DKxuHZ12suDvY0colrVX7k+thoXZmI9FOq8PqdttNUyV7/rtI0f/OKV4bH7z4XHnnwuvDL2k47Wg+oJgLKr1hv9odX6W+7Pq+vBZrLUNl1dtx+NXQiXpZe9Tqv59GK/kLbJ8P1t4apbz2bDi32H0Gv5+v/R2F3Xsnt18qPFlK3l+xUBnXoZmJ+fL3phff1j3AnvDtvC9DPn4o50W1HaubQTP/zJFBDzg5GrYjf6sZ+Fvz+Uhi4c0KSDjRPxYGPve+L7hF9nZVW7Y/fYwdNZOCi7fV95Lpa+flo606pOr4rBq1feGbvPP/lyCG/7WV6wwTTX3/R7no8HxNe+btz+g8+F2++95KITJXVcn1OQv/ar18ZlfWVhmaff8Uq2X6h+17Ek7H7mkhCG0rbcmUdnQji4f8/CCYDU3RO7w19LY52w6xdpP/3AJ9OJmrj+Vr6nl/45hcRLN/w2v5h22/QP4zZ9cP81C+v2E7e9En8Tr45Tt16vF9uvLFf6HR+Jv+PhbWeX/A6h1/a9La1r34jdbFzXZuM6/mdxHf90Npy6q8a+UUwJG4eWefrG9LFLw53viT13vhJePfb6MH84nM0ODE7EA4Xb9+9ctNWhdPMtITwRXxdmLswvHWyMPrMt7tRPFyWdadXCkFrz0gFL8xUFKTB8No3fZK1G3crPgl8THp28cqFOUxBN9VcdLqdtVf/luM3USjdy66/jAfG5cHXT+p8OZEbv/0k49NUYcJfYNvpVOikXvnp1+HgMGSHMZWXJ58djfwxu5Xd9+MVLL9ofpNbIx+M2uNj+IW2rT3ztyvDgnTH83xKDYCEFw31feTnO+9dLrmOHZ9K6GtfRYv7V9fKBrOzCvqa6HqdOi2Tnyv10uCVv4U3K7ymdiGre5puvtij3v+V0zfuYjejv4/o2mta/os72//lcVyfHy/3Kq3G9Xuy3rlp/aR2v/val3/G96Xc8fkedfIet3qf5u03S9/to/H6bt7nyNdCNagv+Z2OXWuLzk09/FX9Dvh5/Q74Y17fr4rr2t3Gaz2TTlV2Y+Uw+E+gTA1HRC+sn7UTLS/PSAcU/fj8VXHzmfl88SLnnKz8Lu2M4T60JH38ytS5eONhvJR04hNvOhh/+4MLBTDrYuPm2FHYWf22zNK/Hnnw5dnkLQ2oFffTeS8JV8eDiwbhcB8PpeJBzdXag8cS914TP3x8PYDZhq1G3TsTu5ud3LtTp3V+Nwz/YszB8KA6nA7h29V/X0LoSB//msrDrHZeEV1qsw61OYNXJSy/EUHFj/F7fdiEAtNK8P3jsyZ+Ej3zluUX3D9nVP+lEXnEJcLOl1rG0roavpXX1lWz+r8b5pxMKD955STZ9anUMqe6jdLD4/L1vX2j5rI5jaXvfFtfjG88u2rJcSr8f6XaLB+/MW4Cb67p5H1PuU7hYuV+5Kq7X7X7rdr/nbPx9TttE/p088YPLFq5yq/6OJ0t9h+22t3fG9zmRfrf/Zmc+YVT+bjdvc5v5d4DlScdoB/d/Jjx2//VxHZoN194/Gx6N4f2qGNzv+cp/WmjN/3gc987wR3GaL2TTpW7/wTjtvc/GOfxtNi/oB5I8feHQTAgfeUf84Y7hNx0AHEwHYjMXfsjbqbbGpEtnDz5zSey/NhsuW85G/3AuvPTPaepLs4ONdIn9O/+w/UF1OvDLW/outBZU79MsWwTS+z0f4kHEi+kgJ4T9n/5ZdpD4+OSV4Z7bUmvEhZa/za5VnZatKelSz3f+eX6VxK743e8O5y4afj4OpzpO2tX/Rtdcf/eEq8M7x1NgWdpi6/NmlF1E/Lb2l+Uvto6ldXXfp9O6md+isNRVPqnuwwv5a1Nweee4fUKn0j61PEla7tPbXe2Ufj9Gn9nZ9nto3sdU9yl11G6b3jWUTuTFz9bhibzF9ivttoOPjP06TD8Tfz9f3JZNs/vQhfCetofyEvukk++w3fuk3+3yFrnq73bzNleeMKjryUvWXn4Fy9fjMdr7suH8BPifxXXoSDbcLF9H89b5g/uvi+vo/43raHZQCX1BmKcvpLP7D8Qf7vSDfnf6sY8HZtXW9Hby+6N+Erv8DP3+G9O9gs9nw2XLXNpRlwcf6UBgf3YZYuuDvqTV/YjpACft0B+IBx2tWuGStCzP3/lKuParO+P06W5eSq3qtNuTHUvV/0bWXH+dBvmk3fpcF7d/KV3y2z7Idev59E+bINftOpauIggpfLRQ3vJw+73bsuVPncuBu5PC4GMxDJbrbbjz+fBoDJ+tWmF33Zj+bX+SZiNpt003r3MpHLdbP5N2+5XFtoN0Uiq1mqdb4VIoGrnxQnivXmJfWuw7XOx9bksB68b4Ox1DevV3O21zT8TPdPt7r84+Y3m8AN3I9xf57SLpupFw47/J+pvl6+hn4jr6bFxH8/vwQwr+0EeEedZd2lmOHtoWd5QXHnaVftT//lD6UV/5pXPp4CPceTo7+Gh1sNGp8n7Edq0/6SqBa796dXgiXR74pezngR5aqv7JNd83WzepdbF6n+9j43NLhupOpVa8EzfmQaSVbtextKyLBciPx0BS7tNG70+XA6f3dTnwcqVW4efTetDiZMxLz6R/2wfXzaJ5nRtJoWWJW1aaLbUdpFbzdKn9Ez+4su0l9u1Uv8PF3iedBEiX9KeT+s2/26Oxqx4vpM6VcHQj31/kD+HNml6e+X9Zf7N8Hf16XEf/a1EC/UeYZ92lneXN6bL0yv2tKQo/cWPrywWrl652Kt2Hfyjdh//9nUsebLSTDtyrl2em5S4fdlXes/nx+8+Fe8ZfDg+kExFa4Xpqsfonl04oPXHv28Nt6QFvle2pTlLr4onbTofDX0ytbYvfK93KYvuHFBDS/3Bxd3pAYGX7TCcUD3/ymnDb0JVdrWPpku3qZc3V6dODwaoPCkvr7660T1sk/HNBWpd/+KWLH1SX6rfaElxqfk6EfcOFfcG+j6W66u7k9VL72lTfB585G0YPXbi1IQWia9P/LFG5hWWp73Cp90m/248fiuO/f/XC73bZYv/q5IXW+Ecn436iB1ftsDmUl9W/Ovk/s+G03lUvu89/Q/Jwn6+j/y6uX/ll9fk6GqeFPiLMs+7S06WvvvbiA9zyrPzhr2276IndqZV9952ns8sIm59WnULAvq+kM62vP3DJ7quLB3sfeUc6iFjeQ+nS/NOT9st7DMMP0vvHZYzd3Z+8MtyT7vm/5eVsGUfvfzlbRoE+1+oez26fKN2u/je7at2my2rTf0vVy//2bz2k1vj032SV99mmp8S3CnHNFts/lFLLZbolJ/0XfuW6mOa/72Nxv5P2DV2sY9VtvXn6dMB491fPLbzHdPxu9n06jev+qqDNKO2zH/jnswv1l9XvvbEOv5Ji48V1uNj3sJmkk1Ll/edpfXvsYKyDZbRYL7WvTfWdHix7822pJz9pmEJO80n5pb7Dpd4njU8n9kbSFRfFtp+ODdKDL6vb1q7vX7vkvgFKaf3df/AL2cN2033wz997Xfj4wU/H0j8qfkP+c9yXfD17mv2+t/1tXEf/Mq6jX8ymDT+Incvs6TNbpqenG8ePHw8zMzNhfHw8DA4OFqNYD3Nzc2FoaChMTExk38noaLqgrD+NjY2FRqMRjjx1Mq5JRWEhFodTp88UQwCwNlKofTyG2s8fPLfsk7e0l65ESyewH/tYDNnFyYL0bIvH/jCGeZe7Q1vv+/0dRR+r4cg/dZc7BnfuyONLU4a57/zWcHTv9jA5OVmU9JeRkZEsK05NTYXh4WFhvt9sxjCfnZHfoLJ7+Ta59fx+N0L9r1b99WvdbOT9QWKf0Jm1WA/q+F1s9O1jJWxb9DthfnVt2jB/7NixxuzsrDDfJ7TMA0B3UstwOJQ/eDT9an78yXQpdz2fG9HvUl13899jAjlhfnVt1jDvnnkAoNbScxZSy2zqyv+WlNWR6lqQB+gPA1HRCwAAANSBJA8AAAA1I8wDAABAzXiafZ/xADwAAIDV47+mY1VspDD/pzedL4YAAACW56+Pni36esPT7AEAAIB1IcwDAABAzQjzbDqHY3frwD0hnHgkL2BVqW96JV+Xrojr0mV5AQDAJjYwPz9f9EJvpQPvLTHEbRnYdVF34qEP5hO00evwV4cwKfCyWTx0Iu0X3hq7axa6cPiKngf1TufXy/ftdF7t6mA5el1vAEB9aJlnVb0rdo3Zz4XG/EsL3e67vp2PBDaVAzF5fuq6a0LjO7+J+4KXs+67sXvoCyHsCVuLqbqXwvFDt7419r0xL+hji9VBHZYfAOgfA1HRC2snb026Jxx46JFQbbGPx+Th/bc+EqbCwbDlus+FA7E8hCey6aut/OHwPbHkwnweOpzm88GF6Uvt5pccOJTm+fqrBdq9VyvN0x4+ELtYVm1lbx5OB/Pl9Fl34JGWy5i33n0wm+bWVNY0v+a6q863k89Tzqdd3ZWaX58+Y9Ju+ZLqa96fxsXPVmq3PGxsaVt85AuXhece/G0I+36eF0b7YnfbsZ+HPbe+KW4DW+M2sC2ui9fE9WRrXK+uiOvnZXE9eWtWFlYQ+LuVr6dXxK5163m+vV0Yt+XAZXE7vuyiz9C8vIvVwV2xDg6H89lnLlvZ0zJUhzt9z2rL/62prGl+Bx5KdZrP48RDsW4r803DpTR9tQ7Kz1/OZ72+GwAgJ8mzbqZi96Ef5a32X559Kfzl3SHsjmHyu8fuCO8K+7MW/YfjuBNhNAu7zz34o4VpD3zgR/HVefBM8wlfSPP5H9n0IU5f2h275vml8dX3vuM76b3/IZY8sRD+271XVTntdz9xMJv2udg9Gz4X9rSYtpQOsp/+wAcXrlb4burinJqX8XBcxk9dd09ofOeGbLqb4jIeiEG/+pmrdbcn1t2HvrVrYTjVZSefZ7G6S9p9xhPx9e2Wr/k902cM8bMlSy0PG9eh+OW/a/rNYfdtvyxKLsi307m4DfwqbgNn47r4ciz5VbF+bovryumFsrWSAnZj/uexy1vPvzz7clxX3xRL87D89Afemi1r2bL+3fDGlp+harE6WEqn73k49n/quisWWv5v+k5c7hj0y7Cd7ztSneafKd93XLMwnO87thbbajrx8KaFceXnT9bzuwEAcsI8qyod8KXW5rIVttoSmy7B3/cXKQCGcH08mn863BDTXjqEvFg6AL5j+tth912fyoZvi9M+MvLBOJ//nQ2n+dz1tTSf38uGO1F97w/Fo/anU9iM773Ue1XlB+bfXphPCiR3PXxHeK4pEDfLDoKfyz9nCgz7Hn4g66/61uG4HKk1e99/zIbTMj6SlrHymat1965Yd63qcqV11+4z/uXh0bbL1/yeVd3ULxvPTemf3b/J+juRr5/p/5U9nw1XVVuf02Xrn5p+Q+x/Szbcq5biast0eo+nwxvidpUCbbkd55fF59vxhZb2xXRbB1WdvGe+74iffV9+wiDfNmPQPvzmbDjfd+T/V2++7/jNRcNPx+H0GfNt9c1xW30tG5dvq3Gelfm0+24AgLUhzLOq0gFf8z3zYd/rw+tifvRcOhj9h3hAvT92u8KedEJgOg+XvdbNe6Vpb4rTht0p4nbmrjjpHd/5dtjygYPZ/KsnN5rdMJL+zUP2nvTPSOfvU1pp3S32GdstX3pNSK9pYaXLQ709nf4pwvBKpW2pMf/T2OWtxl8e+W3sP5kN96KlOAX598cgX7ZMp5bwcp75dvzTuB1vjevxxZegL2W5ddDNe+bbZh6y822z+8Cdb6vpBEl+MmNPer/pbcVYAKAfCPPUwh2xa8znl3ov96RApzp9rxuyo+Q/yPq78fC+NP98vukS/wMx2IcWl5n/aDr9++OsP8vH0yey/m6tpO4W+4ztlm+pelnL75L+kVp2p0Z+GU4cylt2+13Zwl22TDfLt+P8Evw70qXsMWQvdTXASuug0/fMt828BT/fNpf3YL18W71wq0Hqqvf6AwDrS5inL1UvRf+LdJnoyOfCiYe+nA0nBx6KIbKL/8atOr/FdPNe5SXihw9cuB/8oQOPhD0x4E6lVuri/b6QXl88AC49aKr6cLoUfG8Y+YOs9ay6jOVl6+VyNF9236mV1l27z/gX+55ou3zpUt1H0mX+xaXzaVz5+RdbnjTvLbc+svCAPTaWuFqEOz4zF/bc/YaLWpTT6vHQrVfEbWDrRZeRr7e0bT4dfhvXzbwVPV+P8+Ccb8cXHhSXb8e/rWzHrT/D0nXwxrjvOL/w+i88lP52957lZfUnHtqeDZcnJcrL7juVb6tnF+aTHEjL47/AA4C+IcyzqtJBZvM989Uw20o8hgzvevC/ZJeipyeslw/F23P3DQvzuOEb/yEeGb8vf8ESmufXqhW8lA62O32vctr3/68Ll4xfHz4Xy38vHrDfsXAp/UfDf4tT5mE4HWhX5/2N63aFu772wfia0YuWcV9cxi/PPhCnTffs7gpPf2BXeHg2XY6++P34zbr5PK20/4yjbZcv1fcd33lg4fOHb6U6zz//SpeHeksty+mS+C0feFP87vNLxd8fu7s+k9aNX8VtYC6O29r1Pe/pEvS7jv009l18OXm+/9m28F7t5ttqurt2x+kePL1QHr6VXptfZp9vx79ZmP4b18Xpv/bLjj7D4nVwPgv75aX0Hw074yu6e8998T2/PPvzYtu8Jm6b18RtM93b3t1tB/m2mk48XHjPG77xljii+4f3AQCrY8v09HTj+PHjYWZmJoyPj4fBwcFiFOthbm4uDA0NhYmJiew7GR3tLrytpbGxsdBoNMKRp07GNakoLMTi8Kc3eTASAACwMn99NH9Ya68M7tyRx5emDHPf+a3h6N7tYXJysijpLyMjI1lWnJqaCsPDw1rmAVh9ZeuubmN2AMDaG3jttdYP9wGAXqk+RE238ToAYO0NbN9+4eE2AAAAQP9zmT0AAADUjDAPAAAANSPMAwAAQM0I8wAAAFAz/p/5PrOR/p/5U6fPFEMAAAD9wf8zDwAAAKwLYR4AAABqZmB+fr7oBQAAAOpAyzwAAADUzEBU9AIAAAB1IMkDAABAzQjzAAAAUDPCPAAAANSMMA8AAAA1I8wDAABAzQjzAAAAUDPCPAAAANTMlmPHjjVmZ2fDzMxMGB8fD4ODg8Uo1sPc3FwYGhoKExMT2XcyOjpajOk/Y2NjodFohCNPnYxrUlFYiMXhlrdfUgwBAAD0h5mfnMvjS1OGue/81nB07/YwOTlZlPSXkZGRLCtOTU2F4eFhLfMAAABQNwNR0QsAAADUgSQPAAAANSPMAwAAQM0I8wAAAFAzwjwAAADUjDAPAAAANSPMAwAAQM0I8wAAAFAzA/Pz80UvAAAAUAda5gEAAKBmBqKiFwAAAKiDLdPT043jx4+HmZmZMD4+HgYHB4tRrIe5ubkwNDQUJiYmsu9kdHS0GNN/xsbGQqPRCN976mRRAgAAUE//ff5cOP7vh8Lk5GRR0l9GRkayrDg1NRWGh4ddZg8AAAB1I8wDAABAzQjzAAAAUDPCPAAAANSMMA8AAAA142n2faZuT7P/t//nhWIIAACg3ur0NHthvs/ULcwDAABsJLUJ89/73vcaL730kjDfJ+oU5gEAAFgbr/t/5rdv316MAgAAAOrAA/AAAACgZoR5AAAAqBlhHgAAAGpGmAcAAICaEeYBAACgZoR5AAAAqBlhHgAAAGpmYH5+vugFAAAA6kDLPAAAANTMQFT0AgAAAHUgyQMAAEDNCPMAAABQM8I8AAAA1IwwDwAAADUjzAMAAEDNCPMAAABQM8I8AAAA1MzA/Px80QsAAADUgZZ5AAAAqJmBqOgFAAAA6kCSBwAAgJoR5gEAAKBmhHkAAACoGWEeAAAAakaYBwAAgJoR5gEAAKBmhHkAAAComYH5+fmiFwAAAKgDLfMAAABQMwNR0QsAAADUwcAb3/jGkDoAAACgf507dy686U1vyvoHtm3bFrZu3ZoNAAAAAP3pX/7lX8Lv/u7vZv0DqUeYBwAAgP529uzZhTC/5V//9V8bTz/9dHj88cfDJz7xiayQ9XPppZeGoaGhMDExEWZmZsLo6GgxBgAAgM3q5ptvDj/96U/DDTfcEN785jeHLY3olVdeCX/3d38X/uRP/qSYjPUyNzcnzAMAAHCR3bt3h8HBwXD11Vdnw1mYTz3PPvts+NWvfhUuv/xyD8RbZ2WY/+M//uOiBAAAgM3o/Pnz4cyZM1lOv/7668OWLVuy8oUwn/6kFvoXX3wxS/rpcu8U7C+55JJsQgAAAGD1pafWp4fdpXvkX3755bBr165w1VVXLQT5ZCHMl375y1+Gn/3sZ+GFF17IHnmfzgK0Mz8/n/1d6v+q7/V0yWuvvRa2b99eDOUOHjwY9u/fXwwBsFzN+9OV7p+b9dvvRzPL157lez3L15rla83ytdfp8qV5nTp1KvzO7/xO1vDYybyhblIWTw+6S90VV1yR3SPfbEtM+ReF+VL1kfftrGQjTmcUqucR0vBvf/vbrL+crnmaqlbL99nPfjY8/PDDxRAAy3XgwIHw+c9/Puvvxf65Wb/9fjSzfJYvsXytWT7Ll6zn8qUWyh//+Mdhx44dWaB/wxveUIyFzSSE/w8MGjzrVWytkwAAAABJRU5ErkJggg==;" parent="sDDYBNbBu50_8kbClNVD-30" vertex="1">
          <mxGeometry y="30" width="331.45" height="239" as="geometry" />
        </mxCell>
        <mxCell id="sDDYBNbBu50_8kbClNVD-26" value="ABC Legacy Client" style="text;html=1;strokeColor=none;fillColor=none;align=center;verticalAlign=middle;whiteSpace=wrap;rounded=0;" parent="sDDYBNbBu50_8kbClNVD-30" vertex="1">
          <mxGeometry x="80" width="200" height="30" as="geometry" />
        </mxCell>
        <mxCell id="GutyjuCtOmcG-UAVumAa-1" style="edgeStyle=orthogonalEdgeStyle;rounded=0;orthogonalLoop=1;jettySize=auto;html=1;exitX=0.25;exitY=1;exitDx=0;exitDy=0;startArrow=blockThin;startFill=1;entryX=0.482;entryY=-0.012;entryDx=0;entryDy=0;entryPerimeter=0;" parent="1" source="sDDYBNbBu50_8kbClNVD-14" target="GutyjuCtOmcG-UAVumAa-3" edge="1">
          <mxGeometry relative="1" as="geometry">
            <mxPoint x="180" y="920" as="targetPoint" />
          </mxGeometry>
        </mxCell>
        <mxCell id="GutyjuCtOmcG-UAVumAa-8" value="" style="group" parent="1" vertex="1" connectable="0">
          <mxGeometry x="210" y="880" width="100" height="130" as="geometry" />
        </mxCell>
        <mxCell id="GutyjuCtOmcG-UAVumAa-6" value="" style="sketch=0;pointerEvents=1;shadow=0;dashed=0;html=1;strokeColor=none;labelPosition=center;verticalLabelPosition=bottom;verticalAlign=top;align=center;fillColor=#505050;shape=mxgraph.mscae.intune.mobile_inventory" parent="GutyjuCtOmcG-UAVumAa-8" vertex="1">
          <mxGeometry x="9.09090909090909" width="90.9090909090909" height="95.33333333333334" as="geometry" />
        </mxCell>
        <mxCell id="GutyjuCtOmcG-UAVumAa-7" value="Mobile&lt;br&gt;Item Manager" style="text;html=1;strokeColor=none;fillColor=none;align=center;verticalAlign=middle;whiteSpace=wrap;rounded=0;" parent="GutyjuCtOmcG-UAVumAa-8" vertex="1">
          <mxGeometry y="104" width="90.9090909090909" height="26" as="geometry" />
        </mxCell>
        <mxCell id="GutyjuCtOmcG-UAVumAa-9" style="edgeStyle=orthogonalEdgeStyle;rounded=0;orthogonalLoop=1;jettySize=auto;html=1;exitX=0.23;exitY=0.01;exitDx=0;exitDy=0;exitPerimeter=0;entryX=0.5;entryY=1;entryDx=0;entryDy=0;startArrow=blockThin;startFill=1;endArrow=blockThin;endFill=1;" parent="1" source="GutyjuCtOmcG-UAVumAa-6" target="sDDYBNbBu50_8kbClNVD-14" edge="1">
          <mxGeometry relative="1" as="geometry">
            <Array as="points">
              <mxPoint x="240" y="840" />
              <mxPoint x="180" y="840" />
            </Array>
          </mxGeometry>
        </mxCell>
        <mxCell id="GutyjuCtOmcG-UAVumAa-14" value="" style="group" parent="1" vertex="1" connectable="0">
          <mxGeometry x="342.5" y="880" width="100" height="130" as="geometry" />
        </mxCell>
        <mxCell id="GutyjuCtOmcG-UAVumAa-10" value="" style="verticalLabelPosition=bottom;html=1;verticalAlign=top;align=center;strokeColor=none;fillColor=#00BEF2;shape=mxgraph.azure.mobile;pointerEvents=1;" parent="GutyjuCtOmcG-UAVumAa-14" vertex="1">
          <mxGeometry x="22.5" width="55" height="90" as="geometry" />
        </mxCell>
        <mxCell id="GutyjuCtOmcG-UAVumAa-12" value="" style="image;sketch=0;aspect=fixed;html=1;points=[];align=center;fontSize=12;image=img/lib/mscae/Clock.svg;" parent="GutyjuCtOmcG-UAVumAa-14" vertex="1">
          <mxGeometry x="35" y="26.909999999999968" width="30" height="30" as="geometry" />
        </mxCell>
        <mxCell id="GutyjuCtOmcG-UAVumAa-13" value="Time Clock" style="text;html=1;strokeColor=none;fillColor=none;align=center;verticalAlign=middle;whiteSpace=wrap;rounded=0;" parent="GutyjuCtOmcG-UAVumAa-14" vertex="1">
          <mxGeometry y="100" width="100" height="30" as="geometry" />
        </mxCell>
        <mxCell id="GutyjuCtOmcG-UAVumAa-15" value="" style="group" parent="1" vertex="1" connectable="0">
          <mxGeometry x="60" y="880" width="100" height="130" as="geometry" />
        </mxCell>
        <mxCell id="GutyjuCtOmcG-UAVumAa-3" value="" style="image;sketch=0;aspect=fixed;html=1;points=[];align=center;fontSize=12;image=img/lib/mscae/Mobile_Engagement.svg;" parent="GutyjuCtOmcG-UAVumAa-15" vertex="1">
          <mxGeometry x="21.5" width="57" height="83.82" as="geometry" />
        </mxCell>
        <mxCell id="GutyjuCtOmcG-UAVumAa-4" value="Customer&lt;br&gt;Engagement App" style="text;html=1;strokeColor=none;fillColor=none;align=center;verticalAlign=middle;whiteSpace=wrap;rounded=0;" parent="GutyjuCtOmcG-UAVumAa-15" vertex="1">
          <mxGeometry y="100" width="100" height="30" as="geometry" />
        </mxCell>
        <mxCell id="GutyjuCtOmcG-UAVumAa-16" style="edgeStyle=orthogonalEdgeStyle;rounded=0;orthogonalLoop=1;jettySize=auto;html=1;exitX=0.5;exitY=0;exitDx=0;exitDy=0;exitPerimeter=0;entryX=0.75;entryY=1;entryDx=0;entryDy=0;startArrow=blockThin;startFill=1;endArrow=blockThin;endFill=1;" parent="1" source="GutyjuCtOmcG-UAVumAa-10" target="sDDYBNbBu50_8kbClNVD-14" edge="1">
          <mxGeometry relative="1" as="geometry" />
        </mxCell>
        <mxCell id="GutyjuCtOmcG-UAVumAa-18" style="edgeStyle=orthogonalEdgeStyle;rounded=0;orthogonalLoop=1;jettySize=auto;html=1;exitX=0.5;exitY=0;exitDx=0;exitDy=0;entryX=1;entryY=0.5;entryDx=0;entryDy=0;startArrow=blockThin;startFill=1;endArrow=blockThin;endFill=1;" parent="1" source="GutyjuCtOmcG-UAVumAa-17" target="sDDYBNbBu50_8kbClNVD-14" edge="1">
          <mxGeometry relative="1" as="geometry">
            <Array as="points">
              <mxPoint x="530" y="760" />
              <mxPoint x="270" y="760" />
              <mxPoint x="270" y="703" />
            </Array>
          </mxGeometry>
        </mxCell>
        <mxCell id="GutyjuCtOmcG-UAVumAa-20" value="" style="group" parent="1" vertex="1" connectable="0">
          <mxGeometry x="480" y="900" width="100" height="110" as="geometry" />
        </mxCell>
        <mxCell id="GutyjuCtOmcG-UAVumAa-17" value="" style="image;html=1;image=img/lib/clip_art/networking/Print_Server_128x128.png" parent="GutyjuCtOmcG-UAVumAa-20" vertex="1">
          <mxGeometry x="10" width="80" height="80" as="geometry" />
        </mxCell>
        <mxCell id="GutyjuCtOmcG-UAVumAa-19" value="Print Server" style="text;html=1;strokeColor=none;fillColor=none;align=center;verticalAlign=middle;whiteSpace=wrap;rounded=0;" parent="GutyjuCtOmcG-UAVumAa-20" vertex="1">
          <mxGeometry y="80" width="100" height="30" as="geometry" />
        </mxCell>
        <mxCell id="GutyjuCtOmcG-UAVumAa-22" value="" style="image;html=1;image=img/lib/clip_art/computers/Printer_128x128.png" parent="1" vertex="1">
          <mxGeometry x="632" y="980" width="68" height="50" as="geometry" />
        </mxCell>
        <mxCell id="GutyjuCtOmcG-UAVumAa-24" style="edgeStyle=orthogonalEdgeStyle;rounded=0;orthogonalLoop=1;jettySize=auto;html=1;exitX=0;exitY=0.5;exitDx=0;exitDy=0;entryX=1;entryY=0.25;entryDx=0;entryDy=0;endArrow=none;endFill=0;startArrow=blockThin;startFill=1;" parent="1" source="GutyjuCtOmcG-UAVumAa-23" target="GutyjuCtOmcG-UAVumAa-17" edge="1">
          <mxGeometry relative="1" as="geometry" />
        </mxCell>
        <mxCell id="GutyjuCtOmcG-UAVumAa-23" value="" style="image;html=1;image=img/lib/clip_art/computers/Printer_Commercial_128x128.png" parent="1" vertex="1">
          <mxGeometry x="632" y="840" width="71" height="93" as="geometry" />
        </mxCell>
        <mxCell id="GutyjuCtOmcG-UAVumAa-25" style="edgeStyle=orthogonalEdgeStyle;rounded=0;orthogonalLoop=1;jettySize=auto;html=1;exitX=1;exitY=0.75;exitDx=0;exitDy=0;endArrow=blockThin;endFill=1;" parent="1" source="GutyjuCtOmcG-UAVumAa-17" target="GutyjuCtOmcG-UAVumAa-22" edge="1">
          <mxGeometry relative="1" as="geometry" />
        </mxCell>
        <mxCell id="GutyjuCtOmcG-UAVumAa-26" value="" style="rounded=0;whiteSpace=wrap;html=1;fillColor=#FFFFFF85;dashed=1;" parent="1" vertex="1">
          <mxGeometry x="40" y="750" width="690" height="310" as="geometry" />
        </mxCell>
        <mxCell id="GutyjuCtOmcG-UAVumAa-27" value="to be developed" style="text;html=1;strokeColor=default;fillColor=default;align=center;verticalAlign=middle;whiteSpace=wrap;rounded=0;dashed=1;" parent="1" vertex="1">
          <mxGeometry x="320" y="1040" width="120" height="40" as="geometry" />
        </mxCell>
      </root>
    </mxGraphModel>
  </diagram>
  <diagram id="1snl7hcIWKQnGoYkmz4v" name="Page-2">
    <mxGraphModel dx="1826" dy="1385" grid="1" gridSize="10" guides="1" tooltips="1" connect="1" arrows="1" fold="1" page="1" pageScale="1" pageWidth="850" pageHeight="1100" math="0" shadow="0">
      <root>
        <mxCell id="0" />
        <mxCell id="1" parent="0" />
      </root>
    </mxGraphModel>
  </diagram>
</mxfile>
